<svg width="782" height="603" viewBox="0 0 782 603" fill="none" xmlns="http://www.w3.org/2000/svg">
<mask id="mask0_1024_2841" style="mask-type:luminance" maskUnits="userSpaceOnUse" x="8" y="119" width="766" height="474">
<path d="M8.28662 119.344H773.287V592.182H8.28662V119.344Z" fill="white"/>
</mask>
<g mask="url(#mask0_1024_2841)">
<path d="M772.948 336.482C770.719 290.034 757.198 244.904 726.51 209.826C691.5 169.805 636.792 149.133 586.844 161.352C533.974 174.284 485.958 221.217 432.958 208.925C397.287 200.649 376.896 168.336 348.219 147.654C319.896 127.237 284.885 118.498 251 119.545C183.771 121.618 114.641 153.164 67.474 204.602C4.7865 272.972 -13.3385 399.17 38.6667 474.576C89.3646 548.092 194.677 592.138 295.271 592.138C339.229 592.138 395.089 591.972 405.99 592.138C452.901 592.852 511.797 585.065 548.328 577.696C643.495 558.482 763.813 457.763 771.479 384.539C773.146 368.602 773.719 352.461 772.948 336.482Z" fill="#FAE4D4"/>
</g>
<path d="M486.859 394.831H269.74C263.344 394.831 258.156 389.648 258.156 383.263V115.393C258.156 109.003 263.344 103.82 269.74 103.82H486.859C493.26 103.82 498.448 109.003 498.448 115.393V383.263C498.448 389.648 493.26 394.831 486.859 394.831Z" fill="white"/>
<mask id="mask1_1024_2841" style="mask-type:luminance" maskUnits="userSpaceOnUse" x="256" y="102" width="244" height="99">
<path d="M256 102.711H500V200.331H256V102.711Z" fill="white"/>
</mask>
<g mask="url(#mask1_1024_2841)">
<path d="M259.183 118.593C259.183 116.968 259.058 115.271 259.38 113.666C259.891 111.099 261.308 108.781 263.365 107.161C265.38 105.578 267.823 104.849 270.36 104.843C271.985 104.838 273.61 104.843 275.235 104.843C283.641 104.843 292.047 104.843 300.453 104.843C313.589 104.843 326.724 104.843 339.854 104.843C355.235 104.843 370.61 104.843 385.99 104.843C400.865 104.843 415.74 104.843 430.615 104.843C442.495 104.843 454.38 104.843 466.255 104.843C472.578 104.843 478.896 104.843 485.214 104.843C485.62 104.843 486.031 104.838 486.443 104.843C490.573 104.885 494.339 107.13 496.24 110.817C497.854 113.953 497.422 117.854 497.422 121.286C497.422 134.599 497.422 147.911 497.422 161.229C497.422 173.005 497.422 184.786 497.422 196.562C497.422 197.218 497.422 197.875 497.422 198.531C497.422 199.849 499.469 199.849 499.469 198.531C499.469 189.557 499.469 180.588 499.469 171.614C499.469 156.927 499.469 142.239 499.469 127.552C499.469 123.807 499.469 120.057 499.469 116.312C499.469 108.968 493.974 102.885 486.469 102.797C481.979 102.745 477.485 102.797 472.99 102.797C462.078 102.797 451.167 102.797 440.25 102.797C425.698 102.797 411.141 102.797 396.584 102.797C380.917 102.797 365.245 102.797 349.578 102.797C335.589 102.797 321.604 102.797 307.62 102.797C297.948 102.797 288.276 102.797 278.61 102.797C276.229 102.797 273.854 102.797 271.474 102.797C271.042 102.797 270.604 102.791 270.172 102.797C266.339 102.833 262.641 104.453 260.172 107.427C258.594 109.323 257.573 111.604 257.25 114.057C257.052 115.557 257.13 117.088 257.13 118.593C257.13 119.911 259.183 119.911 259.183 118.593Z" fill="#180C45"/>
</g>
<path d="M259.208 138.273C290.281 138.273 321.36 138.273 352.432 138.273C383.417 138.273 414.401 138.273 445.386 138.273C462.698 138.273 480.011 138.273 497.323 138.273C498.641 138.273 498.641 136.227 497.323 136.227C466.245 136.227 435.172 136.227 404.099 136.227C373.115 136.227 342.125 136.227 311.141 136.227C293.833 136.227 276.521 136.227 259.208 136.227C257.891 136.227 257.886 138.273 259.208 138.273Z" fill="#180C45"/>
<path d="M453.708 121.302C453.708 125.365 450.411 128.651 446.354 128.651C442.286 128.651 438.995 125.365 438.995 121.302C438.995 117.245 442.286 113.953 446.354 113.953C450.411 113.953 453.708 117.245 453.708 121.302Z" fill="#4050FF"/>
<path d="M479.922 121.302C479.922 125.365 476.63 128.651 472.568 128.651C468.505 128.651 465.213 125.365 465.213 121.302C465.213 117.245 468.505 113.953 472.568 113.953C476.63 113.953 479.922 117.245 479.922 121.302Z" fill="#4050FF"/>
<path d="M378.297 278.807L446.13 290.536C440.443 323.37 411.651 347.578 378.297 347.578C340.536 347.578 309.463 316.536 309.463 278.807C309.463 241.078 340.536 210.031 378.297 210.031C380.443 210.031 382.583 210.13 384.719 210.333L378.297 278.807Z" fill="#D5DBE8"/>
<path d="M385.323 275.497L432.609 225.523C446.364 238.503 454.161 256.596 454.161 275.497C454.161 276.07 454.151 276.643 454.14 277.221L385.323 275.497Z" fill="#FFB43B"/>
<path d="M361.057 169.664C375.588 169.664 390.12 169.664 404.651 169.664C405.969 169.664 405.974 167.617 404.651 167.617C390.12 167.617 375.588 167.617 361.057 167.617C359.739 167.617 359.739 169.664 361.057 169.664Z" fill="#180C45"/>
<path d="M296.745 169.664C313.896 169.664 331.047 169.664 348.198 169.664C349.515 169.664 349.515 167.617 348.198 167.617C331.047 167.617 313.896 167.617 296.745 167.617C295.427 167.617 295.422 169.664 296.745 169.664Z" fill="#180C45"/>
<path d="M296.745 183.648C308.417 183.648 320.088 183.648 331.76 183.648C333.078 183.648 333.078 181.602 331.76 181.602C320.088 181.602 308.417 181.602 296.745 181.602C295.427 181.602 295.422 183.648 296.745 183.648Z" fill="#180C45"/>
<path d="M383.932 267.523L397.125 200.023C402.234 201.018 407.213 202.596 411.963 204.711C416.719 206.826 421.219 209.477 425.375 212.607L383.932 267.523Z" fill="#0C826A"/>
<path d="M719.886 513.702L566.646 444.238C561.969 442.119 558.177 435.056 558.177 428.462V161.332C558.177 154.738 561.969 151.113 566.646 153.228L719.886 222.691C724.557 224.811 728.349 231.874 728.349 238.467V505.598C728.349 512.191 724.557 515.822 719.886 513.702Z" fill="white"/>
<path d="M727.328 467.551C727.328 478.301 727.328 489.051 727.328 499.796C727.328 503.78 728.417 512.04 723.333 513.197C721.5 513.608 719.682 512.493 718.062 511.764C715.37 510.54 712.677 509.322 709.984 508.103C704.792 505.749 699.599 503.395 694.406 501.04C693.219 500.499 692.172 502.264 693.375 502.806C697.969 504.895 702.562 506.973 707.161 509.056C710.156 510.415 713.156 511.775 716.156 513.134C717.766 513.863 719.531 514.905 721.286 515.217C726.052 516.072 728.766 511.686 729.26 507.525C729.453 505.895 729.375 504.217 729.375 502.577C729.375 496.056 729.375 489.535 729.375 483.014C729.375 477.863 729.375 472.707 729.375 467.551C729.375 466.233 727.328 466.233 727.328 467.551Z" fill="#180C45"/>
<path d="M559.203 169.825C559.203 167.32 559.203 164.82 559.203 162.314C559.203 159.32 559.557 154.57 563.193 153.747C565.13 153.304 567.146 154.575 568.854 155.351C571.739 156.658 574.63 157.965 577.515 159.278C579.536 160.189 581.552 161.111 583.573 162.023C584.76 162.559 585.802 160.799 584.604 160.252C579.646 158.007 574.682 155.757 569.719 153.507C567.562 152.528 565.349 151.241 562.89 151.721C558.536 152.564 557.187 157.585 557.156 161.393C557.13 164.2 557.156 167.012 557.156 169.825C557.156 171.137 559.203 171.143 559.203 169.825Z" fill="#180C45"/>
<path d="M558.406 184.048C580.312 193.975 602.213 203.907 624.12 213.834C646.073 223.787 668.031 233.74 689.989 243.693C702.338 249.292 714.687 254.891 727.036 260.49C728.229 261.027 729.271 259.266 728.073 258.719C706.167 248.792 684.266 238.86 662.359 228.933C640.401 218.98 618.448 209.027 596.489 199.074C584.141 193.475 571.792 187.881 559.443 182.282C558.25 181.74 557.208 183.501 558.406 184.048Z" fill="#180C45"/>
<path d="M696.667 229.652C696.667 233.715 694.333 235.944 691.458 234.642C688.583 233.34 686.25 228.991 686.25 224.933C686.25 220.871 688.583 218.636 691.458 219.944C694.333 221.246 696.667 225.595 696.667 229.652Z" fill="#4050FF"/>
<path d="M715.229 238.066C715.229 242.124 712.896 244.358 710.021 243.051C707.146 241.749 704.812 237.4 704.812 233.342C704.812 229.285 707.146 227.051 710.021 228.358C712.896 229.66 715.229 234.009 715.229 238.066Z" fill="#4050FF"/>
<path d="M706.156 282.219C694.005 276.714 681.859 271.204 669.713 265.704C668.521 265.162 667.479 266.923 668.682 267.469C680.823 272.975 692.974 278.48 705.12 283.985C706.307 284.527 707.354 282.761 706.156 282.219Z" fill="#180C45"/>
<path d="M706.156 296.201C697.885 292.456 689.62 288.706 681.354 284.961C680.161 284.42 679.12 286.185 680.323 286.727C688.583 290.477 696.854 294.222 705.12 297.972C706.307 298.508 707.354 296.748 706.156 296.201Z" fill="#180C45"/>
<path d="M610.229 429.654L583.088 417.352V264.06C583.088 260.665 585.036 258.8 587.437 259.889L605.88 268.248C608.281 269.337 610.229 272.972 610.229 276.363V429.654Z" fill="#4050FF"/>
<path d="M673.833 458.487L646.688 446.185V303.513C646.688 300.123 648.641 298.253 651.047 299.341L669.479 307.701C671.885 308.789 673.833 312.425 673.833 315.815V458.487Z" fill="#4050FF"/>
<path d="M642.031 444.076L614.891 431.768V328.862C614.891 325.471 616.839 323.602 619.24 324.695L637.677 333.049C640.083 334.138 642.031 337.773 642.031 341.164V444.076Z" fill="#FF5C33"/>
<path d="M705.635 472.902L678.495 460.594V377.433C678.495 374.037 680.443 372.172 682.844 373.266L701.286 381.62C703.687 382.709 705.635 386.344 705.635 389.735V472.902Z" fill="#FF5C33"/>
<path d="M211.078 472.059L57.4219 540.09C52.7344 542.163 48.9375 538.502 48.9375 531.908V264.778C48.9375 258.184 52.7344 251.153 57.4219 249.08L211.078 181.049C215.766 178.976 219.563 182.637 219.563 189.231V456.366C219.563 462.955 215.766 469.986 211.078 472.059Z" fill="white"/>
<path d="M86.8853 525.941C82.078 528.072 77.2707 530.197 72.4635 532.327C67.302 534.613 62.1874 537.066 56.9635 539.191C55.3489 539.848 53.5989 539.848 52.2447 538.624C50.4166 536.973 49.9843 534.238 49.9635 531.91C49.9478 530.452 49.9635 528.999 49.9635 527.546C49.9635 520.389 49.9635 513.233 49.9635 506.077C49.9635 500.582 49.9635 495.092 49.9635 489.598C49.9635 488.28 47.9114 488.28 47.9114 489.598C47.9114 501.973 47.9114 514.348 47.9114 526.728C47.9114 528.431 47.901 530.139 47.9114 531.842C47.9478 535.952 49.5832 541.301 54.4322 541.681C56.6197 541.858 58.7187 540.639 60.6666 539.775C63.8176 538.379 66.9687 536.983 70.1197 535.587C76.052 532.962 81.9843 530.337 87.9166 527.707C89.1197 527.176 88.078 525.41 86.8853 525.941Z" fill="#180C45"/>
<path d="M50.2033 286.829C72.1668 277.105 94.1252 267.381 116.089 257.657C138.104 247.912 160.12 238.162 182.136 228.417C194.516 222.933 206.901 217.454 219.281 211.964C220.485 211.438 219.448 209.672 218.25 210.198C196.287 219.922 174.323 229.646 152.365 239.37C130.349 249.12 108.334 258.865 86.3179 268.615C73.9325 274.094 61.5522 279.579 49.1668 285.058C47.9637 285.594 49.0054 287.355 50.2033 286.829Z" fill="#180C45"/>
<path d="M187.797 208.852C187.797 212.904 185.458 217.232 182.573 218.513C179.688 219.789 177.349 217.534 177.349 213.471C177.349 209.419 179.688 205.091 182.573 203.81C185.458 202.534 187.797 204.789 187.797 208.852Z" fill="#4050FF"/>
<path d="M206.411 200.605C206.411 204.662 204.073 208.99 201.187 210.266C198.302 211.542 195.963 209.287 195.963 205.23C195.963 201.172 198.302 196.844 201.187 195.568C204.073 194.292 206.411 196.542 206.411 200.605Z" fill="#4050FF"/>
<path d="M196.271 244.152C184.094 249.542 171.917 254.938 159.734 260.329C158.531 260.86 159.573 262.626 160.771 262.094C172.948 256.704 185.125 251.313 197.307 245.923C198.51 245.386 197.469 243.626 196.271 244.152Z" fill="#180C45"/>
<path d="M196.271 258.138C187.984 261.804 179.698 265.476 171.406 269.143C170.203 269.679 171.245 271.445 172.443 270.914C180.729 267.242 189.021 263.575 197.307 259.903C198.51 259.372 197.469 257.606 196.271 258.138Z" fill="#180C45"/>
<path d="M77.9478 326.535C77.9478 348.238 77.9478 369.936 77.9478 391.634C77.9478 413.332 77.9478 435.03 77.9478 456.733C77.9478 468.941 77.9478 481.155 77.9478 493.363C77.9478 494.681 79.9998 494.681 79.9998 493.363C79.9998 471.665 79.9998 449.967 79.9998 428.264C79.9998 406.566 79.9998 384.868 79.9998 363.171C79.9998 350.957 79.9998 338.749 79.9998 326.535C79.9998 325.217 77.9478 325.217 77.9478 326.535Z" fill="#180C45"/>
<path d="M110.198 312.264C110.198 333.962 110.198 355.66 110.198 377.363C110.198 399.061 110.198 420.758 110.198 442.456C110.198 454.67 110.198 466.878 110.198 479.092C110.198 480.41 112.25 480.41 112.25 479.092C112.25 457.389 112.25 435.691 112.25 413.993C112.25 392.295 112.25 370.592 112.25 348.894C112.25 336.686 112.25 324.472 112.25 312.264C112.25 310.946 110.198 310.941 110.198 312.264Z" fill="#180C45"/>
<path d="M142.448 297.98C142.448 319.684 142.448 341.382 142.448 363.079C142.448 384.777 142.448 406.475 142.448 428.178C142.448 440.387 142.448 452.6 142.448 464.809C142.448 466.126 144.5 466.132 144.5 464.809C144.5 443.111 144.5 421.413 144.5 399.71C144.5 378.012 144.5 356.314 144.5 334.616C144.5 322.402 144.5 310.194 144.5 297.98C144.5 296.663 142.448 296.663 142.448 297.98Z" fill="#180C45"/>
<path d="M174.698 283.701C174.698 305.399 174.698 327.097 174.698 348.795C174.698 370.498 174.698 392.196 174.698 413.894C174.698 426.107 174.698 438.316 174.698 450.529C174.698 451.842 176.75 451.847 176.75 450.529C176.75 428.826 176.75 407.128 176.75 385.43C176.75 363.732 176.75 342.029 176.75 320.331C176.75 308.123 176.75 295.91 176.75 283.701C176.75 282.383 174.698 282.378 174.698 283.701Z" fill="#180C45"/>
<path d="M79.4897 494.248C108.672 481.331 137.849 468.409 167.026 455.488C175.193 451.878 183.354 448.264 191.516 444.649C192.724 444.113 191.682 442.352 190.485 442.878C161.307 455.8 132.125 468.717 102.948 481.639C94.7866 485.248 86.62 488.863 78.4585 492.482C77.2554 493.014 78.297 494.779 79.4897 494.248Z" fill="#180C45"/>
<path d="M79.4897 449.218C108.672 436.296 137.849 423.38 167.026 410.458C175.193 406.843 183.354 403.229 191.516 399.614C192.724 399.083 191.682 397.317 190.485 397.849C161.307 410.765 132.125 423.687 102.948 436.604C94.7866 440.218 86.62 443.833 78.4585 447.447C77.2554 447.979 78.297 449.744 79.4897 449.218Z" fill="#180C45"/>
<path d="M79.4897 404.182C108.672 391.265 137.849 378.343 167.026 365.427C175.193 361.812 183.354 358.197 191.516 354.583C192.724 354.052 191.682 352.286 190.485 352.817C161.307 365.734 132.125 378.651 102.948 391.572C94.7866 395.187 86.62 398.802 78.4585 402.416C77.2554 402.947 78.297 404.713 79.4897 404.182Z" fill="#180C45"/>
<path d="M79.4897 359.154C108.672 346.232 137.849 333.316 167.026 320.399C175.193 316.784 183.354 313.165 191.516 309.555C192.724 309.019 191.682 307.258 190.485 307.784C161.307 320.706 132.125 333.623 102.948 346.54C94.7866 350.159 86.62 353.774 78.4585 357.389C77.2554 357.92 78.297 359.686 79.4897 359.154Z" fill="#180C45"/>
<path d="M85.0522 487.493C87.0106 473.426 89.0314 459.301 93.1304 445.665C96.8699 433.233 102.401 420.848 110.932 410.926C114.688 406.561 119.068 402.728 124.344 400.327C130.167 397.681 136.615 396.837 142.5 394.348C154.052 389.457 161.318 378.171 166.146 367.082C172.453 352.603 174.667 336.889 176.75 321.363C176.922 320.061 174.875 320.072 174.698 321.363C172.807 335.478 170.813 349.764 165.589 363.103C161.208 374.311 154.339 386.457 143.047 391.868C137.224 394.66 130.703 395.488 124.75 397.941C119.443 400.124 114.922 403.577 111.026 407.754C102.542 416.853 96.7658 428.441 92.7606 440.118C87.5731 455.264 85.2762 471.15 83.0783 486.947C82.896 488.238 84.8699 488.796 85.0522 487.493Z" fill="#180C45"/>
<path d="M92.9116 481.592C92.9116 488.566 88.896 495.993 83.9429 498.186C78.9897 500.379 74.9741 496.504 74.9741 489.535C74.9741 482.566 78.9897 475.139 83.9429 472.941C88.896 470.749 92.9116 474.624 92.9116 481.592Z" fill="#FFB43B"/>
<path d="M120.193 406.299C120.193 413.272 116.177 420.7 111.224 422.892C106.271 425.085 102.255 421.215 102.255 414.246C102.255 407.272 106.271 399.845 111.224 397.653C116.177 395.46 120.193 399.33 120.193 406.299Z" fill="#FFB43B"/>
<path d="M152.443 392.022C152.443 398.991 148.427 406.423 143.474 408.616C138.521 410.808 134.505 406.933 134.505 399.965C134.505 392.996 138.521 385.564 143.474 383.371C148.427 381.178 152.443 385.053 152.443 392.022Z" fill="#FFB43B"/>
<path d="M184.698 314.527C184.698 321.496 180.677 328.928 175.724 331.121C170.771 333.313 166.755 329.438 166.755 322.47C166.755 315.501 170.771 308.074 175.724 305.881C180.677 303.683 184.698 307.558 184.698 314.527Z" fill="#FFB43B"/>
<mask id="mask2_1024_2841" style="mask-type:luminance" maskUnits="userSpaceOnUse" x="247" y="466" width="160" height="127">
<path d="M247.141 466.68H406.38V592.18H247.141V466.68Z" fill="white"/>
</mask>
<g mask="url(#mask2_1024_2841)">
<path d="M406.141 592.125H405.99C395.089 591.964 339.229 592.125 295.266 592.125C279.531 592.125 263.672 591.052 247.938 588.943C246.344 560.266 248.245 529.099 259.865 503.083C268.224 484.365 286.672 466.136 308.771 466.708C320.943 467.016 332.13 473.057 341.469 480.458C359.755 494.938 373.412 514.755 383.771 535.438C391.719 551.339 400.011 573.807 406.141 592.125Z" fill="#FF5C33"/>
</g>
<path d="M283.344 474.583L302.854 444.547L382.307 495.13L370.453 519.469C370.453 519.469 315.031 505.057 283.344 474.583Z" fill="#FF5C33"/>
<path d="M275.583 537.424C276.458 553.976 283.302 569.986 294.489 582.2C297.635 585.637 301.125 588.726 304.885 591.471C305.948 592.252 306.974 590.476 305.917 589.705C293.026 580.283 283.703 566.268 279.703 550.84C278.562 546.45 277.875 541.96 277.63 537.424C277.562 536.111 275.515 536.106 275.583 537.424Z" fill="#180C45"/>
<path d="M282.62 476.749C291.985 486.061 303.198 493.457 314.886 499.52C326.776 505.691 339.406 510.619 352.396 513.915C358.787 515.535 365.297 516.754 371.87 517.306C373.182 517.415 373.177 515.369 371.87 515.259C359.875 514.249 348.063 511.046 336.787 506.931C324.141 502.306 311.912 496.301 300.724 488.79C294.781 484.801 289.146 480.353 284.068 475.301C283.13 474.369 281.682 475.816 282.62 476.749Z" fill="#180C45"/>
<path d="M361.401 564.104C369.167 563.427 372.719 555.089 374.177 548.474C376.125 539.625 375.406 530.271 372.12 521.828C371.646 520.615 369.661 521.141 370.146 522.37C373.135 530.057 374.005 538.511 372.469 546.625C371.359 552.479 368.562 561.432 361.401 562.057C360.099 562.172 360.088 564.219 361.401 564.104Z" fill="#180C45"/>
<path d="M345.719 512.562C351.688 533.312 357.656 554.057 363.62 574.807C365.156 580.161 366.703 585.51 368.24 590.864C368.604 592.124 370.578 591.593 370.214 590.322C364.245 569.572 358.281 548.822 352.313 528.077C350.776 522.723 349.235 517.369 347.693 512.015C347.334 510.754 345.354 511.291 345.719 512.562Z" fill="#180C45"/>
<path d="M324.182 346.81C329.651 329.263 337.906 312.3 344.911 295.727C348.062 288.263 351.323 280.846 354.812 273.555C349.687 268.133 345.396 263.471 345.396 263.471L318.489 249.206C316.672 248.19 314.833 247.201 312.963 246.273L312.89 246.237C306.599 243.112 299.989 240.586 293.026 239.612C269.792 236.352 255.239 256.68 249.068 276.471C243.771 293.445 243.114 311.612 243.729 329.258C244.078 339.164 244.922 349.044 245.849 358.909C246.854 369.607 248.047 380.378 251.021 390.737C251.39 392.013 252.099 395.331 252.838 398.612C250.307 400.273 247.797 401.977 245.333 403.737C242.198 405.982 239.114 408.294 236.078 410.664C233.161 412.94 230.12 415.201 227.484 417.805C225 420.258 223.583 423.779 225.495 427.024C227.015 429.596 230 430.841 232.906 430.82C231.62 431.872 230.364 432.956 229.193 434.112C226.708 436.565 225.286 440.091 227.203 443.331C228.932 446.263 232.562 447.466 235.812 447.05C239.417 446.581 242.812 444.622 245.989 442.977C249.213 441.305 252.37 439.518 255.443 437.586C253.359 439.815 251.265 442.076 249.474 444.529C247.411 447.346 246.578 451.05 248.984 453.945C251.161 456.56 254.932 457.175 258.078 456.242C261.562 455.211 264.594 452.732 267.474 450.602C270.401 448.43 273.245 446.154 275.979 443.742C281.026 439.289 285.922 434.399 290.13 429.081C289.682 432.69 289.307 436.315 289.005 439.94C288.693 443.622 288.286 447.393 288.406 451.091C288.521 454.581 290.146 458.013 293.828 458.81C297.156 459.534 300.505 457.695 302.406 455.029C304.515 452.065 305.38 448.247 306.328 444.8C307.297 441.289 308.219 437.758 308.802 434.164C314.765 397.555 310.542 334.471 310.547 334.112C314.917 338.534 319.469 342.773 324.182 346.81Z" fill="#FF9D70"/>
<path d="M627.901 476.789C623.365 463.711 617.49 451.07 611.005 438.857C598.229 414.773 582.958 391.263 566.714 369.419C564.932 367.018 563.266 365.326 561.261 363.508C554.854 369.326 548.245 374.961 541.953 380.893C532.865 389.456 524.193 398.508 515.224 407.237C520.719 416.992 526.344 426.674 532.073 436.294C532.068 436.294 532.068 436.289 532.063 436.284C531.771 436.768 526.62 441.919 526.12 442.341C523.74 444.341 522.479 447.602 520.646 450.086C517.922 453.773 514.922 457.31 512.021 460.862C506.682 467.404 501.281 473.872 496.026 480.477C488.87 489.471 473.052 478.232 466.458 487.633C473.292 495.013 488.531 512.69 495.568 519.888C533.099 558.253 592.328 594.695 624.766 549.716C631.38 540.544 634.068 528.883 634.688 517.638C635.459 503.737 632.438 489.852 627.901 476.789Z" fill="#FF9D70"/>
<path d="M538.88 444.057C549.901 458.406 560.922 472.75 571.943 487.099C572.734 488.13 574.515 487.114 573.708 486.067C562.687 471.718 551.666 457.369 540.646 443.02C539.854 441.994 538.073 443.01 538.88 444.057Z" fill="#180C45"/>
<path d="M577.672 385.242C570.854 369.924 545.271 354.309 540.932 352.429C533.75 349.315 525.01 355.33 527.286 363.487C527.588 364.565 527.979 365.627 528.406 366.669C524.917 366.341 521.312 367.21 519.083 369.96C517.135 372.362 517.38 375.252 518.177 378.059C518.526 379.299 519 380.523 519.552 381.71C514.292 381.898 509.047 384.554 508.521 390.377C508.151 394.497 510.172 398.716 512.047 402.273C513.016 404.106 514.234 405.893 515.734 407.351C516.437 408.513 517.161 409.653 517.864 410.763C521.766 416.898 526.812 422.283 534.521 422.71C541.766 423.106 549.161 419.497 554.917 415.372C560.625 411.278 567.807 407.33 571.719 401.513C574.052 398.039 579.344 389.002 577.672 385.242Z" fill="#FF9D70"/>
<path d="M628.844 354.279C612.995 374.997 583.802 379.31 563.636 363.909C543.469 348.513 539.969 319.237 555.813 298.523C571.662 277.805 600.854 273.497 621.021 288.893C641.188 304.289 644.688 333.565 628.844 354.279Z" fill="#180C45"/>
<path d="M560.875 376.607L552.198 369.977L583.364 329.227L592.052 335.857L560.875 376.607Z" fill="#180C45"/>
<path d="M623.552 350.243C618.349 357.035 611.474 361.775 603.995 364.275C591.979 368.306 578.422 366.598 567.792 358.483C550.552 345.306 547.557 320.275 561.099 302.566C571.542 288.926 588.75 283.603 603.995 287.9C608.531 289.17 612.906 291.311 616.865 294.327C634.115 307.488 637.104 332.525 623.552 350.243Z" fill="white"/>
<path d="M623.552 350.242C618.349 357.034 611.474 361.773 603.995 364.273V287.898C608.531 289.169 612.906 291.31 616.864 294.326C634.114 307.487 637.104 332.523 623.552 350.242Z" fill="#4050FF"/>
<path d="M515.745 408.501C520.13 413.022 525.078 417.913 531.547 419.069C534.474 419.595 537.75 419.225 539.76 416.814C541.442 414.798 541.875 411.97 541.297 409.46C540.453 405.798 537.609 402.944 535.057 400.366C534.13 399.429 532.677 400.876 533.609 401.814C536 404.225 538.844 406.955 539.411 410.465C539.932 413.684 538.182 416.819 534.781 417.21C531.291 417.606 527.708 415.897 524.906 413.986C522.041 412.033 519.594 409.528 517.192 407.054C516.271 406.106 514.823 407.554 515.745 408.501Z" fill="#180C45"/>
<path d="M518.302 382.889C522.099 389.774 527.083 396.009 533.015 401.181C536.849 404.519 542.489 408.92 547.567 405.342C550.276 403.436 551.245 400.134 551.646 397.003C551.817 395.701 549.765 395.717 549.599 397.003C549.234 399.816 548.192 403.149 545.286 404.259C542.38 405.368 539.442 403.701 537.161 401.957C530.135 396.582 524.333 389.582 520.067 381.858C519.432 380.701 517.666 381.733 518.302 382.889Z" fill="#180C45"/>
<path d="M527.88 367.557C530.135 371.271 532.87 374.693 536 377.719C536.948 378.63 538.401 377.188 537.448 376.271C534.443 373.36 531.823 370.099 529.646 366.526C528.958 365.401 527.187 366.427 527.88 367.557Z" fill="#180C45"/>
<path d="M563.099 375.564C556.917 375.096 550.708 375.023 544.521 375.387C541.552 375.559 538.552 375.767 535.609 376.221C533.333 376.57 531.088 377.387 529.766 379.382C527.219 383.226 529.099 388.293 531.969 391.361C535.63 395.278 540.958 396.804 546.109 397.502C552.989 398.434 560 398.575 566.922 398.116C568.234 398.028 568.245 395.981 566.922 396.07C561.432 396.434 555.922 396.398 550.443 395.924C545.474 395.502 540.203 394.872 535.953 392.054C532.656 389.866 529.396 385.517 531.031 381.366C531.953 379.023 534.396 378.408 536.667 378.122C539.349 377.783 542.057 377.575 544.755 377.418C550.87 377.07 557 377.148 563.099 377.611C564.411 377.71 564.411 375.663 563.099 375.564Z" fill="#180C45"/>
<path d="M547.448 364.266C550.297 368.73 553.656 372.865 557.453 376.563C558.401 377.485 559.849 376.037 558.901 375.115C555.229 371.537 551.979 367.558 549.219 363.235C548.511 362.126 546.735 363.152 547.448 364.266Z" fill="#180C45"/>
<path d="M482.734 366.844C471.193 354.828 458.937 343.526 446.198 332.802C446.463 332.646 446.729 332.479 447 332.318C430.578 319.438 413.526 307.365 396.161 295.797C379.479 284.688 362.547 273.875 345.396 263.469C322.958 288.38 310.755 320.969 306.057 351.495C311.114 355.406 326.39 368.057 335.713 375.026C333.901 377.453 305.255 425.557 289.932 457.969C309.401 472.391 335.849 486.979 362.005 499.714C390.094 513.38 424.036 503.385 439.932 476.521C440.026 476.354 440.12 476.188 440.224 476.026C449.844 490.719 460.875 504.609 471.844 518.328C504.057 498.875 529.364 477.37 550.625 454.625C540.833 439.25 497.057 381.75 482.734 366.844Z" fill="#0C826A"/>
<path d="M234.687 431.04C241.443 425.754 248.193 420.462 254.948 415.176C255.984 414.363 254.526 412.926 253.495 413.728C246.745 419.014 239.995 424.306 233.239 429.592C232.203 430.405 233.661 431.848 234.687 431.04Z" fill="#180C45"/>
<path d="M256.661 437.795C262 433.43 267.338 429.06 272.677 424.696C273.698 423.863 272.245 422.42 271.229 423.248C265.891 427.618 260.552 431.982 255.213 436.347C254.193 437.185 255.646 438.623 256.661 437.795Z" fill="#180C45"/>
<path d="M281.187 405.488C279.349 414.243 282.099 423.592 288.432 429.931C289.364 430.863 290.818 429.415 289.88 428.483C284.078 422.681 281.479 414.066 283.166 406.03C283.432 404.743 281.458 404.196 281.187 405.488Z" fill="#180C45"/>
<path d="M249.297 409.758C255.995 419.175 266.896 425.123 278.453 425.618C279.776 425.675 279.771 423.628 278.453 423.571C267.662 423.107 257.328 417.524 251.063 408.722C250.307 407.659 248.531 408.68 249.297 409.758Z" fill="#180C45"/>
<path d="M285.021 313.945C292.208 321.638 300.047 328.685 308.427 335.054C309.479 335.851 310.5 334.075 309.464 333.284C301.224 327.028 293.537 320.06 286.474 312.497C285.573 311.534 284.125 312.981 285.021 313.945Z" fill="#180C45"/>
<path d="M468.687 324.565L455.354 340.711C455.354 340.711 436.193 340.904 430.948 320.398L446.344 303.477L468.687 324.565Z" fill="#FF9D70"/>
<path d="M507.239 286.783C506.406 282.273 502.792 279.393 498.516 278.268C495.172 277.387 491.073 277.861 488.891 280.669C488.396 280.825 487.901 281.038 487.417 281.309C486.734 281.695 486.099 282.205 485.542 282.788C485.344 282.814 485.146 282.866 484.937 282.971C481.901 284.518 479.719 287.377 479.38 290.825C479.036 294.294 480.573 297.788 483.406 299.851C486.349 301.991 490.359 302.575 493.557 300.611C494.646 299.945 495.484 298.929 496.021 297.773C497.745 298.064 499.614 297.794 501.208 296.976C504.911 295.085 508.042 291.148 507.239 286.783Z" fill="#180C45"/>
<path d="M499.115 310.068C499.807 311.094 500.516 312.172 500.604 313.26C500.734 314.766 499.578 315.969 498.036 316.37C496.495 316.771 494.646 316.469 492.943 315.859L492.812 300.672C494.917 303.802 497.016 306.932 499.115 310.068Z" fill="#FF9D70"/>
<path d="M487.89 337.436C491.13 334.701 492.922 327.962 493.693 322.337C494.39 317.227 494.5 304.472 494.536 303.269C495.75 300.909 502.745 285.081 495.427 271.732C486.5 255.451 470.01 253.779 460.901 258.17C448.354 264.217 442.677 275.003 444.443 288.446C445.349 295.342 445.818 297.076 447.146 303.706C449.307 314.514 455.125 321.587 463.463 331.128C472.203 341.128 481.786 342.602 487.89 337.436Z" fill="#FF9D70"/>
<path d="M459.031 322.941C459.609 325.909 460.766 328.831 462.521 331.305C462.838 331.758 463.417 331.972 463.922 331.675C464.364 331.415 464.609 330.727 464.292 330.274C462.62 327.925 461.557 325.212 461.005 322.394C460.901 321.852 460.25 321.545 459.745 321.68C459.177 321.837 458.922 322.394 459.031 322.941Z" fill="#180C45"/>
<path d="M509.87 271.597C508.333 266.04 503.89 260.816 498.411 258.514C497.479 255.951 495.87 253.67 493.469 252.076C487.609 248.191 479.417 248.561 473.542 252.332C464.411 246.931 453.047 250.181 448.786 253.503C444.989 256.467 441.229 260.691 439.463 267.618C439.906 269.014 440.469 270.373 441.193 271.67C447.323 284.602 457.542 295.269 470.328 300.967C470.323 299.41 470.213 297.733 470.161 296.201C471.062 296.316 471.984 296.295 472.89 296.123C476.203 295.472 478.62 293.274 480.109 290.295C481.219 288.071 481.724 285.576 482.036 283.087C483.167 284.207 484.38 285.243 485.667 286.181C489.286 288.821 493.917 290.811 498.359 289.003C500.297 288.217 501.781 286.764 502.614 285.035C504.203 285.269 505.932 284.889 507.417 283.722C511.104 280.837 511 275.707 509.87 271.597Z" fill="#180C45"/>
<path d="M449.818 268.807C449.182 267.239 444.125 263.666 441.531 262.88C438.614 262.666 434.833 262.604 432.114 263.812C428.104 265.588 424.995 268.963 423.437 273.203C423.338 273.484 423.255 273.786 423.167 274.083C416.016 274.786 409.776 282.375 410.271 289.895C410.568 294.463 412.682 298.895 416.083 301.812C417.828 303.312 419.875 304.609 422.167 304.869C424.432 310.093 428.583 314.442 433.932 316.484C439.193 318.484 446.687 318.192 451.771 315.89C454.474 314.666 455.219 312.619 457.167 310.364C458.01 310.619 458.891 310.77 459.771 310.776C463.182 310.802 466.667 309.427 469.406 307.348C470.641 306.406 471.151 304.088 471.422 301.437C458.094 293.338 455 284.364 449.818 268.807Z" fill="#180C45"/>
<path d="M487.011 292.484C487.99 292.047 489.099 291.88 490.099 292.031C492.047 292.323 495.448 293.146 496.698 294.765C497.438 295.724 497.875 296.818 497.859 298.041C497.844 299.302 497.182 300.687 496.011 301.26C494.719 301.89 493.537 301.458 492.297 301.01C491.427 300.698 490.563 300.38 489.693 300.068C488.813 299.75 487.932 299.427 487.057 299.109C486.375 298.864 485.693 298.625 485.172 298.094C484.422 297.328 484.167 296.26 484.464 295.229C484.823 293.958 485.818 293.021 487.011 292.484Z" fill="#180C45"/>
<path d="M490.932 301.35C494.406 301.892 493.36 306.428 492.49 308.189C491.932 309.335 490.901 310.626 489.328 310.361C487.037 309.975 487.261 307.08 487.547 305.553C487.865 303.856 488.651 300.996 490.932 301.35Z" fill="#180C45"/>
<path d="M487.198 318.437C488.057 320.885 490.01 322.812 492.479 323.624C492.99 323.796 493.62 323.431 493.74 322.911C493.87 322.348 493.568 321.832 493.026 321.655C492.896 321.608 492.766 321.567 492.641 321.515C492.573 321.489 492.417 321.384 492.635 321.515C492.583 321.483 492.51 321.457 492.453 321.431C492.219 321.322 491.99 321.197 491.771 321.062C491.656 320.989 491.542 320.916 491.427 320.843C491.385 320.806 491.339 320.775 491.292 320.744C491.255 320.718 491.219 320.687 491.182 320.661C491.219 320.687 491.25 320.713 491.286 320.739C491.187 320.713 491.052 320.546 490.974 320.478C490.87 320.39 490.771 320.296 490.677 320.202C490.49 320.02 490.318 319.832 490.151 319.629C490.13 319.608 489.979 319.421 490.083 319.551C490.182 319.676 490.057 319.52 490.042 319.494C489.958 319.384 489.885 319.275 489.812 319.161C489.667 318.931 489.526 318.697 489.411 318.457C489.38 318.395 489.349 318.332 489.323 318.275C489.312 318.254 489.302 318.233 489.292 318.213C489.25 318.108 489.255 318.129 489.318 318.27C489.245 318.202 489.203 317.978 489.172 317.89C488.995 317.39 488.464 316.999 487.911 317.176C487.417 317.338 487.005 317.895 487.198 318.437Z" fill="#180C45"/>
<path d="M425.703 453.716C430.031 461.221 434.354 468.726 438.687 476.232C439.344 477.372 441.115 476.341 440.453 475.195C436.125 467.695 431.797 460.19 427.474 452.685C426.812 451.544 425.042 452.57 425.703 453.716Z" fill="#180C45"/>
<path d="M336.937 374.533C344.5 364.153 352.062 353.778 359.625 343.397C360.401 342.335 358.625 341.309 357.854 342.366C350.292 352.746 342.729 363.121 335.167 373.502C334.391 374.564 336.167 375.585 336.937 374.533Z" fill="#180C45"/>
<path d="M422.328 315.891C421.193 325.568 422.432 335.63 428.375 343.641C430.932 347.089 434.094 350.234 437.891 352.292C442.271 354.667 447.214 355.828 452.13 356.385C457.729 357.021 463.406 356.813 468.958 355.927C470.26 355.719 469.708 353.745 468.417 353.953C459.323 355.401 448.922 355.219 440.432 351.281C432.99 347.828 427.474 340.51 425.281 332.703C423.75 327.234 423.724 321.495 424.38 315.891C424.531 314.583 422.479 314.594 422.328 315.891Z" fill="#180C45"/>
<path d="M462.589 505.147C472.99 497.741 483.24 490.116 493.427 482.423C504.604 473.975 515.703 465.433 526.677 456.73C532.01 452.501 537.313 448.235 542.547 443.887C543.563 443.043 542.109 441.605 541.099 442.439C531.328 450.553 521.339 458.413 511.297 466.194C500.266 474.741 489.146 483.173 477.922 491.475C472.495 495.485 467.052 499.47 461.557 503.381C460.49 504.137 461.516 505.913 462.589 505.147Z" fill="#180C45"/>
<path d="M320.333 360.845C326.75 336.647 337.229 313.548 350.036 292.08C353.557 286.179 357.281 280.397 361.193 274.752C361.943 273.663 360.172 272.637 359.422 273.715C345.156 294.314 333.276 316.715 324.682 340.257C322.276 346.84 320.156 353.528 318.359 360.304C318.021 361.58 319.995 362.121 320.333 360.845Z" fill="#180C45"/>
<path d="M465.291 313.887C471.218 312.731 475.083 306.986 473.922 301.064C472.76 295.142 467.015 291.283 461.088 292.439C455.161 293.601 451.297 299.34 452.458 305.262C453.62 311.189 459.364 315.048 465.291 313.887Z" fill="#FF9D70"/>
<path d="M459.75 298.123C457.287 300.003 456.063 303.17 456.865 306.211C457.016 306.805 457.703 307.222 458.302 307.029C458.912 306.831 459.292 306.222 459.12 305.586C459.083 305.446 459.047 305.3 459.021 305.154C459.005 305.071 458.995 304.987 458.979 304.909C458.995 305.014 458.995 305.055 458.985 304.925C458.958 304.633 458.948 304.336 458.958 304.04C458.964 303.894 458.985 303.748 458.995 303.602C459.011 303.425 458.958 303.795 458.995 303.618C459.011 303.54 459.021 303.456 459.037 303.378C459.094 303.086 459.172 302.8 459.266 302.524C459.307 302.399 459.354 302.274 459.401 302.154C459.313 302.383 459.401 302.165 459.422 302.118C459.453 302.06 459.479 301.998 459.511 301.941C459.641 301.675 459.797 301.425 459.958 301.18C460.005 301.112 460.057 301.045 460.11 300.977C460.042 301.066 460.031 301.071 460.104 300.982C460.198 300.873 460.297 300.758 460.401 300.649C460.5 300.545 460.604 300.441 460.714 300.336C460.761 300.295 460.807 300.248 460.86 300.206C460.886 300.191 461.141 299.982 460.932 300.144C461.417 299.769 461.724 299.118 461.354 298.54C461.047 298.06 460.271 297.722 459.75 298.123Z" fill="#180C45"/>
</svg>
