<svg width="600" height="523" viewBox="0 0 600 523" fill="none" xmlns="http://www.w3.org/2000/svg">
<mask id="mask0_1025_2941" style="mask-type:luminance" maskUnits="userSpaceOnUse" x="60" y="8" width="242" height="249">
<path d="M60 8.14062H301.333V256.333H60V8.14062Z" fill="white"/>
</mask>
<g mask="url(#mask0_1025_2941)">
<path d="M287.792 185.63C295.74 169.318 300.203 150.995 300.203 131.625C300.203 63.4271 244.922 8.14062 176.719 8.14062C123.271 8.14062 77.7554 42.1042 60.5679 89.6302C84.1616 93.2552 102.281 113.693 102.281 138.281C102.281 161.036 86.7606 180.224 65.7502 185.839C85.8283 226.859 127.974 255.109 176.719 255.109C196.224 255.109 214.672 250.583 231.073 242.526C238.37 250.016 248.557 254.667 259.839 254.667C282.031 254.667 300.026 236.677 300.026 214.484C300.026 203.161 295.334 192.938 287.797 185.63H287.792Z" fill="#009299"/>
</g>
<path d="M300.026 214.479C300.026 236.677 282.031 254.672 259.844 254.672C248.557 254.672 238.359 250.021 231.057 242.536C255.734 230.427 275.771 210.333 287.797 185.625C295.344 192.927 300.026 203.151 300.026 214.479Z" fill="black" fill-opacity="0.2"/>
<mask id="mask1_1025_2941" style="mask-type:luminance" maskUnits="userSpaceOnUse" x="12" y="97" width="82" height="82">
<path d="M12.6616 97.6641H93.3335V178.997H12.6616V97.6641Z" fill="white"/>
</mask>
<g mask="url(#mask1_1025_2941)">
<path d="M53.0573 178.477C75.2552 178.477 93.25 160.477 93.25 138.279C93.25 116.081 75.2552 98.0859 53.0573 98.0859C30.8542 98.0859 12.8594 116.081 12.8594 138.279C12.8594 160.477 30.8542 178.471 53.0573 178.471V178.477Z" fill="#009299"/>
</g>
<mask id="mask2_1025_2941" style="mask-type:luminance" maskUnits="userSpaceOnUse" x="62" y="265" width="240" height="250">
<path d="M62.6665 265.664H301.333V514.138H62.6665V265.664Z" fill="white"/>
</mask>
<g mask="url(#mask2_1025_2941)">
<path d="M288.718 338.297C295.713 331.068 300.026 321.224 300.026 310.37C300.026 288.177 282.031 270.188 259.838 270.188C249.541 270.188 240.151 274.063 233.036 280.438C216.151 271.766 197.01 266.875 176.718 266.875C125.646 266.875 81.8174 297.885 63.0257 342.104C85.4059 346.724 102.281 366.583 102.281 390.313C102.281 414.042 85.3851 433.922 62.9893 438.531C81.7601 482.792 125.614 513.839 176.724 513.839C244.922 513.839 300.203 458.557 300.203 390.359C300.203 371.755 296.083 354.12 288.718 338.302V338.297Z" fill="#14213D"/>
</g>
<path d="M300.026 310.37C300.026 321.224 295.719 331.073 288.729 338.307C277.12 313.375 257.427 292.964 233.021 280.443C240.13 274.073 249.526 270.188 259.844 270.188C282.031 270.188 300.026 288.182 300.026 310.37Z" fill="black" fill-opacity="0.2"/>
<mask id="mask3_1025_2941" style="mask-type:luminance" maskUnits="userSpaceOnUse" x="12" y="349" width="82" height="82">
<path d="M12.6616 349.664H93.3335V430.997H12.6616V349.664Z" fill="white"/>
</mask>
<g mask="url(#mask3_1025_2941)">
<path d="M53.0573 430.516C75.2552 430.516 93.25 412.516 93.25 390.318C93.25 368.12 75.2552 350.125 53.0573 350.125C30.8542 350.125 12.8594 368.12 12.8594 390.318C12.8594 412.516 30.8542 430.51 53.0573 430.51V430.516Z" fill="#14213D"/>
</g>
<mask id="mask4_1025_2941" style="mask-type:luminance" maskUnits="userSpaceOnUse" x="310" y="8" width="242" height="249">
<path d="M310.667 8.14062H552V256.333H310.667V8.14062Z" fill="white"/>
</mask>
<g mask="url(#mask4_1025_2941)">
<path d="M546.989 91.9531C548.547 91.9531 550.078 92.0313 551.593 92.1771C535.135 43.3229 488.953 8.14062 434.552 8.14062C366.354 8.14062 311.067 63.4271 311.067 131.625C311.067 152.01 316.01 171.234 324.755 188.177C319.448 194.99 316.276 203.547 316.276 212.849C316.276 235.042 334.271 253.031 356.463 253.031C366.333 253.031 375.369 249.469 382.364 243.563C398.218 250.964 415.901 255.109 434.552 255.109C481.536 255.109 522.385 228.87 543.255 190.245C517.854 188.328 497.765 167.063 497.765 141.177C497.765 114.031 519.843 91.9479 546.989 91.9479V91.9531Z" fill="#14213D"/>
</g>
<path d="M382.365 243.568C375.365 249.474 366.333 253.031 356.464 253.031C334.271 253.031 316.281 235.042 316.281 212.849C316.281 203.547 319.443 194.979 324.755 188.172C337.266 212.427 357.573 231.995 382.365 243.568Z" fill="black" fill-opacity="0.2"/>
<mask id="mask5_1025_2941" style="mask-type:luminance" maskUnits="userSpaceOnUse" x="506" y="100" width="82" height="82">
<path d="M506.667 100.336H587.661V181.669H506.667V100.336Z" fill="white"/>
</mask>
<g mask="url(#mask5_1025_2941)">
<path d="M546.99 181.375C569.188 181.375 587.188 163.375 587.188 141.177C587.188 118.979 569.188 100.984 546.99 100.984C524.792 100.984 506.797 118.979 506.797 141.177C506.797 163.375 524.792 181.375 546.99 181.375Z" fill="#14213D"/>
</g>
<mask id="mask6_1025_2941" style="mask-type:luminance" maskUnits="userSpaceOnUse" x="310" y="265" width="238" height="250">
<path d="M310.667 265.664H548V514.138H310.667V265.664Z" fill="white"/>
</mask>
<g mask="url(#mask6_1025_2941)">
<path d="M546.989 439.536C519.843 439.536 497.765 417.458 497.765 390.313C497.765 363.167 519.843 341.089 546.989 341.089C547.265 341.089 547.536 341.104 547.812 341.109C528.791 297.422 485.239 266.875 434.552 266.875C416.067 266.875 398.536 270.943 382.791 278.224C375.739 272.094 366.536 268.38 356.463 268.38C334.271 268.38 316.276 286.37 316.276 308.563C316.276 317.974 319.521 326.615 324.932 333.464C316.078 350.49 311.067 369.839 311.067 390.359C311.067 458.557 366.354 513.839 434.552 513.839C485.276 513.839 528.849 483.25 547.854 439.516C547.562 439.521 547.276 439.536 546.989 439.536Z" fill="#009299"/>
</g>
<path d="M382.802 278.216C357.927 289.706 337.531 309.237 324.927 333.466C319.516 326.622 316.281 317.971 316.281 308.565C316.281 286.378 334.271 268.383 356.464 268.383C366.536 268.383 375.74 272.096 382.802 278.216Z" fill="black" fill-opacity="0.2"/>
<path d="M312.943 226.227H298.328C283.167 226.227 270.87 238.523 270.87 253.685V268.299C270.87 283.461 283.167 295.758 298.328 295.758H312.943C328.109 295.758 340.401 283.461 340.401 268.299V253.685C340.401 238.523 328.109 226.227 312.943 226.227Z" fill="white"/>
<mask id="mask7_1025_2941" style="mask-type:luminance" maskUnits="userSpaceOnUse" x="506" y="349" width="82" height="82">
<path d="M506.667 349.664H587.661V430.997H506.667V349.664Z" fill="white"/>
</mask>
<g mask="url(#mask7_1025_2941)">
<path d="M546.99 430.516C569.188 430.516 587.188 412.516 587.188 390.318C587.188 368.12 569.188 350.125 546.99 350.125C524.792 350.125 506.797 368.12 506.797 390.318C506.797 412.516 524.792 430.516 546.99 430.516Z" fill="#009299"/>
</g>
<mask id="mask8_1025_2941" style="mask-type:luminance" maskUnits="userSpaceOnUse" x="156" y="97" width="59" height="34">
<path d="M156 97.6641H214.375V130.997H156V97.6641Z" fill="white"/>
</mask>
<g mask="url(#mask8_1025_2941)">
<path d="M210.906 98.8984H194.875C193.578 98.8984 192.406 99.6797 191.911 100.872C191.411 102.076 191.688 103.451 192.604 104.367L198.255 110.018L188.26 120.013L177.703 109.456C176.448 108.201 174.422 108.201 173.172 109.456L157.141 125.487C155.885 126.742 155.885 128.768 157.141 130.018C157.766 130.643 158.583 130.961 159.406 130.961C160.224 130.961 161.047 130.643 161.672 130.018L175.438 116.253L185.995 126.815C187.25 128.065 189.276 128.065 190.531 126.815L202.792 114.555L208.641 120.398C209.255 121.013 210.073 121.341 210.906 121.341C211.318 121.341 211.734 121.258 212.135 121.096C213.333 120.602 214.109 119.43 214.109 118.133V102.102C214.109 100.331 212.677 98.8984 210.906 98.8984Z" fill="white"/>
</g>
<mask id="mask9_1025_2941" style="mask-type:luminance" maskUnits="userSpaceOnUse" x="143" y="85" width="72" height="72">
<path d="M143.375 85.9141H214.375V156.914H143.375V85.9141Z" fill="white"/>
</mask>
<g mask="url(#mask9_1025_2941)">
<path d="M210.708 150.203H149.786V89.2865C149.786 87.5156 148.349 86.0781 146.578 86.0781C144.812 86.0781 143.375 87.5156 143.375 89.2865V153.411C143.375 155.182 144.812 156.62 146.578 156.62H210.708C212.474 156.62 213.911 155.182 213.911 153.411C213.911 151.641 212.474 150.203 210.708 150.203Z" fill="white"/>
</g>
<mask id="mask10_1025_2941" style="mask-type:luminance" maskUnits="userSpaceOnUse" x="396" y="85" width="83" height="84">
<path d="M396.042 85.9141H478.667V168.914H396.042V85.9141Z" fill="white"/>
</mask>
<g mask="url(#mask10_1025_2941)">
<path d="M470.917 99.0619H458.026V88.7546C458.026 87.7234 457.51 86.6921 456.479 86.4317C455.448 85.9161 454.417 86.1765 453.646 86.9473L441.531 99.0619H421.943C417.563 99.0619 414.214 102.411 414.214 106.796V111.947H403.901C399.521 111.947 396.172 115.301 396.172 119.682V148.031C396.172 152.416 399.521 155.765 403.901 155.765H416.786V166.072C416.786 167.104 417.302 168.135 418.333 168.395C418.594 168.65 419.109 168.65 419.365 168.65C420.141 168.65 420.656 168.395 421.172 167.88L433.286 155.765H452.875C457.255 155.765 460.604 152.416 460.604 148.031V142.88H470.917C475.297 142.88 478.646 139.525 478.646 135.145V106.796C478.646 102.411 475.297 99.0619 470.917 99.0619ZM455.448 148.031C455.448 149.578 454.417 150.609 452.875 150.609H432.255C431.479 150.609 430.964 150.869 430.448 151.385L421.943 159.89V153.187C421.943 151.64 420.911 150.609 419.365 150.609H403.901C402.354 150.609 401.323 149.578 401.323 148.031V119.682C401.323 118.135 402.354 117.104 403.901 117.104H452.875C454.417 117.104 455.448 118.135 455.448 119.682V148.031ZM473.49 135.145C473.49 136.692 472.458 137.723 470.917 137.723H460.604V119.682C460.604 115.301 457.255 111.947 452.875 111.947H419.365V106.796C419.365 105.249 420.396 104.218 421.943 104.218H442.563C443.339 104.218 443.849 103.958 444.365 103.442L452.875 94.9369V101.64C452.875 103.187 453.901 104.218 455.448 104.218H470.917C472.458 104.218 473.49 105.249 473.49 106.796V135.145Z" fill="white"/>
</g>
<mask id="mask11_1025_2941" style="mask-type:luminance" maskUnits="userSpaceOnUse" x="143" y="340" width="79" height="104">
<path d="M143.375 340.281H221.375V443.281H143.375V340.281Z" fill="white"/>
</mask>
<g mask="url(#mask11_1025_2941)">
<path d="M184.948 368.01C183.75 360.115 191.354 354.76 197.916 349.469L203.021 350.615L207.068 340.281L181.166 345.703L187.703 347.172C177.416 351.688 159.807 358.646 159.807 370.625C159.807 385.406 181.786 386.5 181.786 397.203C181.786 409.161 132.198 422.12 145.745 443.078H203.338C187.385 426.177 221.719 416.052 221.719 399.089C221.719 382.125 186.38 377.49 184.948 368.01Z" fill="white"/>
</g>
<mask id="mask12_1025_2941" style="mask-type:luminance" maskUnits="userSpaceOnUse" x="166" y="345" width="40" height="99">
<path d="M166.667 345.664H205.333V443.279H166.667V345.664Z" fill="white"/>
</mask>
<g mask="url(#mask12_1025_2941)">
<path d="M174.25 430.898C177.297 426.404 181.692 422.695 185.88 419.133C189.791 415.82 195.406 411.471 198.963 407.81C202.057 404.591 205.885 400.258 204.515 395.393C203.119 391.039 198.604 388.211 194.968 385.924C190.067 382.94 184.864 380.529 180.062 377.451C177.682 375.831 174.635 373.826 173.88 370.945C173.531 368.586 174.276 366.169 175.39 364.086C179.713 356.612 187.843 352.487 194.047 346.773C187.093 352.852 175.338 358.154 172.979 367.758C172.119 371.367 173.244 373.477 175.817 375.924C179.036 378.878 182.89 381.013 186.588 383.221C190.989 385.977 202.948 391.893 202.255 397.742C200.817 407.716 173.437 419.633 168.515 432.737C167.026 436.362 167.38 439.935 169.01 443.076H174.708C171.14 439.367 171.229 435.372 174.25 430.904V430.898Z" fill="white"/>
</g>
<mask id="mask13_1025_2941" style="mask-type:luminance" maskUnits="userSpaceOnUse" x="374" y="341" width="106" height="101">
<path d="M374.667 341.664H479.198V441.664H374.667V341.664Z" fill="white"/>
</mask>
<g mask="url(#mask13_1025_2941)">
<path d="M468.817 353.877L478.776 343.945L478.64 377.065H445.135L455.651 366.877C451.849 364.43 445.177 360.898 436.317 359.961C414.781 357.69 399.817 372.82 398.14 374.575C379.588 393.961 386.291 420.419 386.713 421.961C389.166 430.987 393.765 437.398 396.838 441.028C393.791 438.857 389.703 435.435 386.005 430.388C374.625 414.846 372.198 391.034 382.619 371.768C395.182 348.549 421.885 340.32 442.526 343.153C454.671 344.82 463.687 350.185 468.817 353.877Z" fill="white"/>
</g>
<path d="M434.766 387.378C434.406 386.195 433.776 385.096 432.896 384.102C432.01 383.102 430.807 382.279 429.328 381.643C427.859 381.018 426.026 380.695 423.87 380.695C422.542 380.695 421.24 380.841 419.995 381.117C418.792 381.388 417.672 381.716 416.672 382.076C415.667 382.445 414.792 382.836 414.063 383.237C413.26 383.68 412.74 384.039 412.396 384.367C412.161 384.602 411.958 384.872 411.781 385.18C411.646 385.414 411.526 385.664 411.411 385.909C411.297 386.164 411.198 386.435 411.104 386.711C411.01 387.008 410.938 387.326 410.896 387.638C410.865 387.852 410.833 388.044 410.807 388.232C410.766 388.497 410.745 388.758 410.745 388.992C410.745 389.659 410.875 390.195 411.135 390.638C411.526 391.284 412.161 391.654 412.88 391.654C413.417 391.654 413.99 391.44 414.865 390.904C415.411 390.576 416.089 390.206 416.901 389.805C417.693 389.414 418.594 389.055 419.594 388.737C420.505 388.435 421.474 388.284 422.479 388.284C423.323 388.284 423.995 388.398 424.495 388.633C424.979 388.857 425.339 389.128 425.563 389.424C425.833 389.763 426.005 390.112 426.109 390.492C426.234 390.924 426.286 391.326 426.286 391.685C426.286 392.086 426.245 392.56 426.172 393.091C426.099 393.586 425.953 394.164 425.729 394.799C425.484 395.466 425.146 396.227 424.714 397.049C424.281 397.872 423.682 398.789 422.943 399.773C422.193 400.773 421.26 401.872 420.146 403.044C419.026 404.227 417.672 405.497 416.12 406.857L405.911 415.799C405.37 416.263 404.937 416.763 404.615 417.289C404.307 417.794 404.073 418.294 403.917 418.799C403.766 419.284 403.672 419.747 403.63 420.18C403.599 420.56 403.578 420.857 403.578 421.112C403.578 421.471 403.63 421.81 403.734 422.112C403.844 422.461 404.031 422.779 404.266 423.034C404.547 423.331 404.896 423.56 405.318 423.701C405.656 423.815 406.026 423.867 406.458 423.867H428.37C428.896 423.867 429.391 423.701 429.807 423.383C430.089 423.18 430.344 422.909 430.563 422.612C430.766 422.326 430.943 421.997 431.083 421.628C431.198 421.341 431.292 421.039 431.359 420.763C431.432 420.477 431.495 420.19 431.536 419.898C431.578 419.602 431.599 419.378 431.599 419.18C431.599 418.607 431.464 418.07 431.198 417.586C430.797 416.867 430.057 416.456 429.182 416.456H416.234L420.87 412.487C422.911 410.753 424.703 409.128 426.182 407.638C427.672 406.148 428.958 404.737 430.016 403.456C431.094 402.148 431.979 400.904 432.656 399.763C433.344 398.612 433.891 397.492 434.271 396.445C434.661 395.378 434.927 394.346 435.073 393.362C435.208 392.414 435.266 391.482 435.266 390.586C435.276 389.581 435.104 388.497 434.766 387.378Z" fill="white"/>
<path d="M464.583 407.477H461.901L466.646 383.857L466.656 383.794C466.729 383.169 466.516 382.576 466.063 382.122C465.745 381.805 465.313 381.576 464.745 381.424C464.365 381.32 463.906 381.237 463.339 381.185C462.802 381.133 462.167 381.102 461.448 381.102C460.792 381.102 460.193 381.122 459.698 381.154C459.146 381.195 458.662 381.258 458.24 381.362C457.776 381.471 457.386 381.617 457.047 381.794C456.625 382.008 456.287 382.294 456.031 382.622L436.912 406.727C436.667 407.034 436.448 407.367 436.266 407.727C436.11 408.044 435.969 408.372 435.844 408.711C435.729 409.029 435.625 409.357 435.537 409.69C435.443 410.029 435.37 410.346 435.307 410.643C435.245 410.961 435.208 411.263 435.188 411.529C435.167 411.794 435.146 412.023 435.146 412.216C435.146 412.935 435.339 413.534 435.719 413.987C436.162 414.518 436.828 414.784 437.693 414.784H452.281L451.016 421.284C450.86 421.794 450.901 422.32 451.146 422.773C451.365 423.164 451.703 423.471 452.167 423.685C452.485 423.831 452.865 423.935 453.339 423.997C453.719 424.049 454.193 424.07 454.766 424.07C455.323 424.07 455.781 424.049 456.182 423.997C456.636 423.945 457.016 423.852 457.344 423.737C457.797 423.576 458.156 423.346 458.427 423.049C458.693 422.763 458.875 422.404 458.979 422.003L458.99 421.971L460.422 414.773H463.688C464.172 414.773 464.636 414.633 465.047 414.357C465.344 414.148 465.62 413.883 465.849 413.565C466.052 413.273 466.229 412.956 466.36 412.607C466.474 412.32 466.578 412.013 466.646 411.701C466.719 411.414 466.771 411.138 466.813 410.893C466.854 410.612 466.875 410.357 466.875 410.117C466.875 409.513 466.75 408.987 466.495 408.549C466.115 407.867 465.417 407.477 464.583 407.477ZM456.646 393.049L453.781 407.487H445.208L456.646 393.049Z" fill="white"/>
<mask id="mask14_1025_2941" style="mask-type:luminance" maskUnits="userSpaceOnUse" x="402" y="427" width="16" height="16">
<path d="M402.667 427H417.333V442.281H402.667V427Z" fill="white"/>
</mask>
<g mask="url(#mask14_1025_2941)">
<path d="M415.911 427.93C415.823 427.898 415.698 427.867 415.552 427.846C415.422 427.826 415.255 427.815 415.062 427.815C414.854 427.815 414.682 427.826 414.547 427.846C414.401 427.867 414.292 427.898 414.187 427.93C414.021 427.977 413.901 428.06 413.797 428.164C413.693 428.279 413.63 428.409 413.599 428.544L412.604 433.529H407.505L408.463 428.727V428.701C408.484 428.565 408.463 428.419 408.411 428.299C408.359 428.185 408.255 428.018 408.01 427.93C407.917 427.888 407.792 427.857 407.641 427.836C407.495 427.815 407.338 427.805 407.146 427.805C406.948 427.805 406.786 427.815 406.641 427.836C406.5 427.857 406.385 427.888 406.281 427.919C406.13 427.966 406.005 428.039 405.901 428.143C405.786 428.258 405.719 428.388 405.687 428.544L403.114 441.456C403.073 441.617 403.094 441.773 403.167 441.924C403.219 442.029 403.333 442.185 403.557 442.268C403.651 442.305 403.776 442.336 403.917 442.357C404.052 442.378 404.229 442.388 404.432 442.388C404.625 442.388 404.781 442.378 404.937 442.357C405.078 442.336 405.203 442.305 405.307 442.279C405.469 442.227 405.604 442.133 405.708 442.018C405.786 441.924 405.838 441.815 405.87 441.701L405.88 441.68L406.989 436.081H412.099L411.042 441.424C410.989 441.586 411 441.763 411.073 441.914C411.125 442.029 411.234 442.174 411.474 442.258C411.568 442.294 411.687 442.315 411.833 442.346C411.969 442.367 412.13 442.378 412.328 442.378C412.531 442.378 412.698 442.367 412.838 442.346C412.984 442.326 413.109 442.294 413.198 442.268C413.354 442.216 413.479 442.133 413.578 442.029C413.672 441.924 413.734 441.815 413.766 441.701L413.776 441.68L416.354 428.737C416.396 428.596 416.385 428.44 416.323 428.299C416.281 428.185 416.172 428.018 415.911 427.93Z" fill="white"/>
</g>
<mask id="mask15_1025_2941" style="mask-type:luminance" maskUnits="userSpaceOnUse" x="416" y="427" width="15" height="16">
<path d="M416 427H430.667V442.281H416V427Z" fill="white"/>
</mask>
<g mask="url(#mask15_1025_2941)">
<path d="M428.646 429.039C428.198 428.586 427.63 428.247 426.974 428.008C426.323 427.784 425.583 427.68 424.745 427.68C423.714 427.68 422.792 427.836 421.99 428.143C421.188 428.451 420.479 428.872 419.88 429.398C419.287 429.919 418.781 430.518 418.37 431.195C417.969 431.852 417.641 432.555 417.396 433.263C417.146 433.971 416.964 434.69 416.86 435.409C416.755 436.117 416.693 436.789 416.693 437.404C416.693 438.216 416.807 438.935 417.021 439.565C417.25 440.211 417.589 440.763 418.042 441.206C418.495 441.648 419.057 441.987 419.729 442.206C420.375 442.419 421.125 442.523 421.969 442.523C423.005 442.523 423.953 442.357 424.771 442.029C425.583 441.701 426.307 441.268 426.901 440.737C427.485 440.211 427.99 439.591 428.401 438.914C428.792 438.247 429.11 437.549 429.36 436.841C429.594 436.138 429.771 435.43 429.87 434.742C429.974 434.065 430.026 433.435 430.026 432.883C430.026 432.07 429.912 431.331 429.698 430.69C429.438 430.044 429.099 429.482 428.646 429.039ZM422.235 439.971C421.719 439.971 421.287 439.904 420.958 439.779C420.63 439.654 420.375 439.482 420.177 439.253C419.985 439.029 419.839 438.763 419.745 438.43C419.656 438.081 419.604 437.669 419.604 437.232C419.604 436.867 419.636 436.44 419.698 435.945C419.755 435.451 419.86 434.935 420.016 434.404C420.156 433.878 420.365 433.357 420.61 432.831C420.849 432.336 421.156 431.883 421.516 431.492C421.875 431.112 422.297 430.794 422.781 430.56C423.25 430.32 423.818 430.211 424.453 430.211C424.958 430.211 425.38 430.279 425.719 430.414C426.047 430.549 426.297 430.721 426.49 430.951C426.688 431.185 426.828 431.471 426.922 431.805C427.026 432.164 427.068 432.576 427.068 433.003C427.068 433.378 427.037 433.815 426.974 434.31C426.912 434.805 426.797 435.315 426.656 435.841C426.5 436.367 426.307 436.888 426.047 437.393C425.813 437.888 425.505 438.331 425.146 438.711C424.792 439.091 424.375 439.388 423.891 439.622C423.438 439.862 422.87 439.971 422.235 439.971Z" fill="white"/>
</g>
<mask id="mask16_1025_2941" style="mask-type:luminance" maskUnits="userSpaceOnUse" x="430" y="427" width="16" height="16">
<path d="M430.667 427H445.333V442.281H430.667V427Z" fill="white"/>
</mask>
<g mask="url(#mask16_1025_2941)">
<path d="M443.995 428.698C444.016 428.542 443.984 428.396 443.922 428.266C443.87 428.151 443.76 428.005 443.521 427.927C443.427 427.896 443.307 427.865 443.161 427.844C443.026 427.823 442.865 427.812 442.667 427.812C442.474 427.812 442.307 427.823 442.167 427.844C442.021 427.865 441.896 427.896 441.807 427.927C441.651 427.974 441.526 428.057 441.427 428.161C441.323 428.276 441.26 428.406 441.229 428.563L439.583 436.766C439.474 437.297 439.318 437.771 439.104 438.182C438.896 438.583 438.63 438.922 438.339 439.188C438.042 439.458 437.703 439.651 437.333 439.797C436.953 439.943 436.521 440 436.057 440C435.599 440 435.208 439.943 434.885 439.807C434.599 439.693 434.385 439.521 434.219 439.292C434.057 439.057 433.953 438.75 433.911 438.38C433.87 437.979 433.901 437.484 434.005 436.927L435.635 428.745C435.667 428.594 435.656 428.437 435.609 428.307C435.557 428.182 435.443 428.026 435.198 427.938C435.104 427.906 434.979 427.875 434.839 427.854C434.703 427.833 434.536 427.823 434.333 427.823C434.135 427.823 433.974 427.833 433.828 427.854C433.682 427.875 433.573 427.906 433.469 427.938C433.302 427.984 433.182 428.068 433.078 428.172C432.974 428.286 432.911 428.417 432.885 428.573L431.24 436.776C431.052 437.677 431.021 438.5 431.146 439.198C431.271 439.932 431.547 440.547 431.958 441.052C432.37 441.552 432.922 441.932 433.594 442.182C434.24 442.417 435 442.542 435.865 442.542C436.677 442.542 437.448 442.427 438.146 442.193C438.854 441.953 439.495 441.604 440.057 441.141C440.625 440.682 441.104 440.104 441.495 439.406C441.875 438.729 442.167 437.927 442.339 437.031L444.005 428.745L443.995 428.698Z" fill="white"/>
</g>
<mask id="mask17_1025_2941" style="mask-type:luminance" maskUnits="userSpaceOnUse" x="442" y="427" width="14" height="16">
<path d="M442.667 427H456V442.281H442.667V427Z" fill="white"/>
</mask>
<g mask="url(#mask17_1025_2941)">
<path d="M454.224 434.042C454.531 433.641 454.766 433.187 454.911 432.703C455.062 432.229 455.135 431.719 455.135 431.193C455.135 430.667 455.031 430.198 454.849 429.786C454.651 429.365 454.354 428.995 453.953 428.708C453.573 428.427 453.109 428.224 452.578 428.078C452.052 427.948 451.448 427.875 450.766 427.875H447.849C447.552 427.875 447.271 427.953 447.026 428.109C446.75 428.297 446.562 428.594 446.474 428.995L443.974 441.453C443.932 441.625 443.964 441.813 444.047 441.953C444.109 442.047 444.208 442.182 444.427 442.266C444.531 442.302 444.651 442.333 444.818 442.354C444.948 442.375 445.104 442.375 445.292 442.375C445.484 442.375 445.651 442.365 445.802 442.344C445.948 442.323 446.073 442.292 446.172 442.266C446.339 442.214 446.474 442.12 446.573 442.005C446.656 441.911 446.708 441.802 446.74 441.688L446.75 441.667L447.828 436.313H448.62C448.948 436.313 449.224 436.365 449.443 436.458C449.646 436.547 449.812 436.672 449.948 436.828C450.089 437 450.203 437.208 450.276 437.443C450.365 437.708 450.437 438.021 450.49 438.359L451.026 441.521C451.047 441.656 451.078 441.771 451.12 441.875C451.177 442.016 451.292 442.141 451.448 442.224C451.568 442.292 451.714 442.333 451.891 442.354C452.021 442.375 452.187 442.375 452.38 442.375C452.589 442.375 452.771 442.365 452.927 442.354C453.099 442.333 453.245 442.302 453.359 442.266C453.521 442.203 453.656 442.109 453.75 441.984C453.849 441.854 453.901 441.688 453.901 441.521C453.901 441.411 453.891 441.286 453.87 441.141C453.849 441.031 453.833 440.906 453.812 440.771L453.255 437.792C453.12 437.052 452.927 436.437 452.672 435.974C452.578 435.797 452.474 435.646 452.359 435.51C452.609 435.385 452.844 435.255 453.057 435.109C453.531 434.802 453.911 434.443 454.224 434.042ZM452.208 431.469C452.208 431.781 452.156 432.078 452.042 432.365C451.937 432.641 451.776 432.891 451.557 433.115C451.333 433.344 451.036 433.526 450.677 433.661C450.307 433.802 449.833 433.875 449.276 433.875H448.312L449.021 430.339H450.469C450.818 430.339 451.12 430.37 451.365 430.443C451.578 430.505 451.755 430.578 451.87 430.677C451.979 430.771 452.062 430.875 452.115 431.01C452.177 431.141 452.208 431.297 452.208 431.469Z" fill="white"/>
</g>
<mask id="mask18_1025_2941" style="mask-type:luminance" maskUnits="userSpaceOnUse" x="453" y="427" width="13" height="16">
<path d="M453.333 427H465.333V442.281H453.333V427Z" fill="white"/>
</mask>
<g mask="url(#mask18_1025_2941)">
<path d="M464.87 428.956C464.818 428.831 464.735 428.711 464.625 428.607C464.521 428.503 464.375 428.398 464.151 428.289C463.953 428.185 463.719 428.081 463.443 427.987C463.172 427.909 462.886 427.826 462.558 427.773C462.229 427.711 461.881 427.68 461.521 427.68C460.771 427.68 460.078 427.794 459.464 428.018C458.849 428.247 458.302 428.565 457.87 428.977C457.427 429.378 457.078 429.862 456.834 430.393C456.584 430.94 456.464 431.523 456.464 432.143C456.464 432.654 456.547 433.117 456.698 433.508C456.854 433.888 457.058 434.237 457.308 434.539C457.542 434.826 457.828 435.091 458.136 435.31C458.427 435.513 458.724 435.706 459.021 435.883C459.308 436.06 459.599 436.221 459.886 436.388C460.131 436.529 460.36 436.685 460.542 436.852C460.719 437.003 460.849 437.169 460.953 437.352C461.047 437.508 461.089 437.701 461.089 437.93C461.089 438.216 461.037 438.471 460.922 438.721C460.813 438.966 460.657 439.185 460.448 439.367C460.245 439.555 459.979 439.706 459.657 439.82C459.328 439.935 458.948 439.992 458.526 439.992C458.125 439.992 457.776 439.945 457.49 439.852C457.183 439.747 456.907 439.633 456.688 439.523C456.464 439.398 456.266 439.294 456.115 439.19C455.854 439.029 455.631 438.945 455.422 438.945C455.229 438.945 455.042 439.018 454.912 439.164C454.828 439.242 454.756 439.346 454.693 439.461C454.641 439.565 454.594 439.674 454.563 439.799C454.532 439.893 454.511 439.982 454.49 440.086C454.469 440.19 454.448 440.294 454.438 440.383C454.427 440.487 454.417 440.56 454.417 440.633C454.417 441.023 454.573 441.247 454.693 441.383C454.818 441.508 454.995 441.628 455.24 441.773C455.464 441.898 455.735 442.018 456.052 442.143C456.37 442.258 456.719 442.357 457.11 442.43C457.5 442.513 457.933 442.555 458.386 442.555C459.219 442.555 459.979 442.43 460.667 442.185C461.354 441.935 461.953 441.596 462.443 441.174C462.938 440.742 463.328 440.242 463.604 439.654C463.886 439.07 464.016 438.44 464.016 437.784C464.016 437.279 463.933 436.82 463.782 436.43C463.625 436.049 463.422 435.701 463.172 435.398C462.927 435.112 462.641 434.846 462.323 434.628C462.032 434.424 461.724 434.227 461.427 434.055C461.141 433.878 460.849 433.716 460.563 433.539C460.308 433.383 460.078 433.232 459.886 433.055C459.709 432.904 459.568 432.737 459.464 432.555C459.37 432.398 459.328 432.221 459.328 432.008C459.328 431.773 459.37 431.544 459.453 431.331C459.537 431.112 459.657 430.93 459.823 430.753C459.99 430.591 460.203 430.445 460.448 430.341C460.709 430.242 461.016 430.19 461.375 430.19C461.703 430.19 461.99 430.232 462.24 430.299C462.506 430.383 462.735 430.477 462.927 430.56C463.115 430.654 463.266 430.732 463.391 430.805C463.615 430.961 463.802 431.023 463.985 431.023C464.172 431.023 464.334 430.951 464.479 430.826C464.563 430.742 464.646 430.654 464.703 430.529C464.756 430.435 464.797 430.32 464.828 430.201C464.86 430.107 464.881 430.013 464.901 429.919C464.922 429.82 464.943 429.727 464.943 429.633C464.953 429.539 464.953 429.471 464.953 429.398C464.953 429.221 464.933 429.081 464.87 428.956Z" fill="white"/>
</g>
<mask id="mask19_1025_2941" style="mask-type:luminance" maskUnits="userSpaceOnUse" x="529" y="121" width="38" height="41">
<path d="M566.667 121.664H529.333V161.664H566.667V121.664Z" fill="white"/>
</mask>
<g mask="url(#mask19_1025_2941)">
<path d="M539.86 150.419C538.302 150.419 536.906 150.013 535.672 149.19C534.432 148.372 533.464 147.201 532.755 145.669C532.047 144.128 531.693 142.31 531.693 140.211C531.693 138.117 532.047 136.305 532.755 134.773C533.464 133.232 534.432 132.06 535.672 131.253C536.906 130.435 538.302 130.023 539.86 130.023C541.412 130.023 542.807 130.435 544.047 131.253C545.297 132.06 546.276 133.232 546.985 134.773C547.703 136.305 548.068 138.117 548.068 140.211C548.068 142.31 547.703 144.128 546.985 145.669C546.276 147.201 545.297 148.372 544.047 149.19C542.807 150.013 541.412 150.419 539.86 150.419ZM539.86 146.107C540.886 146.107 541.724 145.596 542.38 144.565C543.047 143.539 543.38 142.086 543.38 140.211C543.38 138.336 543.047 136.888 542.38 135.857C541.724 134.831 540.886 134.315 539.86 134.315C538.828 134.315 537.99 134.831 537.339 135.857C536.698 136.888 536.38 138.336 536.38 140.211C536.38 142.086 536.698 143.539 537.339 144.565C537.99 145.596 538.828 146.107 539.86 146.107Z" fill="white"/>
<path d="M557.516 145.711H564.787V150.044H550.1V147.044L557.558 139.503C558.318 138.727 558.839 138.096 559.12 137.607C559.396 137.122 559.537 136.622 559.537 136.107C559.537 135.539 559.329 135.076 558.912 134.711C558.495 134.336 557.943 134.148 557.266 134.148C556.485 134.148 555.87 134.393 555.412 134.878C554.964 135.367 554.745 135.956 554.745 136.648H549.975C550.058 134.497 550.777 132.857 552.141 131.732C553.501 130.596 555.23 130.023 557.329 130.023C558.688 130.023 559.902 130.263 560.975 130.732C562.058 131.19 562.902 131.867 563.516 132.753C564.126 133.628 564.433 134.68 564.433 135.898C564.433 136.997 564.188 138.003 563.704 138.919C563.23 139.826 562.454 140.815 561.37 141.898L557.516 145.711Z" fill="white"/>
</g>
<mask id="mask20_1025_2941" style="mask-type:luminance" maskUnits="userSpaceOnUse" x="37" y="121" width="34" height="41">
<path d="M70.6668 121.664H37.3335V161.664H70.6668V121.664Z" fill="white"/>
</mask>
<g mask="url(#mask20_1025_2941)">
<path d="M48.5739 150.419C47.0166 150.419 45.6208 150.013 44.3864 149.19C43.1468 148.372 42.1781 147.201 41.4697 145.669C40.7614 144.128 40.4072 142.31 40.4072 140.211C40.4072 138.117 40.7614 136.305 41.4697 134.773C42.1781 133.232 43.1468 132.06 44.3864 131.253C45.6208 130.435 47.0166 130.023 48.5739 130.023C50.126 130.023 51.5218 130.435 52.7614 131.253C54.0114 132.06 54.9906 133.232 55.6989 134.773C56.4176 136.305 56.7822 138.117 56.7822 140.211C56.7822 142.31 56.4176 144.128 55.6989 145.669C54.9906 147.201 54.0114 148.372 52.7614 149.19C51.5218 150.013 50.126 150.419 48.5739 150.419ZM48.5739 146.107C49.5999 146.107 50.4385 145.596 51.0947 144.565C51.7614 143.539 52.0947 142.086 52.0947 140.211C52.0947 138.336 51.7614 136.888 51.0947 135.857C50.4385 134.831 49.5999 134.315 48.5739 134.315C47.5426 134.315 46.7041 134.831 46.0531 135.857C45.4124 136.888 45.0947 138.336 45.0947 140.211C45.0947 142.086 45.4124 143.539 46.0531 144.565C46.7041 145.596 47.5426 146.107 48.5739 146.107Z" fill="white"/>
<path d="M57.8354 132.708L63.0021 130.375H67.2104V150.042H62.3146V135.125L57.8354 137.146V132.708Z" fill="white"/>
</g>
<mask id="mask21_1025_2941" style="mask-type:luminance" maskUnits="userSpaceOnUse" x="529" y="371" width="39" height="42">
<path d="M568 371H529.333V412.333H568V371Z" fill="white"/>
</mask>
<g mask="url(#mask21_1025_2941)">
<path d="M539.841 400.833C538.284 400.833 536.888 400.427 535.653 399.604C534.414 398.786 533.445 397.615 532.737 396.083C532.028 394.542 531.674 392.724 531.674 390.625C531.674 388.531 532.028 386.719 532.737 385.188C533.445 383.646 534.414 382.474 535.653 381.667C536.888 380.849 538.284 380.438 539.841 380.438C541.393 380.438 542.789 380.849 544.028 381.667C545.278 382.474 546.258 383.646 546.966 385.188C547.685 386.719 548.049 388.531 548.049 390.625C548.049 392.724 547.685 394.542 546.966 396.083C546.258 397.615 545.278 398.786 544.028 399.604C542.789 400.427 541.393 400.833 539.841 400.833ZM539.841 396.521C540.867 396.521 541.706 396.01 542.362 394.979C543.028 393.953 543.362 392.5 543.362 390.625C543.362 388.75 543.028 387.302 542.362 386.271C541.706 385.245 540.867 384.729 539.841 384.729C538.81 384.729 537.971 385.245 537.32 386.271C536.68 387.302 536.362 388.75 536.362 390.625C536.362 392.5 536.68 393.953 537.32 394.979C537.971 396.01 538.81 396.521 539.841 396.521Z" fill="white"/>
<path d="M562.582 392.789H565.373V396.685H562.582V400.456H558.103V396.685H548.978V393.602L558.54 380.789H562.582V392.789ZM558.144 387.518L554.248 392.789H558.144V387.518Z" fill="white"/>
</g>
<mask id="mask22_1025_2941" style="mask-type:luminance" maskUnits="userSpaceOnUse" x="36" y="371" width="39" height="42">
<path d="M74.6667 371H36V412.333H74.6667V371Z" fill="white"/>
</mask>
<g mask="url(#mask22_1025_2941)">
<path d="M45.8669 400.833C44.3096 400.833 42.9137 400.427 41.6794 399.604C40.4398 398.786 39.471 397.615 38.7627 396.083C38.0544 394.542 37.7002 392.724 37.7002 390.625C37.7002 388.531 38.0544 386.719 38.7627 385.188C39.471 383.646 40.4398 382.474 41.6794 381.667C42.9137 380.849 44.3096 380.438 45.8669 380.438C47.4189 380.438 48.8148 380.849 50.0544 381.667C51.3044 382.474 52.2835 383.646 52.9919 385.188C53.7106 386.719 54.0752 388.531 54.0752 390.625C54.0752 392.724 53.7106 394.542 52.9919 396.083C52.2835 397.615 51.3044 398.786 50.0544 399.604C48.8148 400.427 47.4189 400.833 45.8669 400.833ZM45.8669 396.521C46.8929 396.521 47.7314 396.01 48.3877 394.979C49.0544 393.953 49.3877 392.5 49.3877 390.625C49.3877 388.75 49.0544 387.302 48.3877 386.271C47.7314 385.245 46.8929 384.729 45.8669 384.729C44.8356 384.729 43.9971 385.245 43.346 386.271C42.7054 387.302 42.3877 388.75 42.3877 390.625C42.3877 392.5 42.7054 393.953 43.346 394.979C43.9971 396.01 44.8356 396.521 45.8669 396.521Z" fill="white"/>
<path d="M68.1278 390.208C69.1382 390.625 69.9194 391.229 70.4611 392.021C71.0028 392.802 71.2736 393.724 71.2736 394.792C71.2736 395.932 70.9819 396.958 70.3986 397.875C69.8257 398.792 68.9819 399.516 67.8569 400.042C66.7319 400.568 65.3882 400.833 63.8361 400.833C62.3882 400.833 61.0913 400.573 59.9403 400.063C58.7996 399.536 57.8882 398.766 57.2111 397.75C56.5444 396.724 56.1746 395.495 56.1069 394.063H61.0028C61.0444 394.938 61.3049 395.625 61.7944 396.125C62.2944 396.615 62.9715 396.854 63.8361 396.854C64.5444 396.854 65.1486 396.646 65.6486 396.229C66.1486 395.813 66.3986 395.26 66.3986 394.563C66.3986 393.854 66.1382 393.292 65.6278 392.875C65.1121 392.458 64.4871 392.25 63.7528 392.25H61.8361V388.521H63.5861C64.2371 388.521 64.7788 388.333 65.2111 387.958C65.6382 387.583 65.8569 387.078 65.8569 386.438C65.8569 385.844 65.6486 385.354 65.2319 384.979C64.8257 384.594 64.3049 384.396 63.6694 384.396C62.8621 384.396 62.2632 384.625 61.8778 385.083C61.4871 385.542 61.2788 386.115 61.2528 386.792H56.4819C56.4923 385.406 56.8465 384.229 57.5444 383.271C58.2371 382.313 59.1278 381.604 60.2111 381.146C61.2944 380.677 62.4507 380.438 63.6903 380.438C65.0496 380.438 66.258 380.682 67.3153 381.167C68.383 381.641 69.2163 382.307 69.8153 383.167C70.409 384.031 70.7111 385.021 70.7111 386.146C70.7111 387.078 70.4715 387.885 70.0028 388.563C69.5444 389.245 68.9194 389.792 68.1278 390.208Z" fill="white"/>
</g>
</svg>
