<svg width="334" height="78" viewBox="0 0 334 78" fill="none" xmlns="http://www.w3.org/2000/svg">
<mask id="mask0_1374_2785" style="mask-type:luminance" maskUnits="userSpaceOnUse" x="0" y="0" width="334" height="78">
<path d="M333.333 0H0V77.3333H333.333V0Z" fill="white"/>
</mask>
<g mask="url(#mask0_1374_2785)">
<path d="M32.8138 18.7812V25.3646H21.3555V58.4271H13.543V25.3646H2.10547V18.7812H32.8138Z" fill="#5B00B2"/>
<path d="M59.6016 45.1536H40.3724C40.5911 47.7682 41.3359 49.6641 42.6016 50.8411C43.862 52.0234 45.5859 52.612 47.7682 52.612C49.487 52.612 50.8828 52.2943 51.9557 51.6536C53.0234 51.0182 53.8776 50.0443 54.5182 48.737H55.1016L60.0807 51.9453C59.1068 54.0443 57.6328 55.7474 55.6641 57.0495C53.6901 58.3411 51.0599 58.987 47.7682 58.987C44.6849 58.987 42.0182 58.4036 39.7682 57.237C37.5182 56.0599 35.7786 54.3099 34.5599 51.987C33.3359 49.6693 32.7266 46.8359 32.7266 43.487C32.7266 40.0859 33.362 37.2161 34.6432 34.8828C35.9349 32.5495 37.6693 30.8151 39.8516 29.6745C42.0443 28.5234 44.5026 27.9453 47.2266 27.9453C51.4609 27.9453 54.7057 29.0703 56.9557 31.3203C59.2057 33.5599 60.3307 36.8411 60.3307 41.1745C60.3307 42.7474 60.2734 43.9661 60.1641 44.8411L59.6016 45.1536ZM53.1432 40.2995C53.0703 38.0234 52.5443 36.3724 51.5599 35.3411C50.5703 34.2995 49.1276 33.7786 47.2266 33.7786C43.4349 33.7786 41.2057 35.9557 40.5391 40.2995H53.1432Z" fill="#5B00B2"/>
<path d="M66.8672 58.4245V28.5078H74.0755V32.9036L74.6589 33.0495C76.5182 29.6484 79.5339 27.9453 83.7005 27.9453C87.1589 27.9453 89.6901 28.8932 91.3047 30.7786C92.9297 32.6536 93.7422 35.3932 93.7422 38.987V58.4245H86.2214V39.9036C86.2214 37.9193 85.8255 36.487 85.0339 35.612C84.2422 34.7266 82.9714 34.2786 81.2214 34.2786C79.0651 34.2786 77.388 34.9818 76.1797 36.3828C74.9818 37.7734 74.388 39.9609 74.388 42.9453V58.4245H66.8672Z" fill="#5B00B2"/>
<path d="M111.587 58.987C109.546 58.987 107.671 58.7474 105.962 58.2786C104.264 57.7943 102.816 57.1328 101.608 56.2995C100.41 55.4557 99.5247 54.487 98.9414 53.4036L103.129 48.9036H103.691C104.676 50.237 105.848 51.2474 107.212 51.9245C108.572 52.5911 110.046 52.9245 111.629 52.9245C113.098 52.9245 114.202 52.6641 114.941 52.1328C115.676 51.6068 116.046 50.8568 116.046 49.8828C116.046 49.1224 115.78 48.4818 115.254 47.9661C114.723 47.4557 113.863 47.0495 112.671 46.7578L108.712 45.8203C105.738 45.112 103.572 44.0286 102.212 42.5703C100.848 41.112 100.171 39.2682 100.171 37.0286C100.171 35.1693 100.639 33.5495 101.587 32.1745C102.53 30.7995 103.863 29.7526 105.587 29.0286C107.322 28.3099 109.337 27.9453 111.629 27.9453C114.322 27.9453 116.551 28.3359 118.316 29.112C120.092 29.8932 121.483 30.9349 122.483 32.237L118.462 36.5703H117.921C117.087 35.6276 116.15 34.9401 115.108 34.5078C114.077 34.0807 112.921 33.862 111.629 33.862C108.671 33.862 107.191 34.7786 107.191 36.612C107.191 37.3932 107.462 38.0286 108.004 38.5286C108.556 39.0182 109.53 39.4141 110.921 39.7161L114.629 40.5286C117.655 41.1849 119.868 42.2318 121.275 43.6745C122.676 45.1068 123.379 47.0286 123.379 49.4453C123.379 51.3516 122.905 53.0234 121.962 54.4661C121.03 55.9141 119.676 57.0286 117.9 57.8203C116.118 58.5964 114.014 58.987 111.587 58.987Z" fill="#5B00B2"/>
<path d="M142.543 58.987C139.626 58.987 137.053 58.3932 134.835 57.1953C132.626 55.987 130.908 54.2266 129.689 51.9036C128.465 49.5859 127.855 46.7786 127.855 43.487C127.855 40.1953 128.465 37.3828 129.689 35.0495C130.908 32.7161 132.626 30.9557 134.835 29.7578C137.053 28.5495 139.626 27.9453 142.543 27.9453C145.47 27.9453 148.043 28.5495 150.251 29.7578C152.47 30.9557 154.194 32.7161 155.418 35.0495C156.652 37.3828 157.272 40.1953 157.272 43.487C157.272 46.7786 156.652 49.5859 155.418 51.9036C154.194 54.2266 152.47 55.987 150.251 57.1953C148.043 58.3932 145.47 58.987 142.543 58.987ZM142.543 52.612C147.194 52.612 149.522 49.5703 149.522 43.487C149.522 40.3203 148.923 38.0026 147.73 36.5286C146.533 35.0599 144.803 34.3203 142.543 34.3203C137.902 34.3203 135.585 37.3776 135.585 43.487C135.585 49.5703 137.902 52.612 142.543 52.612Z" fill="#5B00B2"/>
<path d="M164.246 58.4219V28.5052H171.538V32.9635L172.1 33.0677C172.835 31.401 173.788 30.1823 174.954 29.401C176.132 28.625 177.564 28.2344 179.246 28.2344C180.939 28.2344 182.23 28.526 183.121 29.1094L181.85 35.5885L181.267 35.6927C180.777 35.5 180.309 35.3594 179.85 35.276C179.402 35.1823 178.855 35.1302 178.204 35.1302C176.105 35.1302 174.507 35.8698 173.413 37.3385C172.314 38.8125 171.767 41.1719 171.767 44.4219V58.4219H164.246Z" fill="#5B00B2"/>
<path d="M205.053 58.987C201.397 58.987 198.178 58.2318 195.387 56.7161C192.605 55.2057 190.434 52.9245 188.866 49.8828C187.293 46.8307 186.512 43.0651 186.512 38.5911C186.512 34.1328 187.293 30.3828 188.866 27.3411C190.434 24.2891 192.605 22.0026 195.387 20.487C198.178 18.9609 201.397 18.1953 205.053 18.1953C208.871 18.1953 212.116 18.9453 214.783 20.4453C217.449 21.9349 219.35 24.2057 220.491 27.2578L214.762 30.7578L214.095 30.737C213.23 28.6849 212.074 27.2109 210.616 26.3203C209.168 25.4193 207.314 24.9661 205.053 24.9661C201.762 24.9661 199.189 26.0599 197.345 28.237C195.512 30.4036 194.595 33.8568 194.595 38.5911C194.595 43.3151 195.512 46.7682 197.345 48.9453C199.189 51.1276 201.762 52.2161 205.053 52.2161C210.204 52.2161 213.355 49.7109 214.512 44.6953H215.199L220.97 47.7161C219.887 51.4818 218.033 54.2995 215.408 56.1745C212.793 58.0495 209.345 58.987 205.053 58.987Z" fill="#454734"/>
<path d="M226.586 58.4219V28.5052H233.878V32.9635L234.44 33.0677C235.174 31.401 236.128 30.1823 237.294 29.401C238.471 28.625 239.904 28.2344 241.586 28.2344C243.279 28.2344 244.57 28.526 245.461 29.1094L244.19 35.5885L243.607 35.6927C243.117 35.5 242.648 35.3594 242.19 35.276C241.742 35.1823 241.195 35.1302 240.544 35.1302C238.445 35.1302 236.846 35.8698 235.753 37.3385C234.654 38.8125 234.107 41.1719 234.107 44.4219V58.4219H226.586Z" fill="#454734"/>
<path d="M274.508 45.1536H255.279C255.497 47.7682 256.242 49.6641 257.508 50.8411C258.768 52.0234 260.492 52.612 262.674 52.612C264.393 52.612 265.789 52.2943 266.862 51.6536C267.93 51.0182 268.784 50.0443 269.424 48.737H270.008L274.987 51.9453C274.013 54.0443 272.539 55.7474 270.57 57.0495C268.596 58.3411 265.966 58.987 262.674 58.987C259.591 58.987 256.924 58.4036 254.674 57.237C252.424 56.0599 250.685 54.3099 249.466 51.987C248.242 49.6693 247.633 46.8359 247.633 43.487C247.633 40.0859 248.268 37.2161 249.549 34.8828C250.841 32.5495 252.576 30.8151 254.758 29.6745C256.951 28.5234 259.409 27.9453 262.133 27.9453C266.367 27.9453 269.612 29.0703 271.862 31.3203C274.112 33.5599 275.237 36.8411 275.237 41.1745C275.237 42.7474 275.18 43.9661 275.07 44.8411L274.508 45.1536ZM268.049 40.2995C267.977 38.0234 267.451 36.3724 266.466 35.3411C265.477 34.2995 264.034 33.7786 262.133 33.7786C258.341 33.7786 256.112 35.9557 255.445 40.2995H268.049Z" fill="#454734"/>
<path d="M291.458 58.987C289.417 58.987 287.542 58.7474 285.833 58.2786C284.135 57.7943 282.688 57.1328 281.479 56.2995C280.281 55.4557 279.396 54.487 278.812 53.4036L283 48.9036H283.563C284.547 50.237 285.719 51.2474 287.083 51.9245C288.443 52.5911 289.917 52.9245 291.5 52.9245C292.969 52.9245 294.073 52.6641 294.813 52.1328C295.547 51.6068 295.917 50.8568 295.917 49.8828C295.917 49.1224 295.651 48.4818 295.125 47.9661C294.594 47.4557 293.734 47.0495 292.542 46.7578L288.583 45.8203C285.609 45.112 283.443 44.0286 282.083 42.5703C280.719 41.112 280.042 39.2682 280.042 37.0286C280.042 35.1693 280.51 33.5495 281.458 32.1745C282.401 30.7995 283.734 29.7526 285.458 29.0286C287.193 28.3099 289.208 27.9453 291.5 27.9453C294.193 27.9453 296.422 28.3359 298.188 29.112C299.964 29.8932 301.354 30.9349 302.354 32.237L298.333 36.5703H297.792C296.958 35.6276 296.021 34.9401 294.979 34.5078C293.948 34.0807 292.792 33.862 291.5 33.862C288.542 33.862 287.063 34.7786 287.063 36.612C287.063 37.3932 287.333 38.0286 287.875 38.5286C288.427 39.0182 289.401 39.4141 290.792 39.7161L294.5 40.5286C297.526 41.1849 299.74 42.2318 301.146 43.6745C302.547 45.1068 303.25 47.0286 303.25 49.4453C303.25 51.3516 302.776 53.0234 301.833 54.4661C300.901 55.9141 299.547 57.0286 297.771 57.8203C295.99 58.5964 293.885 58.987 291.458 58.987Z" fill="#454734"/>
<path d="M325.684 51.2969L327.621 56.8385C326.814 57.5208 325.793 58.0469 324.559 58.4219C323.335 58.7969 321.944 58.9844 320.392 58.9844C317.152 58.9844 314.694 58.1042 313.017 56.3385C311.335 54.5781 310.496 52.0156 310.496 48.651V34.4427H305.934V28.4844H310.496V22.651L317.996 21.4219V28.4844H326.496V34.4427H317.996V48.1094C317.996 49.599 318.298 50.6823 318.913 51.3594C319.538 52.0417 320.434 52.3802 321.6 52.3802C322.944 52.3802 324.111 52.0208 325.1 51.2969H325.684Z" fill="#454734"/>
</g>
</svg>
