<svg width="224" height="25" viewBox="0 0 224 25" fill="none" xmlns="http://www.w3.org/2000/svg">
<path d="M0 24.1667V1.3125H9.16667C11.526 1.3125 13.3021 1.86458 14.5 2.95833C15.7083 4.04167 16.3125 5.54167 16.3125 7.45833C16.3125 8.84896 15.9583 9.98958 15.25 10.875C14.5521 11.75 13.5104 12.4271 12.125 12.8958V13.2292C12.8333 13.5365 13.4062 14 13.8542 14.625C14.2969 15.2396 14.7188 16.1458 15.125 17.3542L17.3958 24.1667H12.75L10.5208 17.3333C10.2969 16.6563 10.0417 16.125 9.75 15.75C9.45833 15.3646 9.08854 15.0833 8.64583 14.9167C8.21354 14.7396 7.64583 14.6458 6.9375 14.6458H4.5V24.1667H0ZM8.625 11.0625C10.8021 11.0625 11.8958 10.0417 11.8958 8C11.8958 5.93229 10.8021 4.89583 8.625 4.89583H4.5V11.0625H8.625Z" fill="#5E17EB"/>
<path d="M34.9688 16.5182H23.8854C24.0104 18.0182 24.4323 19.112 25.1562 19.7891C25.8906 20.4714 26.8906 20.8099 28.1562 20.8099C29.1406 20.8099 29.9375 20.6328 30.5521 20.2682C31.1615 19.8932 31.6562 19.3307 32.0312 18.5807H32.3646L35.2396 20.4349C34.6823 21.6432 33.8333 22.6224 32.6979 23.3724C31.5573 24.1224 30.0417 24.4974 28.1562 24.4974C26.3646 24.4974 24.8229 24.1589 23.5312 23.4766C22.2396 22.7995 21.2396 21.7891 20.5312 20.4557C19.8229 19.112 19.4688 17.4766 19.4688 15.5599C19.4688 13.6016 19.8333 11.9505 20.5729 10.6016C21.3229 9.25781 22.3229 8.25781 23.5729 7.60156C24.8333 6.9349 26.2604 6.60156 27.8438 6.60156C30.2708 6.60156 32.1354 7.2474 33.4271 8.53906C34.7292 9.83073 35.3854 11.7266 35.3854 14.2266C35.3854 15.1328 35.349 15.8307 35.2812 16.3307L34.9688 16.5182ZM31.2396 13.7266C31.1979 12.4089 30.8906 11.4505 30.3229 10.8516C29.75 10.2578 28.9271 9.95573 27.8438 9.95573C25.6458 9.95573 24.3542 11.2161 23.9688 13.7266H31.2396Z" fill="#5E17EB"/>
<path d="M44.724 24.4974C43.5417 24.4974 42.4583 24.3568 41.474 24.0807C40.5 23.8047 39.6667 23.4245 38.974 22.9349C38.2917 22.4505 37.7865 21.8932 37.4531 21.2682L39.849 18.6849H40.1823C40.75 19.4505 41.4219 20.0286 42.2031 20.4141C42.9948 20.8047 43.849 20.9974 44.7656 20.9974C45.599 20.9974 46.2292 20.8464 46.6615 20.5391C47.0885 20.237 47.3073 19.8047 47.3073 19.2474C47.3073 18.8047 47.151 18.4349 46.849 18.1432C46.5417 17.8411 46.0417 17.6016 45.349 17.4349L43.0781 16.8932C41.3698 16.4922 40.1198 15.8724 39.3281 15.0391C38.5365 14.1953 38.1406 13.1224 38.1406 11.8307C38.1406 10.763 38.4115 9.83073 38.9531 9.03906C39.5052 8.2474 40.276 7.64323 41.2656 7.22656C42.2656 6.8099 43.4323 6.60156 44.7656 6.60156C46.3073 6.60156 47.5833 6.82552 48.599 7.26823C49.625 7.71615 50.4323 8.3099 51.0156 9.0599L48.7031 11.5599H48.3906C47.901 11.0182 47.3594 10.6224 46.7656 10.3724C46.1667 10.1224 45.5 9.9974 44.7656 9.9974C43.0573 9.9974 42.2031 10.5339 42.2031 11.6016C42.2031 12.0495 42.3542 12.4141 42.6615 12.7057C42.9792 12.987 43.5417 13.2057 44.349 13.3724L46.474 13.8516C48.224 14.2266 49.5 14.8307 50.3073 15.6641C51.1094 16.487 51.5156 17.5964 51.5156 18.9974C51.5156 20.0807 51.2448 21.0391 50.7031 21.8724C50.1615 22.7057 49.375 23.3516 48.349 23.8099C47.3333 24.2682 46.125 24.4974 44.724 24.4974Z" fill="#5E17EB"/>
<path d="M69.5938 16.5182H58.5104C58.6354 18.0182 59.0573 19.112 59.7812 19.7891C60.5156 20.4714 61.5156 20.8099 62.7812 20.8099C63.7656 20.8099 64.5625 20.6328 65.1771 20.2682C65.7865 19.8932 66.2812 19.3307 66.6562 18.5807H66.9896L69.8646 20.4349C69.3073 21.6432 68.4583 22.6224 67.3229 23.3724C66.1823 24.1224 64.6667 24.4974 62.7812 24.4974C60.9896 24.4974 59.4479 24.1589 58.1562 23.4766C56.8646 22.7995 55.8646 21.7891 55.1562 20.4557C54.4479 19.112 54.0938 17.4766 54.0938 15.5599C54.0938 13.6016 54.4583 11.9505 55.1979 10.6016C55.9479 9.25781 56.9479 8.25781 58.1979 7.60156C59.4583 6.9349 60.8854 6.60156 62.4688 6.60156C64.8958 6.60156 66.7604 7.2474 68.0521 8.53906C69.3542 9.83073 70.0104 11.7266 70.0104 14.2266C70.0104 15.1328 69.974 15.8307 69.9062 16.3307L69.5938 16.5182ZM65.8646 13.7266C65.8229 12.4089 65.5156 11.4505 64.9479 10.8516C64.375 10.2578 63.5521 9.95573 62.4688 9.95573C60.2708 9.95573 58.9792 11.2161 58.5938 13.7266H65.8646Z" fill="#5E17EB"/>
<path d="M78.0153 24.4974C76.9007 24.4974 75.9372 24.2943 75.1195 23.8932C74.3122 23.4766 73.6872 22.8828 73.2445 22.1016C72.8122 21.3099 72.5986 20.362 72.5986 19.2474C72.5986 18.237 72.8122 17.3828 73.2445 16.6849C73.6872 15.9922 74.3695 15.4245 75.2861 14.9766C76.2028 14.5339 77.4007 14.1953 78.8903 13.9557C79.9163 13.7891 80.6924 13.612 81.2236 13.4141C81.7653 13.2214 82.1247 12.9974 82.307 12.7474C82.4997 12.4974 82.5986 12.1797 82.5986 11.7891C82.5986 11.237 82.4007 10.8099 82.0153 10.5182C81.6403 10.2266 80.9997 10.0807 80.0986 10.0807C79.1403 10.0807 78.2288 10.2995 77.3695 10.7266C76.5049 11.1589 75.7549 11.7214 75.1195 12.4141H74.807L72.9945 9.6849C73.8695 8.71615 74.932 7.95573 76.182 7.41406C77.4424 6.8724 78.8278 6.60156 80.3278 6.60156C82.6038 6.60156 84.2497 7.09115 85.2653 8.0599C86.2913 9.01823 86.807 10.3932 86.807 12.1849V19.6641C86.807 20.4297 87.1455 20.8099 87.8278 20.8099C88.0778 20.8099 88.3278 20.7682 88.5778 20.6849L88.807 20.7474L89.1195 23.7474C88.8799 23.9141 88.5465 24.0495 88.1195 24.1432C87.6872 24.237 87.2132 24.2891 86.7028 24.2891C85.6715 24.2891 84.8695 24.0964 84.2861 23.7057C83.7132 23.3047 83.307 22.6797 83.057 21.8307L82.7236 21.8099C81.8747 23.6016 80.307 24.4974 78.0153 24.4974ZM79.3903 21.2474C80.3903 21.2474 81.1872 20.9141 81.7861 20.2474C82.3799 19.5807 82.682 18.6432 82.682 17.4349V15.6849L82.3903 15.6224C82.1247 15.8307 81.7757 16.013 81.3486 16.1641C80.932 16.3047 80.3278 16.4349 79.5361 16.5599C78.6038 16.7266 77.932 16.9974 77.5153 17.3724C77.0986 17.7474 76.8903 18.2891 76.8903 18.9974C76.8903 19.737 77.1038 20.2995 77.5361 20.6849C77.9788 21.0599 78.5986 21.2474 79.3903 21.2474Z" fill="#5E17EB"/>
<path d="M91.9375 24.1654V6.9362H96.1458V9.4987L96.4792 9.5612C96.8958 8.60286 97.4375 7.90495 98.1042 7.45703C98.7813 6.9987 99.6094 6.76953 100.583 6.76953C101.568 6.76953 102.312 6.9362 102.812 7.26953L102.083 10.9987L101.75 11.0612C101.469 10.9518 101.198 10.8737 100.938 10.832C100.688 10.7799 100.375 10.7487 100 10.7487C98.7917 10.7487 97.8646 11.1758 97.2292 12.0195C96.5885 12.8685 96.2708 14.2279 96.2708 16.1029V24.1654H91.9375Z" fill="#5E17EB"/>
<path d="M112.562 24.5013C110.896 24.5013 109.422 24.1576 108.146 23.4596C106.865 22.7669 105.865 21.7461 105.146 20.3971C104.422 19.0534 104.062 17.4388 104.062 15.5638C104.062 13.6628 104.422 12.043 105.146 10.7096C105.865 9.36589 106.859 8.34505 108.125 7.64714C109.401 6.95443 110.859 6.60547 112.5 6.60547C116.125 6.60547 118.448 7.92838 119.479 10.5638L116.5 12.6888H116.188C115.823 11.8711 115.359 11.2669 114.792 10.8763C114.219 10.4753 113.458 10.2721 112.5 10.2721C111.25 10.2721 110.271 10.7096 109.562 11.5846C108.865 12.4492 108.521 13.7721 108.521 15.5638C108.521 17.3294 108.875 18.6471 109.583 19.5221C110.292 20.3867 111.281 20.8138 112.562 20.8138C113.505 20.8138 114.302 20.5638 114.958 20.0638C115.609 19.5638 116.073 18.8346 116.354 17.8763L116.688 17.8555L119.75 19.543C119.318 21.0013 118.51 22.1992 117.333 23.1263C116.151 24.043 114.562 24.5013 112.562 24.5013Z" fill="#5E17EB"/>
<path d="M122.766 24.1667V0H127.099V9.1875L127.432 9.25C128 8.40625 128.703 7.75 129.536 7.29167C130.37 6.83333 131.375 6.60417 132.557 6.60417C136.359 6.60417 138.266 8.76042 138.266 13.0625V24.1667H133.932V13.625C133.932 12.4479 133.693 11.5938 133.224 11.0625C132.75 10.5208 132.021 10.25 131.036 10.25C129.828 10.25 128.87 10.6615 128.161 11.4792C127.453 12.2865 127.099 13.5417 127.099 15.25V24.1667H122.766Z" fill="#5E17EB"/>
<path d="M152.953 24.5C150.854 24.5 149 24.0625 147.391 23.1875C145.792 22.3125 144.536 21 143.62 19.25C142.714 17.4896 142.266 15.3229 142.266 12.75C142.266 10.1667 142.714 8 143.62 6.25C144.536 4.5 145.792 3.1875 147.391 2.3125C149 1.4375 150.854 1 152.953 1C155.161 1 157.026 1.43229 158.557 2.29167C160.099 3.14063 161.193 4.44792 161.849 6.20833L158.557 8.22917L158.161 8.20833C157.672 7.03125 157.005 6.18229 156.161 5.66667C155.328 5.14063 154.255 4.875 152.953 4.875C151.062 4.875 149.583 5.51042 148.516 6.77083C147.458 8.02083 146.932 10.0156 146.932 12.75C146.932 15.4583 147.458 17.4479 148.516 18.7083C149.583 19.9583 151.062 20.5833 152.953 20.5833C155.922 20.5833 157.745 19.1406 158.411 16.25H158.807L162.141 18C161.516 20.1667 160.443 21.7917 158.932 22.875C157.417 23.9583 155.422 24.5 152.953 24.5Z" fill="#454734"/>
<path d="M165.359 24.1654V6.9362H169.568V9.4987L169.901 9.5612C170.318 8.60286 170.859 7.90495 171.526 7.45703C172.203 6.9987 173.031 6.76953 174.005 6.76953C174.99 6.76953 175.734 6.9362 176.234 7.26953L175.505 10.9987L175.172 11.0612C174.891 10.9518 174.62 10.8737 174.359 10.832C174.109 10.7799 173.797 10.7487 173.422 10.7487C172.214 10.7487 171.286 11.1758 170.651 12.0195C170.01 12.8685 169.693 14.2279 169.693 16.1029V24.1654H165.359Z" fill="#454734"/>
<path d="M192.984 16.5182H181.901C182.026 18.0182 182.448 19.112 183.172 19.7891C183.906 20.4714 184.906 20.8099 186.172 20.8099C187.156 20.8099 187.953 20.6328 188.568 20.2682C189.177 19.8932 189.672 19.3307 190.047 18.5807H190.38L193.255 20.4349C192.698 21.6432 191.849 22.6224 190.714 23.3724C189.573 24.1224 188.057 24.4974 186.172 24.4974C184.38 24.4974 182.839 24.1589 181.547 23.4766C180.255 22.7995 179.255 21.7891 178.547 20.4557C177.839 19.112 177.484 17.4766 177.484 15.5599C177.484 13.6016 177.849 11.9505 178.589 10.6016C179.339 9.25781 180.339 8.25781 181.589 7.60156C182.849 6.9349 184.276 6.60156 185.859 6.60156C188.286 6.60156 190.151 7.2474 191.443 8.53906C192.745 9.83073 193.401 11.7266 193.401 14.2266C193.401 15.1328 193.365 15.8307 193.297 16.3307L192.984 16.5182ZM189.255 13.7266C189.214 12.4089 188.906 11.4505 188.339 10.8516C187.766 10.2578 186.943 9.95573 185.859 9.95573C183.661 9.95573 182.37 11.2161 181.984 13.7266H189.255Z" fill="#454734"/>
<path d="M202.74 24.4974C201.557 24.4974 200.474 24.3568 199.49 24.0807C198.516 23.8047 197.682 23.4245 196.99 22.9349C196.307 22.4505 195.802 21.8932 195.469 21.2682L197.865 18.6849H198.198C198.766 19.4505 199.437 20.0286 200.219 20.4141C201.01 20.8047 201.865 20.9974 202.781 20.9974C203.615 20.9974 204.245 20.8464 204.677 20.5391C205.104 20.237 205.323 19.8047 205.323 19.2474C205.323 18.8047 205.167 18.4349 204.865 18.1432C204.557 17.8411 204.057 17.6016 203.365 17.4349L201.094 16.8932C199.385 16.4922 198.135 15.8724 197.344 15.0391C196.552 14.1953 196.156 13.1224 196.156 11.8307C196.156 10.763 196.427 9.83073 196.969 9.03906C197.521 8.2474 198.292 7.64323 199.281 7.22656C200.281 6.8099 201.448 6.60156 202.781 6.60156C204.323 6.60156 205.599 6.82552 206.615 7.26823C207.641 7.71615 208.448 8.3099 209.031 9.0599L206.719 11.5599H206.406C205.917 11.0182 205.375 10.6224 204.781 10.3724C204.182 10.1224 203.516 9.9974 202.781 9.9974C201.073 9.9974 200.219 10.5339 200.219 11.6016C200.219 12.0495 200.37 12.4141 200.677 12.7057C200.995 12.987 201.557 13.2057 202.365 13.3724L204.49 13.8516C206.24 14.2266 207.516 14.8307 208.323 15.6641C209.125 16.487 209.531 17.5964 209.531 18.9974C209.531 20.0807 209.26 21.0391 208.719 21.8724C208.177 22.7057 207.391 23.3516 206.365 23.8099C205.349 24.2682 204.141 24.4974 202.74 24.4974Z" fill="#454734"/>
<path d="M222.464 20.0599L223.589 23.2474C223.115 23.638 222.526 23.9453 221.818 24.1641C221.11 24.3828 220.308 24.4974 219.422 24.4974C217.547 24.4974 216.12 23.9922 215.151 22.9766C214.193 21.9505 213.714 20.4714 213.714 18.5391V10.3516H211.089V6.91406H213.714V3.5599L218.047 2.85156V6.91406H222.922V10.3516H218.047V18.2266C218.047 19.0755 218.219 19.7005 218.568 20.1016C218.927 20.4922 219.443 20.6849 220.11 20.6849C220.886 20.6849 221.558 20.4766 222.131 20.0599H222.464Z" fill="#454734"/>
</svg>
