<svg width="451" height="450" viewBox="0 0 451 450" fill="none" xmlns="http://www.w3.org/2000/svg">
<g clip-path="url(#clip0_1073_2749)">
<mask id="mask0_1073_2749" style="mask-type:luminance" maskUnits="userSpaceOnUse" x="0" y="0" width="451" height="450">
<path d="M0 0H450.667V450H0V0Z" fill="white"/>
</mask>
<g mask="url(#mask0_1073_2749)">
<path d="M350.224 427.68C350.224 431.872 346.713 435.388 342.521 435.388H22.3071C18.1144 435.388 14.5988 431.872 14.5988 427.68V21.8047C14.5988 17.612 18.1144 14.1016 22.3071 14.1016H342.521C346.713 14.1016 350.224 17.612 350.224 21.8047V219.81C278.62 300.565 270.911 308.31 270.193 310.388L246.312 373.607C245.594 376.404 246.312 379.237 248.427 381.315H249.146H46.8696C42.6769 381.315 39.88 384.112 39.88 388.341C39.88 392.576 42.6769 395.372 46.8696 395.372H281.417C285.651 395.372 288.443 392.576 288.443 388.341C288.443 384.148 285.651 381.315 281.417 381.315H257.536C258.255 380.633 315.12 351.841 314.401 352.518C315.12 351.841 315.838 351.122 316.521 350.445L349.547 313.221V427.68H350.224ZM280.015 325.164L299.667 344.091L266 360.945L280.015 325.164ZM311.609 335.669L287.047 311.826C296.87 301.284 369.198 219.133 395.156 190.336C400.786 204.357 410.609 211.383 419.036 214.18L311.609 335.669ZM431.698 200.164L428.901 202.956C423.271 202.279 410.609 198.763 404.979 178.398L407.812 175.602C421.87 159.43 445.713 184.029 431.698 200.164ZM397.271 166.456L364.286 203.68V21.8047C364.286 9.86719 354.422 0.0390625 342.521 0.0390625H22.3071C10.3696 0.0390625 0.541504 9.86719 0.541504 21.8047V427.68C0.541504 439.622 10.3696 449.445 22.3071 449.445H342.521C354.422 449.445 364.286 439.622 364.286 427.68V297.768L438.005 214.898L442.239 209.987C468.875 179.076 423.948 136.263 397.271 166.456Z" fill="white"/>
</g>
<path d="M46.8695 68.1745H124.823C129.057 68.1745 131.854 65.3359 131.854 61.1432C131.854 56.9089 129.057 54.1172 124.823 54.1172H46.8695C42.6768 54.1172 39.8799 56.9089 39.8799 61.1432C39.8799 65.3359 42.6768 68.1745 46.8695 68.1745Z" fill="white"/>
<path d="M46.8695 119.409H157.854C162.047 119.409 164.843 116.617 164.843 112.383C164.843 108.19 162.047 105.352 157.854 105.352H46.8695C42.6768 105.352 39.8799 108.19 39.8799 112.383C39.8799 115.898 42.6768 119.409 46.8695 119.409Z" fill="white"/>
<path d="M46.8695 175.604H317.916C322.151 175.604 324.948 172.771 324.948 168.578C324.948 164.344 322.151 161.547 317.916 161.547H46.8695C42.6768 161.547 39.8799 164.344 39.8799 168.578C39.8799 172.089 42.6768 175.604 46.8695 175.604Z" fill="white"/>
<path d="M46.8695 230.354H317.916C322.151 230.354 324.948 227.557 324.948 223.323C324.948 219.13 322.151 216.297 317.916 216.297H46.8695C42.6768 216.297 39.8799 219.13 39.8799 223.323C39.8799 226.839 42.6768 230.354 46.8695 230.354Z" fill="white"/>
<path d="M46.8695 285.109H274.385C278.619 285.109 281.416 282.312 281.416 278.12C281.416 273.885 278.619 271.094 274.385 271.094H46.8695C42.6768 271.094 39.8799 273.885 39.8799 278.12C39.8799 282.312 42.6768 285.109 46.8695 285.109Z" fill="white"/>
<path d="M46.8695 340.62H241.401C245.593 340.62 248.39 337.786 248.39 333.594C248.39 329.359 245.593 326.562 241.401 326.562H46.8695C42.6768 326.562 39.8799 329.359 39.8799 333.594C39.8799 337.109 42.6768 340.62 46.8695 340.62Z" fill="white"/>
</g>
<defs>
<clipPath id="clip0_1073_2749">
<rect width="451" height="450" fill="white"/>
</clipPath>
</defs>
</svg>
