<svg width="63" height="60" viewBox="0 0 63 60" fill="none" xmlns="http://www.w3.org/2000/svg">
<mask id="mask0_1229_2741" style="mask-type:luminance" maskUnits="userSpaceOnUse" x="0" y="0" width="63" height="46">
<path d="M0 0H63V45.0128H0V0Z" fill="white"/>
</mask>
<g mask="url(#mask0_1229_2741)">
<path d="M57.5728 44.9599H5.43375C5.07609 44.9599 4.72336 44.9213 4.37391 44.8458C4.02445 44.7703 3.68648 44.6597 3.35672 44.514C3.02859 44.3665 2.71523 44.1875 2.41992 43.975C2.12297 43.7644 1.84898 43.5221 1.59797 43.2535C1.34531 42.9831 1.12055 42.69 0.923671 42.3722C0.725155 42.0562 0.557811 41.7209 0.421639 41.368C0.285468 41.0169 0.182108 40.6535 0.111561 40.2796C0.0426548 39.9056 0.00656128 39.5282 0.00656128 39.1472V5.82831C0.00656128 5.44735 0.0426548 5.0699 0.111561 4.69597C0.182108 4.32203 0.285468 3.95863 0.421639 3.60752C0.557811 3.25465 0.725155 2.91933 0.923671 2.60333C1.12055 2.28557 1.34531 1.99239 1.59797 1.72204C1.84898 1.45343 2.12297 1.21117 2.41992 1.0005C2.71523 0.788074 3.02859 0.609007 3.35672 0.461539C3.68648 0.315827 4.02445 0.205226 4.37391 0.129737C4.72336 0.0542474 5.07609 0.015625 5.43375 0.015625H57.5728C57.9305 0.015625 58.2832 0.0542474 58.6327 0.129737C58.9821 0.205226 59.3201 0.315827 59.6498 0.461539C59.978 0.609007 60.2913 0.788074 60.5866 1.0005C60.8836 1.21117 61.1576 1.45343 61.4086 1.72204C61.6613 1.99239 61.886 2.28557 62.0845 2.60333C62.2814 2.91933 62.4487 3.25465 62.5849 3.60752C62.7211 3.95863 62.8245 4.32203 62.895 4.69597C62.9639 5.0699 63 5.44735 63 5.82831V39.1455C63 39.5264 62.9639 39.9039 62.895 40.2778C62.8245 40.6517 62.7227 41.0152 62.5849 41.368C62.4487 41.7191 62.2814 42.0544 62.0845 42.3722C61.886 42.6882 61.6613 42.9831 61.4102 43.2517C61.1576 43.5221 60.8836 43.7626 60.5883 43.975C60.2913 44.1875 59.9796 44.3665 59.6498 44.514C59.3201 44.6597 58.9821 44.7703 58.6327 44.8458C58.2832 44.9213 57.9305 44.9599 57.5728 44.9599ZM5.43375 2.28206C5.21555 2.28206 5.00062 2.30488 4.78734 2.35053C4.57242 2.39617 4.3657 2.46289 4.16555 2.55242C3.96375 2.64195 3.77344 2.7508 3.59133 2.88071C3.41086 3.01062 3.24351 3.15634 3.0893 3.32136C2.93672 3.48638 2.7989 3.66545 2.6775 3.85856C2.55609 4.05343 2.45437 4.25708 2.3707 4.47301C2.28703 4.68719 2.22469 4.90839 2.18203 5.13662C2.13937 5.36484 2.11805 5.59657 2.11805 5.82831V39.1455C2.11805 39.3772 2.13937 39.6072 2.18203 39.8354C2.22469 40.0636 2.28703 40.2848 2.3707 40.5008C2.45437 40.715 2.55609 40.9203 2.67586 41.1135C2.79726 41.3066 2.93344 41.4856 3.08766 41.6507C3.24187 41.8139 3.40758 41.9614 3.58805 42.0913C3.76851 42.2212 3.96047 42.3301 4.16062 42.4196C4.36078 42.5091 4.5675 42.5776 4.78078 42.6233C4.99406 42.6689 5.20898 42.6917 5.42719 42.6935H57.5728C57.791 42.6917 58.0059 42.6689 58.2192 42.6233C58.4325 42.5776 58.6392 42.5091 58.8394 42.4196C59.0395 42.3301 59.2315 42.2212 59.412 42.0913C59.5924 41.9614 59.7581 41.8139 59.9123 41.6507C60.0666 41.4856 60.2027 41.3066 60.3241 41.1135C60.4439 40.9203 60.5456 40.715 60.6293 40.5008C60.713 40.2848 60.7753 40.0636 60.818 39.8354C60.8606 39.6072 60.882 39.3772 60.882 39.1455V5.82831C60.882 5.59657 60.8606 5.36659 60.818 5.13837C60.7753 4.91015 60.713 4.68895 60.6293 4.47301C60.5456 4.25883 60.4439 4.05519 60.3241 3.86207C60.2027 3.66721 60.0666 3.48814 59.9123 3.32487C59.7581 3.15985 59.5924 3.01238 59.412 2.88247C59.2315 2.75431 59.0395 2.64371 58.8394 2.55418C58.6392 2.46464 58.4325 2.39793 58.2192 2.35229C58.0059 2.30489 57.791 2.28206 57.5728 2.28206H5.43375Z" fill="white"/>
</g>
<mask id="mask1_1229_2741" style="mask-type:luminance" maskUnits="userSpaceOnUse" x="14" y="42" width="35" height="18">
<path d="M14.4902 42.3125H48.5102V59.9946H14.4902V42.3125Z" fill="white"/>
</mask>
<g mask="url(#mask1_1229_2741)">
<path d="M43.0831 59.8823H19.9224C18.2325 59.8823 16.687 59.2345 15.6863 58.1074C15.3335 57.7282 15.0645 57.2911 14.8807 56.7925C14.6953 56.2939 14.6116 55.7778 14.6281 55.2424C14.7363 52.8355 17.1054 50.9535 20.0191 50.9535C23.4316 50.9535 26.2076 48.9065 26.2076 46.389V43.8294C26.2076 43.6784 26.2338 43.5345 26.288 43.3958C26.3421 43.2571 26.4176 43.1342 26.5177 43.0271C26.6161 42.9218 26.7309 42.8393 26.8606 42.7831C26.9902 42.7252 27.1263 42.6953 27.2658 42.6953H35.7363C35.8774 42.6953 36.012 42.7252 36.1416 42.7831C36.2712 42.8393 36.386 42.9218 36.4861 43.0271C36.5845 43.1342 36.6616 43.2571 36.7158 43.3958C36.7683 43.5345 36.7962 43.6784 36.7962 43.8294V46.389C36.7962 48.9083 39.5754 50.9553 42.983 50.9553C45.8951 50.9553 48.2674 52.839 48.3757 55.2441C48.3921 55.7796 48.3084 56.2957 48.1263 56.7925C47.9426 57.2911 47.6752 57.73 47.3224 58.1092C46.3233 59.2345 44.7745 59.8823 43.0831 59.8823ZM28.324 44.9618V46.389C28.324 48.2815 27.4151 50.0389 25.7695 51.3327C24.2208 52.5511 22.1782 53.2217 20.0191 53.2217C18.2981 53.2217 16.7953 54.1978 16.7412 55.353C16.7395 55.8234 16.8954 56.2202 17.212 56.5467C17.8076 57.2174 18.8215 57.6176 19.9174 57.6176H43.0781C44.1741 57.6176 45.1863 57.2174 45.7835 56.5467C46.1002 56.2202 46.256 55.8234 46.2544 55.353C46.2002 54.1978 44.7007 53.2217 42.9764 53.2217C40.8173 53.2217 38.7748 52.5511 37.226 51.3327C35.5788 50.0389 34.6716 48.2815 34.6716 46.389V44.9618H28.324Z" fill="white"/>
</g>
<path d="M37.9667 7H7.03325C6.89549 7 6.76413 6.97519 6.63757 6.92403C6.51102 6.87287 6.39888 6.80155 6.30277 6.70698C6.20505 6.61395 6.13136 6.50543 6.0785 6.38295C6.02563 6.26047 6 6.13178 6 6C6 5.86667 6.02563 5.73953 6.0785 5.61705C6.13136 5.49457 6.20505 5.38605 6.30277 5.29302C6.39888 5.19845 6.51102 5.12558 6.63757 5.07597C6.76413 5.02481 6.89549 5 7.03325 5H37.9667C38.1029 5 38.2359 5.02481 38.3624 5.07597C38.489 5.12558 38.6011 5.19845 38.6972 5.29302C38.795 5.38605 38.8686 5.49457 38.9215 5.61705C38.9744 5.73953 39 5.86667 39 6C39 6.13178 38.9744 6.26047 38.9215 6.38295C38.8686 6.50543 38.795 6.61395 38.6972 6.70698C38.6011 6.80155 38.489 6.87287 38.3624 6.92403C38.2359 6.97519 38.1029 7 37.9667 7Z" fill="white"/>
<path d="M37.9667 14H7.03325C6.89549 14 6.76413 13.9737 6.63757 13.9241C6.51102 13.873 6.39888 13.8002 6.30277 13.7072C6.20505 13.6127 6.13136 13.5043 6.0785 13.3819C6.02563 13.2595 6 13.1325 6 12.9992C6 12.8675 6.02563 12.739 6.0785 12.6166C6.13136 12.4942 6.20505 12.3873 6.30277 12.2928C6.39888 12.1998 6.51102 12.127 6.63757 12.0759C6.76413 12.0248 6.89549 12 7.03325 12H37.9667C38.1029 12 38.2359 12.0248 38.3624 12.0759C38.489 12.127 38.6011 12.1998 38.6972 12.2928C38.795 12.3873 38.8686 12.4942 38.9215 12.6166C38.9744 12.739 39 12.8675 39 12.9992C39 13.1325 38.9744 13.2595 38.9215 13.3819C38.8686 13.5043 38.795 13.6127 38.6972 13.7072C38.6011 13.8002 38.489 13.873 38.3624 13.9241C38.2359 13.9737 38.1029 14 37.9667 14Z" fill="white"/>
<path d="M27.9513 20H7.04871C6.90888 20 6.77556 19.9752 6.64711 19.924C6.51866 19.8729 6.40485 19.8016 6.3073 19.707C6.20812 19.614 6.13332 19.5054 6.07967 19.3829C6.02601 19.2605 6 19.1318 6 19C6 18.8667 6.02601 18.7395 6.07967 18.6171C6.13332 18.4946 6.20812 18.386 6.3073 18.293C6.40485 18.1984 6.51866 18.1256 6.64711 18.076C6.77556 18.0248 6.90888 18 7.04871 18H27.9513C28.0911 18 28.2244 18.0248 28.3529 18.076C28.4813 18.1256 28.5951 18.1984 28.6927 18.293C28.7919 18.386 28.8667 18.4946 28.9203 18.6171C28.974 18.7395 29 18.8667 29 19C29 19.1318 28.974 19.2605 28.9203 19.3829C28.8667 19.5054 28.7919 19.614 28.6927 19.707C28.5951 19.8016 28.4813 19.8729 28.3529 19.924C28.2244 19.9752 28.0911 20 27.9513 20Z" fill="white"/>
<path d="M27.9513 27H7.04871C6.90888 27 6.77556 26.9737 6.64711 26.9241C6.51866 26.873 6.40485 26.8002 6.3073 26.7072C6.20812 26.6127 6.13332 26.5043 6.07967 26.3819C6.02601 26.2595 6 26.1325 6 25.9992C6 25.8675 6.02601 25.739 6.07967 25.6166C6.13332 25.4942 6.20812 25.3873 6.3073 25.2928C6.40485 25.1998 6.51866 25.127 6.64711 25.0759C6.77556 25.0248 6.90888 25 7.04871 25H27.9513C28.0911 25 28.2244 25.0248 28.3529 25.0759C28.4813 25.127 28.5951 25.1998 28.6927 25.2928C28.7919 25.3873 28.8667 25.4942 28.9203 25.6166C28.974 25.739 29 25.8675 29 25.9992C29 26.1325 28.974 26.2595 28.9203 26.3819C28.8667 26.5043 28.7919 26.6127 28.6927 26.7072C28.5951 26.8002 28.4813 26.873 28.3529 26.9241C28.2244 26.9737 28.0911 27 27.9513 27Z" fill="white"/>
<path d="M27.9513 34H7.04871C6.90888 34 6.77556 33.9628 6.64711 33.886C6.51866 33.8093 6.40485 33.7023 6.3073 33.5605C6.20812 33.4209 6.13332 33.2581 6.07967 33.0744C6.02601 32.8907 6 32.6977 6 32.5C6 32.3 6.02601 32.1093 6.07967 31.9256C6.13332 31.7419 6.20812 31.5791 6.3073 31.4395C6.40485 31.2977 6.51866 31.1884 6.64711 31.114C6.77556 31.0372 6.90888 31 7.04871 31H27.9513C28.0911 31 28.2244 31.0372 28.3529 31.114C28.4813 31.1884 28.5951 31.2977 28.6927 31.4395C28.7919 31.5791 28.8667 31.7419 28.9203 31.9256C28.974 32.1093 29 32.3 29 32.5C29 32.6977 28.974 32.8907 28.9203 33.0744C28.8667 33.2581 28.7919 33.4209 28.6927 33.5605C28.5951 33.7023 28.4813 33.8093 28.3529 33.886C28.2244 33.9628 28.0911 34 27.9513 34Z" fill="white"/>
<path d="M55.9402 40H7.05813C6.91704 40 6.78252 39.9737 6.65292 39.9241C6.52332 39.873 6.40849 39.8002 6.31006 39.7072C6.20998 39.6127 6.13452 39.5043 6.08038 39.3819C6.02625 39.2595 6 39.1325 6 38.9992C6 38.8675 6.02625 38.739 6.08038 38.6166C6.13452 38.4942 6.20998 38.3873 6.31006 38.2928C6.40849 38.1998 6.52332 38.127 6.65292 38.0759C6.78252 38.0248 6.91704 38 7.05813 38H55.9402C56.0813 38 56.2158 38.0248 56.3454 38.0759C56.475 38.127 56.5899 38.1998 56.6883 38.2928C56.7884 38.3873 56.8655 38.4942 56.918 38.6166C56.9721 38.739 57 38.8675 57 38.9992C57 39.1325 56.9721 39.2595 56.918 39.3819C56.8655 39.5043 56.7884 39.6127 56.6883 39.7072C56.5899 39.8002 56.475 39.873 56.3454 39.9241C56.2158 39.9737 56.0813 40 55.9402 40Z" fill="white"/>
<path d="M30.0442 34.9998C29.9633 34.9998 29.8841 34.9894 29.8048 34.9704C29.7272 34.9496 29.6512 34.9201 29.58 34.882C29.5072 34.8439 29.4393 34.7972 29.3778 34.7417C29.3164 34.688 29.2614 34.6257 29.2112 34.5564C29.1627 34.4871 29.1223 34.4143 29.0899 34.3346C29.0576 34.2567 29.0333 34.1752 29.0187 34.0904C29.0026 34.0055 28.9977 33.9188 29.0009 33.834C29.0042 33.7473 29.0171 33.6625 29.0381 33.5793L30.7543 27.0293C30.8028 26.8422 30.8902 26.6793 31.0163 26.5408L49.8048 6.41775C49.9957 6.19774 50.2044 6.00199 50.4308 5.82875C50.6589 5.65552 50.8999 5.50654 51.1538 5.38527C51.4094 5.26401 51.673 5.17046 51.9448 5.10636C52.2181 5.04053 52.4931 5.00589 52.7713 5.00069C53.0511 4.99549 53.3277 5.01974 53.6027 5.07345C53.876 5.12888 54.1429 5.21203 54.4017 5.32291C54.6605 5.43551 54.9064 5.5741 55.1393 5.73867C55.3722 5.90324 55.5857 6.09207 55.783 6.30342C55.9803 6.51476 56.1567 6.74517 56.3103 6.99289C56.464 7.24235 56.5934 7.50567 56.6985 7.78285C56.8036 8.06002 56.8813 8.34586 56.9314 8.64036C56.9816 8.93313 57.0042 9.22936 56.9994 9.52906C56.9945 9.82702 56.9622 10.1233 56.9023 10.4143C56.8408 10.7053 56.7535 10.9877 56.6403 11.2614C56.5271 11.5351 56.3896 11.7932 56.2262 12.0358C56.0645 12.2783 55.8817 12.5018 55.6779 12.7062L36.8877 32.8309C36.7583 32.9678 36.6063 33.0631 36.4316 33.1168L30.3257 34.9635C30.2335 34.9894 30.1396 35.0016 30.0442 34.9998ZM32.6904 27.9145L31.5501 32.2679L35.6213 31.0518L54.2141 11.1349C54.3111 11.0327 54.3968 10.9201 54.4713 10.8006C54.5473 10.6793 54.6104 10.5511 54.6621 10.4178C54.7139 10.2826 54.7527 10.144 54.7802 10.002C54.8061 9.85994 54.819 9.71615 54.819 9.57063C54.819 9.42512 54.8061 9.28133 54.7802 9.13928C54.7527 8.99723 54.7139 8.85864 54.6621 8.72351C54.6104 8.59012 54.5473 8.46193 54.4713 8.34066C54.3968 8.22113 54.3111 8.10853 54.2141 8.00632C54.1186 7.90411 54.0135 7.8123 53.9019 7.73088C53.7887 7.64946 53.669 7.58189 53.5444 7.52646C53.4183 7.47102 53.2905 7.42945 53.1562 7.4C53.0236 7.37228 52.8894 7.35842 52.7535 7.35842C52.6176 7.35842 52.4834 7.37228 52.3507 7.4C52.2181 7.42945 52.0887 7.47102 51.9626 7.52646C51.838 7.58189 51.7183 7.64946 51.6067 7.73088C51.4935 7.8123 51.3884 7.90411 51.2929 8.00632L32.6904 27.9145Z" fill="white"/>
<path d="M36.0383 33C35.7712 33 35.5444 32.8904 35.3565 32.6713L31.2999 27.9374C31.206 27.8331 31.1328 27.7114 31.0806 27.5722C31.0284 27.4331 31.0016 27.2888 31.0001 27.1375C30.9986 26.9862 31.0224 26.8401 31.0702 26.7009C31.1194 26.5601 31.1895 26.4366 31.282 26.3288C31.373 26.2227 31.479 26.1409 31.5998 26.0836C31.7207 26.0262 31.8445 25.9983 31.9743 26.0001C32.1041 26.0018 32.2294 26.0331 32.3488 26.094C32.4666 26.1549 32.5711 26.2401 32.6606 26.3496L36.7171 31.08C36.8558 31.24 36.9424 31.4313 36.9812 31.6539C37.0185 31.8765 37.0006 32.0922 36.926 32.3009C36.8514 32.5113 36.7335 32.6783 36.5724 32.8052C36.4098 32.9304 36.2322 32.9948 36.0383 32.9948V33Z" fill="white"/>
<path d="M53.0407 15C52.7725 15 52.5449 14.8899 52.3561 14.6697L48.2831 9.92561C48.1917 9.81902 48.1213 9.69671 48.0734 9.55866C48.024 9.42062 48 9.27733 48 9.12706C48 8.97853 48.024 8.8335 48.0734 8.69546C48.1228 8.55741 48.1917 8.43684 48.2831 8.33025C48.3745 8.22541 48.4779 8.14328 48.5962 8.08562C48.716 8.02796 48.8389 8 48.9662 8C49.095 8 49.2179 8.02971 49.3362 8.08562C49.456 8.14328 49.5594 8.22541 49.6508 8.33025L53.7223 13.0831C53.8586 13.2439 53.9455 13.4361 53.9814 13.658C54.0189 13.8799 53.9994 14.0966 53.926 14.3045C53.8511 14.5142 53.7327 14.682 53.5725 14.8078C53.4122 14.9336 53.2339 14.9983 53.0407 15Z" fill="white"/>
</svg>
