<svg width="79" height="75" viewBox="0 0 79 75" fill="none" xmlns="http://www.w3.org/2000/svg">
<mask id="mask0_1232_2741" style="mask-type:luminance" maskUnits="userSpaceOnUse" x="0" y="0" width="79" height="75">
<path d="M0 0H78.125V75H0V0Z" fill="white"/>
</mask>
<g mask="url(#mask0_1232_2741)">
<mask id="mask1_1232_2741" style="mask-type:luminance" maskUnits="userSpaceOnUse" x="0" y="0" width="79" height="76">
<path d="M0 37.8255C0 47.8597 3.98763 57.4788 11.0758 64.5752C18.1722 71.6634 27.7913 75.651 37.8255 75.651H40.8773C50.9115 75.651 60.5306 71.6634 67.627 64.5752C74.7152 57.4788 78.7028 47.8597 78.7028 37.8255C78.7028 27.7913 74.7152 18.1722 67.627 11.0758C60.5306 3.98763 50.9115 0 40.8773 0H37.8255C27.7913 0 18.1722 3.98763 11.0758 11.0758C3.98763 18.1722 0 27.7913 0 37.8255Z" fill="white"/>
</mask>
<g mask="url(#mask1_1232_2741)">
<path d="M55.2653 28.1097L60.2621 19.4508C62.6058 15.3981 67.7816 14.0065 71.8343 16.3503C75.8871 18.6859 77.2787 23.8698 74.9349 27.9225L74.4792 28.7038L75.0082 29.0049C77.3763 30.3721 78.5563 33.139 77.1322 35.613L72.7132 43.2627C71.2891 45.7367 68.3024 46.0947 65.9343 44.7275C65.7552 44.6217 65.5843 44.5078 65.4297 44.3857L59.4645 54.721L55.2653 56.9508V73.9023C55.2653 74.8464 54.5004 75.6113 53.5563 75.6113H1.87177C0.927753 75.6113 0.162781 74.8464 0.162781 73.9023V13.6647C0.162781 13.6077 0.170919 13.5508 0.170919 13.4938C0.179058 13.4531 0.187195 13.4124 0.195333 13.3717C0.195333 13.3555 0.195333 13.3473 0.195333 13.3311C0.211608 13.2822 0.219748 13.2334 0.236023 13.1846C0.236023 13.1764 0.236023 13.1764 0.236023 13.1683C0.2523 13.1195 0.268575 13.0706 0.292989 13.0299C0.292989 13.0218 0.292989 13.0137 0.292989 13.0137C0.317404 12.9648 0.333679 12.9242 0.358093 12.8835C0.358093 12.8753 0.366231 12.8672 0.366231 12.859C0.390646 12.8184 0.406921 12.7858 0.431335 12.7533C0.439475 12.737 0.447612 12.7288 0.45575 12.7126C0.472025 12.68 0.496439 12.6556 0.520854 12.623C0.537129 12.6068 0.545268 12.5905 0.553406 12.5824C0.57782 12.5498 0.610371 12.5173 0.634786 12.4928C0.642924 12.4766 0.651063 12.4684 0.667338 12.4521L12.6465 0.48112C12.6546 0.464843 12.6709 0.456705 12.6791 0.448568C12.7035 0.416016 12.736 0.391602 12.7686 0.367187C12.7849 0.350912 12.793 0.342775 12.8093 0.334635C12.8418 0.310221 12.8744 0.285808 12.8988 0.261393C12.9151 0.261393 12.9232 0.253257 12.9395 0.245117C12.972 0.220705 13.0127 0.19629 13.0453 0.180013C13.0534 0.171876 13.0615 0.171874 13.0697 0.163737C13.1104 0.147462 13.1511 0.123048 13.1999 0.106771C13.1999 0.106771 13.208 0.10677 13.2162 0.0986328C13.2569 0.0823578 13.3057 0.0660818 13.3545 0.0498047C13.3627 0.0498047 13.3708 0.0498047 13.3708 0.0498047C13.4196 0.0335297 13.4684 0.0172542 13.5173 0.00911458C13.5336 0.00911458 13.5498 0.00911406 13.558 0.000976562C13.5987 -0.00716094 13.6393 -0.0071599 13.68 -0.0152995C13.737 -0.023437 13.794 -0.0234375 13.8509 -0.0234375H53.5563C54.5004 -0.0234375 55.2653 0.741536 55.2653 1.68555V28.1097ZM44.1406 59.262C44.0755 59.2458 44.0023 59.2376 43.9291 59.2458C43.3838 59.2865 42.749 59.4899 42.0085 59.848C41.6911 59.9945 41.3656 60.1654 40.9831 60.377C40.7552 60.5072 40.0065 60.9385 40.0472 60.9141C39.7136 61.1012 39.4857 61.2233 39.3067 61.3047C38.4359 61.7116 37.9883 61.8906 37.6302 61.9395C37.6791 61.7686 37.7279 61.6709 38.0371 60.971C38.0778 60.8815 38.1104 60.8083 38.1429 60.735C38.3708 60.1979 38.4929 59.8236 38.5417 59.498C38.5336 59.5062 38.6149 59.1725 38.6475 58.9935C38.7126 58.6842 38.7533 58.3913 38.7696 58.1064C38.8265 57.0078 38.4522 56.2673 37.4593 56.3242C36.7676 56.373 34.7005 58.1064 31.7953 60.9303L31.9011 60.5967C32.8858 58.0739 30.127 55.7057 27.7669 57.252L26.2451 58.3018C25.8789 58.5378 25.765 59.0505 26.001 59.4329L26.4811 60.1979C26.7171 60.5967 27.2298 60.7106 27.6123 60.4583L29.2155 59.3516C29.4027 59.2295 29.6387 59.4411 29.5492 59.6689L27.4007 65.4958C27.0915 66.277 27.6123 67.2454 28.5726 67.2454C28.9063 67.2454 29.2318 67.1152 29.4678 66.863C31.2012 65.0807 33.9274 62.387 35.5876 60.8571C35.5713 60.8896 35.555 60.9303 35.5388 60.971C35.4818 61.1256 35.433 61.2477 35.3923 61.3698C34.9691 62.5173 34.8714 63.2171 35.2865 63.681C35.7829 64.2425 36.4909 64.5273 37.3698 64.5273C37.9802 64.5273 38.5824 64.389 39.2822 64.1123C39.5752 63.9902 39.8031 63.8926 40.3402 63.6403C40.5355 63.5589 40.7552 63.4368 41.0645 63.2578C41.2028 63.1764 41.7643 62.8346 41.9027 62.7533C42.098 62.6393 42.2689 62.5417 42.4317 62.4521C43.1397 62.0615 43.6605 61.8418 44.0267 61.8174C44.458 61.7767 44.7917 61.4268 44.7917 60.9873V60.5234C44.4906 60.1491 44.2709 59.7178 44.1406 59.262ZM12.1419 5.81966L6.00588 11.9557H12.1419V5.81966ZM42.0655 37.0697C43.1478 37.0697 43.9209 36.2233 43.9209 35.1409C43.9209 34.0586 43.1478 33.2855 42.0655 33.2855H11.8164C10.7341 33.2855 9.88772 34.0586 9.88772 35.1409C9.88772 36.2233 10.7341 37.0697 11.8164 37.0697H42.0655ZM42.0655 27.9958C43.1478 27.9958 43.9209 27.1413 43.9209 26.0589C43.9209 24.9847 43.1478 24.2116 42.0655 24.2116H11.8164C10.7341 24.2116 9.88772 24.9847 9.88772 26.0589C9.88772 27.1413 10.7341 27.9958 11.8164 27.9958H42.0655ZM42.0655 46.0947C43.1478 46.0947 43.9209 45.3298 43.9209 44.2474C43.9209 43.165 43.1478 42.3187 42.0655 42.3187H11.8164C10.7341 42.3187 9.88772 43.165 9.88772 44.2474C9.88772 45.3298 10.7341 46.0947 11.8164 46.0947H42.0655ZM69.6615 32.2113L72.0215 33.5703L68.3757 39.8854C67.7084 39.6657 66.9515 39.9342 66.5853 40.569C66.1703 41.2852 66.4144 42.2129 67.1387 42.6279C68.3513 43.3278 69.8975 43.3034 70.6218 42.0583L75.0326 34.4004C75.7569 33.1553 75.0082 31.8044 73.7956 31.1045L71.1752 29.5908L72.8435 26.71C74.5117 23.8128 73.5189 20.11 70.6218 18.4417C67.7328 16.7734 64.03 17.7663 62.3617 20.6553L47.2331 46.8597L47.5505 55.9824L46.5821 57.6589C46.2484 58.2448 46.4518 58.9853 47.0296 59.319C47.6074 59.6527 48.348 59.4492 48.6817 58.8714L49.6501 57.195L57.7149 52.9062L69.6615 32.2113Z" fill="white"/>
</g>
</g>
</svg>
