<svg width="16" height="15" viewBox="0 0 16 15" fill="none" xmlns="http://www.w3.org/2000/svg">
<path d="M13.322 10.894C13.2182 10.9982 13.1387 11.124 13.0891 11.2625C13.0395 11.4009 13.021 11.5486 13.035 11.695C13.1055 12.3726 13.2387 13.0421 13.433 13.695C12.038 13.372 11.186 12.998 10.799 12.802C10.5795 12.6908 10.3267 12.6645 10.089 12.728C9.4077 12.9104 8.70528 13.0018 8 13C4.004 13 1 10.193 1 7C1 3.807 4.004 1 8 1C11.996 1 15 3.808 15 7C15 8.468 14.383 9.83 13.322 10.894ZM13.815 14.799C14.0519 14.8459 14.2896 14.8889 14.528 14.928C14.728 14.96 14.88 14.752 14.801 14.566C14.7124 14.3565 14.6311 14.144 14.557 13.929L14.554 13.919C14.306 13.199 14.104 12.371 14.03 11.6C15.257 10.37 16 8.76 16 7C16 3.134 12.418 0 8 0C3.582 0 0 3.134 0 7C0 10.866 3.582 14 8 14C8.79239 14.0018 9.58155 13.8989 10.347 13.694C10.867 13.957 11.986 14.436 13.815 14.799Z" fill="black"/>
</svg>
