<svg width="67" height="59" viewBox="0 0 67 59" fill="none" xmlns="http://www.w3.org/2000/svg">
<mask id="mask0_1227_2581" style="mask-type:luminance" maskUnits="userSpaceOnUse" x="0" y="0" width="67" height="59">
<path d="M0 0H66.752V58.212H0V0Z" fill="white"/>
</mask>
<g mask="url(#mask0_1227_2581)">
<path d="M63.3827 6.14902H60.4625V3.09877C60.4625 1.42271 59.2469 0.0419623 57.7559 0.0262123L56.8389 0.0170248C48.4412 -0.0551628 38.9679 -0.144413 33.3772 5.43765C27.7877 -0.147038 18.3073 -0.0551628 9.91668 0.0170248L8.99968 0.0262123C7.51218 0.0419623 6.29301 1.41353 6.29301 3.09877V6.14902H3.37285C1.51901 6.14902 0.00817871 7.85134 0.00817871 9.94084V48.1897C0.00817871 49.2148 0.358179 50.1663 0.996346 50.8843C1.63335 51.6035 2.49201 51.9907 3.39501 51.9815L4.31318 51.9723C13.9218 51.8831 24.8092 51.786 31.3297 57.4022C31.9457 57.9285 32.6609 58.1962 33.3772 58.1962C34.0935 58.1962 34.8087 57.9311 35.4188 57.4048C41.9405 51.7886 52.8302 51.887 62.4365 51.975L63.3535 51.9842C64.2565 51.9933 65.1152 51.6062 65.7534 50.8882C66.3904 50.169 66.7404 49.2174 66.7404 48.1937V9.93428C66.7462 7.84478 65.2354 6.14902 63.3815 6.14902H63.3827ZM56.8249 1.85059L57.7419 1.85977C58.3427 1.87028 58.8292 2.41759 58.8292 3.09615V43.8795C58.8292 44.2194 58.7149 44.5252 58.5084 44.7588C58.3007 44.9912 58.0219 45.1211 57.7197 45.1145L56.833 45.1053C48.8285 45.0332 39.8522 44.9662 34.1799 49.791V7.1019C39.2619 1.70621 48.5824 1.7784 56.8249 1.85059ZM7.92051 3.09221C7.92051 2.41496 8.40701 1.85715 9.00785 1.85715L9.92601 1.84796C18.1673 1.77577 27.4879 1.70227 32.564 7.1019V49.7883C27.5882 45.5529 20.0713 45.0857 12.8905 45.0857C11.8895 45.0857 10.8932 45.0948 9.91201 45.1014L9.02535 45.1106C8.72318 45.1211 8.44668 44.9912 8.23668 44.7549C8.03018 44.5213 7.91468 44.2063 7.91468 43.8755L7.91235 3.09221H7.92051ZM65.121 48.1937C65.121 48.7252 64.9425 49.2174 64.6124 49.5888C64.2904 49.9511 63.854 50.1532 63.3874 50.1532H63.3734L62.4564 50.144C52.584 50.0561 41.4015 49.9577 34.4342 55.9518C33.7972 56.5005 32.9665 56.5005 32.3284 55.9518C25.3622 49.9577 14.1738 50.0561 4.30618 50.144L3.38918 50.1532C2.92485 50.1532 2.48035 49.9616 2.15018 49.5888C1.82001 49.2174 1.64151 48.7252 1.64151 48.1937L1.64735 9.93428C1.64735 8.85278 2.42668 7.97996 3.38101 7.97996H6.30001V43.8821C6.30001 44.7142 6.58585 45.486 7.10268 46.0687C7.61718 46.6423 8.29968 46.9573 9.02185 46.9573H9.04401L9.93068 46.9481C18.3003 46.8759 27.7865 46.788 32.8032 52.4409C32.9595 52.6181 33.1695 52.706 33.3772 52.706C33.5837 52.706 33.7902 52.6181 33.95 52.4409C38.9702 46.784 48.4564 46.8759 56.8237 46.9481L57.7092 46.9573H57.7325C58.4617 46.9573 59.1419 46.6423 59.6505 46.0687C60.165 45.4886 60.4532 44.7142 60.4532 43.8821V7.97996H63.3734C64.3324 7.97996 65.107 8.85934 65.107 9.93428V48.1937H65.121ZM37.7872 26.2959C37.6087 25.83 37.8012 25.2879 38.2177 25.0963C42.8575 22.8611 48.7865 22.5461 54.4915 22.5461C54.9419 22.5461 55.307 22.9595 55.307 23.4662C55.307 23.9741 54.9407 24.3862 54.4915 24.3862C48.9569 24.3862 43.2297 24.6855 38.8547 26.7907C38.7485 26.838 38.64 26.8629 38.5339 26.8629C38.2177 26.8603 37.9155 26.649 37.7872 26.2959ZM37.7872 33.2679C37.6087 32.8007 37.8012 32.2586 38.2177 32.067C42.8575 29.8318 48.7865 29.5168 54.4915 29.5168C54.9419 29.5168 55.307 29.9302 55.307 30.4368C55.307 30.9448 54.9407 31.3569 54.4915 31.3569C48.9569 31.3569 43.2297 31.6575 38.8547 33.7627C38.7485 33.81 38.64 33.8349 38.5339 33.8349C38.2177 33.8218 37.9155 33.6144 37.7872 33.2679ZM37.7872 19.3318C37.6087 18.8658 37.8012 18.3238 38.2177 18.1308C42.8575 15.897 48.7865 15.582 54.4915 15.582C54.9419 15.582 55.307 15.9941 55.307 16.502C55.307 17.0087 54.9407 17.4221 54.4915 17.4221C48.9569 17.4221 43.2297 17.7213 38.8547 19.8266C38.7485 19.8738 38.64 19.8988 38.5339 19.8988C38.2177 19.8896 37.9155 19.6783 37.7872 19.3318ZM37.7872 12.3703C37.6087 11.9043 37.8012 11.3623 38.2177 11.1693C42.8575 8.93546 48.7865 8.62046 54.4915 8.62046C54.9419 8.62046 55.307 9.03259 55.307 9.54053C55.307 10.0472 54.9407 10.4606 54.4915 10.4606C48.9569 10.4606 43.2297 10.7598 38.8547 12.8651C38.7485 12.9123 38.64 12.9373 38.5339 12.9373C38.2177 12.9281 37.9155 12.7168 37.7872 12.3703ZM55.3059 37.3905C55.3059 37.8971 54.9395 38.3105 54.4892 38.3105C48.9545 38.3105 43.2274 38.6098 38.8535 40.715C38.7462 40.7623 38.6377 40.7872 38.5315 40.7872C38.2154 40.7872 37.9167 40.5759 37.779 40.2294C37.6005 39.7635 37.793 39.2214 38.2095 39.0285C42.8494 36.7946 48.7784 36.4796 54.4822 36.4796C54.9419 36.4757 55.3059 36.8891 55.3059 37.3905ZM11.4497 9.54053C11.4497 9.03259 11.816 8.62046 12.2663 8.62046C17.9795 8.62046 23.8992 8.93546 28.539 11.1693C28.9532 11.3715 29.148 11.9043 28.9695 12.3703C28.8412 12.7168 28.539 12.9281 28.217 12.9281C28.1108 12.9281 28.0023 12.9032 27.895 12.8559C23.5212 10.7507 17.794 10.4606 12.2593 10.4514C11.8125 10.4514 11.4497 10.038 11.4497 9.54053ZM11.4497 16.502C11.4497 15.9941 11.816 15.582 12.2663 15.582C17.9795 15.582 23.8992 15.897 28.539 18.1308C28.9532 18.333 29.148 18.8658 28.9695 19.3318C28.8412 19.6783 28.539 19.8896 28.217 19.8896C28.1108 19.8896 28.0023 19.8647 27.895 19.8174C23.5212 17.7122 17.794 17.4221 12.2593 17.4129C11.8125 17.4129 11.4497 17.0087 11.4497 16.502ZM11.4497 23.4635C11.4497 22.9556 11.816 22.5435 12.2663 22.5435C17.9795 22.5435 23.8992 22.8585 28.539 25.0923C28.9532 25.2945 29.148 25.8273 28.9695 26.2933C28.8412 26.6398 28.539 26.8511 28.217 26.8511C28.1108 26.8511 28.0023 26.8262 27.895 26.7789C23.5212 24.6737 17.794 24.3836 12.2593 24.3744C11.8125 24.3836 11.4497 23.9701 11.4497 23.4635ZM11.4497 37.3905C11.4497 36.8825 11.816 36.4691 12.2663 36.4691C17.9795 36.4691 23.8992 36.7854 28.539 39.0193C28.9532 39.2214 29.148 39.753 28.9695 40.2202C28.8412 40.5667 28.539 40.778 28.217 40.778C28.1108 40.778 28.0023 40.7531 27.895 40.7058C23.5212 38.6006 17.794 38.3105 12.2593 38.3013C11.8125 38.3105 11.4497 37.8971 11.4497 37.3905ZM11.4497 30.425C11.4497 29.9184 11.816 29.505 12.2663 29.505C17.9795 29.505 23.8992 29.82 28.539 32.0552C28.9532 32.256 29.148 32.7888 28.9695 33.2548C28.8412 33.6026 28.539 33.8126 28.217 33.8126C28.1108 33.8126 28.0023 33.7877 27.895 33.7404C23.5212 31.6352 17.794 31.3451 12.2593 31.3359C11.8125 31.3451 11.4497 30.9356 11.4497 30.425Z" fill="white"/>
</g>
</svg>
