<svg width="48" height="65" viewBox="0 0 48 65" fill="none" xmlns="http://www.w3.org/2000/svg">
<mask id="mask0_1233_3046" style="mask-type:luminance" maskUnits="userSpaceOnUse" x="0" y="0" width="48" height="65">
<path d="M0 0H47.658V64.692H0V0Z" fill="white"/>
</mask>
<g mask="url(#mask0_1233_3046)">
<path d="M40.9943 64.3333H8.19122C3.68509 64.3333 0 60.7205 0 56.3029V8.06469C0 3.62835 3.68509 0.015625 8.19122 0.015625H40.9943C45.5195 0.015625 49.2046 3.62835 49.2046 8.06469V56.3029C49.2046 60.7205 45.5195 64.3333 40.9943 64.3333ZM8.19122 5.36919C6.68281 5.36919 5.46081 6.58591 5.46081 8.06469V56.3029C5.46081 57.7817 6.68281 58.9797 8.19122 58.9797H40.9943C42.5027 58.9797 43.7438 57.7817 43.7438 56.3029V8.06469C43.7438 6.58591 42.5027 5.36919 40.9943 5.36919H8.19122Z" fill="white"/>
</g>
<mask id="mask1_1233_3046" style="mask-type:luminance" maskUnits="userSpaceOnUse" x="0" y="41" width="48" height="11">
<path d="M0 41.9141H47.658V51.4981H0V41.9141Z" fill="white"/>
</mask>
<g mask="url(#mask1_1233_3046)">
<path d="M46.4742 50.9395H2.73041C1.222 50.9395 0 49.7415 0 48.2627C0 46.7839 1.222 45.5859 2.73041 45.5859H46.4742C47.9826 45.5859 49.2046 46.7839 49.2046 48.2627C49.2046 49.7415 47.9826 50.9395 46.4742 50.9395Z" fill="white"/>
</g>
<path d="M13.6712 40.2258C12.1628 40.2258 10.9408 39.0278 10.9408 37.5303V32.1768C10.9408 30.698 12.1628 29.5 13.6712 29.5C15.1796 29.5 16.4016 30.698 16.4016 32.1768V37.5303C16.4016 39.0278 15.1796 40.2258 13.6712 40.2258Z" fill="white"/>
<path d="M24.5928 40.228C23.0844 40.228 21.8624 39.03 21.8624 37.5325V24.1486C21.8624 22.6511 23.0844 21.4531 24.5928 21.4531C26.1203 21.4531 27.3423 22.6511 27.3423 24.1486V37.5325C27.3423 39.03 26.1203 40.228 24.5928 40.228Z" fill="white"/>
<path d="M35.5335 40.2271C34.0251 40.2271 32.8031 39.0291 32.8031 37.5316V16.0987C32.8031 14.6199 34.0251 13.4219 35.5335 13.4219C37.0419 13.4219 38.2639 14.6199 38.2639 16.0987V37.5316C38.2639 39.0291 37.0419 40.2271 35.5335 40.2271Z" fill="white"/>
</svg>
