<svg width="48" height="58" viewBox="0 0 48 58" fill="none" xmlns="http://www.w3.org/2000/svg">
<mask id="mask0_1233_3046" style="mask-type:luminance" maskUnits="userSpaceOnUse" x="0" y="0" width="48" height="58">
<path d="M0 0H47.658V58H0V0Z" fill="white"/>
</mask>
<g mask="url(#mask0_1233_3046)">
<path d="M40.9943 57.68H8.19122C3.68509 57.68 0 54.441 0 50.4803V7.23206C0 3.25463 3.68509 0.015625 8.19122 0.015625H40.9943C45.5195 0.015625 49.2046 3.25463 49.2046 7.23206V50.4803C49.2046 54.441 45.5195 57.68 40.9943 57.68ZM8.19122 4.81539C6.68281 4.81539 5.46081 5.90625 5.46081 7.23206V50.4803C5.46081 51.8061 6.68281 52.8802 8.19122 52.8802H40.9943C42.5027 52.8802 43.7438 51.8061 43.7438 50.4803V7.23206C43.7438 5.90625 42.5027 4.81539 40.9943 4.81539H8.19122Z" fill="white"/>
</g>
<mask id="mask1_1233_3046" style="mask-type:luminance" maskUnits="userSpaceOnUse" x="0" y="37" width="48" height="10">
<path d="M0 37.5781H47.658V46.1707H0V37.5781Z" fill="white"/>
</mask>
<g mask="url(#mask1_1233_3046)">
<path d="M46.4742 45.667H2.73041C1.222 45.667 0 44.5929 0 43.2671C0 41.9413 1.222 40.8672 2.73041 40.8672H46.4742C47.9826 40.8672 49.2046 41.9413 49.2046 43.2671C49.2046 44.5929 47.9826 45.667 46.4742 45.667Z" fill="white"/>
</g>
<path d="M13.6712 36.0616C12.1628 36.0616 10.9408 34.9876 10.9408 33.645V28.8452C10.9408 27.5194 12.1628 26.4453 13.6712 26.4453C15.1796 26.4453 16.4016 27.5194 16.4016 28.8452V33.645C16.4016 34.9876 15.1796 36.0616 13.6712 36.0616Z" fill="white"/>
<path d="M24.5928 36.0671C23.0844 36.0671 21.8624 34.9931 21.8624 33.6505V21.651C21.8624 20.3084 23.0844 19.2344 24.5928 19.2344C26.1203 19.2344 27.3423 20.3084 27.3423 21.651V33.6505C27.3423 34.9931 26.1203 36.0671 24.5928 36.0671Z" fill="white"/>
<path d="M35.5335 36.0637C34.0251 36.0637 32.8031 34.9896 32.8031 33.647V14.4311C32.8031 13.1053 34.0251 12.0312 35.5335 12.0312C37.0419 12.0312 38.2639 13.1053 38.2639 14.4311V33.647C38.2639 34.9896 37.0419 36.0637 35.5335 36.0637Z" fill="white"/>
</svg>
