<svg width="47" height="47" viewBox="0 0 47 47" fill="none" xmlns="http://www.w3.org/2000/svg">
<mask id="mask0_1237_2576" style="mask-type:luminance" maskUnits="userSpaceOnUse" x="0" y="0" width="35" height="45">
<path d="M0 0H34.5104V44.9167H0V0Z" fill="white"/>
</mask>
<g mask="url(#mask0_1237_2576)">
<path d="M4.54688 43.9375H27.276C28.1823 43.9375 28.7917 43.3333 28.7917 42.4219C28.7917 41.5156 28.1823 40.9062 27.276 40.9062H4.54688C3.64062 40.9062 3.03125 40.3021 3.03125 39.3906V15.151H10.6094C13.1823 15.151 15.151 13.1823 15.151 10.6042V3.03125H28.7917C29.6979 3.03125 30.3021 3.63542 30.3021 4.54688V19.6979C30.3021 20.6042 30.9115 21.2083 31.8177 21.2083C32.7292 21.2083 33.3333 20.6042 33.3333 19.6979V4.54688C33.3333 1.96875 31.3646 0 28.7917 0H14.849C13.6406 0 12.5781 0.453125 11.6667 1.36458L1.36458 11.6667C0.458334 12.5729 0 13.6354 0 14.849V39.3906C0 41.9688 1.97396 43.9375 4.54688 43.9375ZM12.125 5.15104V10.6042C12.125 11.5156 11.5156 12.1198 10.6094 12.1198H5.15104L12.125 5.15104Z" fill="white"/>
</g>
<mask id="mask1_1237_2576" style="mask-type:luminance" maskUnits="userSpaceOnUse" x="22" y="22" width="25" height="25">
<path d="M22 22H46.1562V46.4167H22V22Z" fill="white"/>
</mask>
<g mask="url(#mask1_1237_2576)">
<path d="M43.6159 22.6562H25.4336C23.7669 22.6562 22.4023 24.0208 22.4023 25.6875V29.3229C22.4023 30.3854 23.0065 31.4479 23.918 31.901L29.9753 35.5365V45.3854C29.9753 45.8385 30.2826 46.4479 30.7357 46.75C30.8867 46.901 31.1888 46.901 31.4909 46.901C31.793 46.901 31.9492 46.901 32.1003 46.75L37.2513 44.1719C38.3086 43.7188 38.918 42.6562 38.918 41.4479V35.6875L44.9753 32.0521C45.8867 31.4479 46.4909 30.5365 46.4909 29.474V25.6875C46.6419 24.0208 45.2826 22.6562 43.6159 22.6562ZM43.6159 29.3229L37.5534 32.9583C36.6419 33.5677 36.0378 34.474 36.0378 35.5365V41.2917L33.0065 42.8073V35.5365C33.0065 34.474 32.4023 33.4167 31.4909 32.9583L25.4336 29.3229V25.6875H43.6159V29.3229Z" fill="white"/>
</g>
</svg>
