<svg width="69" height="69" viewBox="0 0 69 69" fill="none" xmlns="http://www.w3.org/2000/svg">
<mask id="mask0_1232_2911" style="mask-type:luminance" maskUnits="userSpaceOnUse" x="50" y="24" width="19" height="21">
<path d="M50.2157 24.9531H69V44.1193H50.2157V24.9531Z" fill="white"/>
</mask>
<g mask="url(#mask0_1232_2911)">
<mask id="mask1_1232_2911" style="mask-type:luminance" maskUnits="userSpaceOnUse" x="0" y="0" width="69" height="69">
<path d="M0.00183105 34.3643C0.00183105 53.3358 15.3797 68.7211 34.3586 68.7211C53.3301 68.7211 68.7155 53.3358 68.7155 34.3643C68.7155 15.3853 53.3301 0 34.3586 0C15.3797 0 0.00183105 15.3853 0.00183105 34.3643Z" fill="white"/>
</mask>
<g mask="url(#mask1_1232_2911)">
<path d="M68.4759 30.5213C63.0255 27.7587 57.2607 26.0068 51.1815 25.2656C51.4061 28.2678 51.5258 31.3075 51.5258 34.3546C51.5258 37.4017 51.4061 40.4413 51.1815 43.436C57.2607 42.7023 63.0181 40.9504 68.4759 38.1878C68.7829 35.6273 68.7829 33.0743 68.4759 30.5213Z" fill="white"/>
</g>
</g>
<mask id="mask2_1232_2911" style="mask-type:luminance" maskUnits="userSpaceOnUse" x="0" y="24" width="18" height="21">
<path d="M0 24.9531H17.6314V44.1193H0V24.9531Z" fill="white"/>
</mask>
<g mask="url(#mask2_1232_2911)">
<mask id="mask3_1232_2911" style="mask-type:luminance" maskUnits="userSpaceOnUse" x="0" y="0" width="69" height="69">
<path d="M0 34.3643C0 53.3358 15.3778 68.7211 34.3568 68.7211C53.3283 68.7211 68.7136 53.3358 68.7136 34.3643C68.7136 15.3853 53.3283 0 34.3568 0C15.3778 0 0 15.3853 0 34.3643Z" fill="white"/>
</mask>
<g mask="url(#mask3_1232_2911)">
<path d="M17.1747 34.3546C17.1747 31.3075 17.2945 28.2678 17.5191 25.2656C11.4473 26.0068 5.68246 27.7587 0.224604 30.5213C-0.0823551 33.0743 -0.0823551 35.6273 0.224604 38.1803C5.68246 40.9504 11.4473 42.7023 17.5191 43.436C17.2945 40.4413 17.1747 37.4017 17.1747 34.3546Z" fill="white"/>
</g>
</g>
<mask id="mask4_1232_2911" style="mask-type:luminance" maskUnits="userSpaceOnUse" x="23" y="0" width="22" height="20">
<path d="M23.3812 0H44.464V19.2036H23.3812V0Z" fill="white"/>
</mask>
<g mask="url(#mask4_1232_2911)">
<mask id="mask5_1232_2911" style="mask-type:luminance" maskUnits="userSpaceOnUse" x="0" y="0" width="69" height="69">
<path d="M0 34.3643C0 53.3358 15.3778 68.7211 34.3568 68.7211C53.3283 68.7211 68.7136 53.3358 68.7136 34.3643C68.7136 15.3853 53.3283 0 34.3568 0C15.3778 0 0 15.3853 0 34.3643Z" fill="white"/>
</mask>
<g mask="url(#mask5_1232_2911)">
<path d="M43.4308 17.5247C42.6971 11.4454 40.9452 5.68808 38.1826 0.230218C35.6296 -0.0767393 33.0766 -0.0767393 30.5161 0.230218C27.7535 5.68808 26.0016 11.4454 25.2679 17.5247C28.2626 17.3001 31.3022 17.1803 34.3493 17.1803C37.3965 17.1803 40.4361 17.3001 43.4308 17.5247Z" fill="white"/>
</g>
</g>
<mask id="mask6_1232_2911" style="mask-type:luminance" maskUnits="userSpaceOnUse" x="23" y="23" width="24" height="24">
<path d="M23.3812 23.0469H46.3806V46.0462H23.3812V23.0469Z" fill="white"/>
</mask>
<g mask="url(#mask6_1232_2911)">
<mask id="mask7_1232_2911" style="mask-type:luminance" maskUnits="userSpaceOnUse" x="0" y="0" width="69" height="69">
<path d="M0 34.3721C0 53.3436 15.3778 68.7289 34.3568 68.7289C53.3283 68.7289 68.7136 53.3436 68.7136 34.3721C68.7136 15.3931 53.3283 0.0078125 34.3568 0.0078125C15.3778 0.0078125 0 15.3931 0 34.3721Z" fill="white"/>
</mask>
<g mask="url(#mask7_1232_2911)">
<path d="M34.3493 24.0547C30.8081 24.0547 27.5289 24.2119 24.4593 24.4665C24.1973 27.536 24.0475 30.8227 24.0475 34.364C24.0475 37.9052 24.1973 41.1844 24.4593 44.254C27.5289 44.5086 30.8081 44.6658 34.3493 44.6658C37.8906 44.6658 41.1773 44.516 44.2469 44.254C44.5014 41.1844 44.6586 37.9052 44.6586 34.364C44.6586 30.8227 44.5014 27.536 44.2469 24.4665C41.1773 24.2119 37.8906 24.0547 34.3493 24.0547Z" fill="white"/>
</g>
</g>
<mask id="mask8_1232_2911" style="mask-type:luminance" maskUnits="userSpaceOnUse" x="23" y="49" width="22" height="20">
<path d="M23.3812 49.875H44.464V69.0037H23.3812V49.875Z" fill="white"/>
</mask>
<g mask="url(#mask8_1232_2911)">
<mask id="mask9_1232_2911" style="mask-type:luminance" maskUnits="userSpaceOnUse" x="0" y="0" width="69" height="69">
<path d="M0 34.3643C0 53.3358 15.3778 68.7211 34.3568 68.7211C53.3283 68.7211 68.7136 53.3358 68.7136 34.3643C68.7136 15.3853 53.3283 0 34.3568 0C15.3778 0 0 15.3853 0 34.3643Z" fill="white"/>
</mask>
<g mask="url(#mask9_1232_2911)">
<path d="M25.2679 51.1875C26.0016 57.2593 27.7535 63.0241 30.5161 68.482C33.0691 68.7889 35.6296 68.7889 38.1825 68.482C40.9452 63.0241 42.6971 57.2593 43.4308 51.1875C40.4361 51.4121 37.3964 51.5319 34.3493 51.5319C31.3022 51.5319 28.2626 51.4121 25.2679 51.1875Z" fill="white"/>
</g>
</g>
<mask id="mask10_1232_2911" style="mask-type:luminance" maskUnits="userSpaceOnUse" x="2" y="46" width="22" height="22">
<path d="M2.29938 46.0469H23.3821V67.1296H2.29938V46.0469Z" fill="white"/>
</mask>
<g mask="url(#mask10_1232_2911)">
<mask id="mask11_1232_2911" style="mask-type:luminance" maskUnits="userSpaceOnUse" x="0" y="0" width="69" height="69">
<path d="M0.000976562 34.3721C0.000976562 53.3436 15.3788 68.7289 34.3578 68.7289C53.3293 68.7289 68.7146 53.3436 68.7146 34.3721C68.7146 15.3931 53.3293 0.0078125 34.3578 0.0078125C15.3788 0.0078125 0.000976562 15.3931 0.000976562 34.3721Z" fill="white"/>
</mask>
<g mask="url(#mask11_1232_2911)">
<path d="M2.30692 46.6484C3.17538 48.8945 4.26096 51.0207 5.57864 53.0421C6.88882 55.0561 8.39367 56.9128 10.0932 58.6198C11.8001 60.3193 13.6569 61.8241 15.6708 63.1343C17.6922 64.452 19.8185 65.5376 22.0645 66.406C20.2003 61.2327 18.9276 55.9246 18.2463 50.4667C12.7884 49.7854 7.48028 48.5126 2.30692 46.6484Z" fill="white"/>
</g>
</g>
<mask id="mask12_1232_2911" style="mask-type:luminance" maskUnits="userSpaceOnUse" x="46" y="46" width="22" height="22">
<path d="M46.3806 46.0469H67.4633V67.1296H46.3806V46.0469Z" fill="white"/>
</mask>
<g mask="url(#mask12_1232_2911)">
<mask id="mask13_1232_2911" style="mask-type:luminance" maskUnits="userSpaceOnUse" x="0" y="0" width="69" height="69">
<path d="M0 34.3721C0 53.3436 15.3778 68.7289 34.3568 68.7289C53.3283 68.7289 68.7136 53.3436 68.7136 34.3721C68.7136 15.3931 53.3283 0.0078125 34.3568 0.0078125C15.3778 0.0078125 0 15.3931 0 34.3721Z" fill="white"/>
</mask>
<g mask="url(#mask13_1232_2911)">
<path d="M46.6351 66.406C48.8811 65.5376 51.0149 64.452 53.0288 63.1343C55.0427 61.8241 56.907 60.3193 58.6065 58.6198C60.306 56.9128 61.8108 55.0561 63.121 53.0421C64.4387 51.0207 65.5242 48.8945 66.3927 46.6484C61.2193 48.5126 55.9112 49.7854 50.4534 50.4667C49.7721 55.9246 48.4993 61.2327 46.6351 66.406Z" fill="white"/>
</g>
</g>
<mask id="mask14_1232_2911" style="mask-type:luminance" maskUnits="userSpaceOnUse" x="2" y="1" width="22" height="23">
<path d="M2.29938 1.95312H23.3821V23.0359H2.29938V1.95312Z" fill="white"/>
</mask>
<g mask="url(#mask14_1232_2911)">
<mask id="mask15_1232_2911" style="mask-type:luminance" maskUnits="userSpaceOnUse" x="0" y="0" width="69" height="69">
<path d="M0.000976562 34.3643C0.000976562 53.3358 15.3788 68.7211 34.3578 68.7211C53.3293 68.7211 68.7146 53.3358 68.7146 34.3643C68.7146 15.3853 53.3293 0 34.3578 0C15.3788 0 0.000976562 15.3853 0.000976562 34.3643Z" fill="white"/>
</mask>
<g mask="url(#mask15_1232_2911)">
<path d="M2.30692 22.0701C7.48028 20.2059 12.7884 18.9331 18.2463 18.2518C18.9276 12.794 20.2003 7.48586 22.0645 2.3125C19.8185 3.18097 17.6922 4.26655 15.6708 5.58422C13.6569 6.89441 11.8001 8.39925 10.0932 10.0987C8.39367 11.7982 6.88882 13.6625 5.57864 15.6764C4.26096 17.6903 3.17538 19.8241 2.30692 22.0701Z" fill="white"/>
</g>
</g>
<mask id="mask16_1232_2911" style="mask-type:luminance" maskUnits="userSpaceOnUse" x="46" y="1" width="22" height="23">
<path d="M46.3806 1.95312H67.4633V23.0359H46.3806V1.95312Z" fill="white"/>
</mask>
<g mask="url(#mask16_1232_2911)">
<mask id="mask17_1232_2911" style="mask-type:luminance" maskUnits="userSpaceOnUse" x="0" y="0" width="69" height="69">
<path d="M0 34.3643C0 53.3358 15.3778 68.7211 34.3568 68.7211C53.3283 68.7211 68.7136 53.3358 68.7136 34.3643C68.7136 15.3853 53.3283 0 34.3568 0C15.3778 0 0 15.3853 0 34.3643Z" fill="white"/>
</mask>
<g mask="url(#mask17_1232_2911)">
<path d="M66.3927 22.0701C65.5242 19.8241 64.4387 17.6903 63.121 15.6764C61.8108 13.6625 60.306 11.7982 58.6065 10.0987C56.907 8.39925 55.0427 6.89441 53.0288 5.58422C51.0149 4.26655 48.8811 3.18097 46.6351 2.3125C48.4993 7.48586 49.7721 12.794 50.4534 18.2518C55.9112 18.9331 61.2193 20.2059 66.3927 22.0701Z" fill="white"/>
</g>
</g>
</svg>
