<svg width="73" height="58" viewBox="0 0 73 58" fill="none" xmlns="http://www.w3.org/2000/svg">
<mask id="mask0_1195_9183" style="mask-type:luminance" maskUnits="userSpaceOnUse" x="-1" y="0" width="74" height="58">
<path d="M-1 0H72.32V57.504H-1V0Z" fill="white"/>
</mask>
<g mask="url(#mask0_1195_9183)">
<path d="M60.0236 18.8467C62.0858 16.8251 63.2314 14.1296 63.2314 11.2282C63.2314 4.93866 58.1906 0.015625 51.7942 0.015625C48.3764 0.015625 44.9396 1.588 42.8774 4.26478C40.8344 2.93575 38.314 2.26187 35.7937 2.26187C33.0442 2.26187 30.5429 2.93575 28.4808 4.26478C26.4186 1.588 23.0009 0.015625 19.564 0.015625C13.1676 0.015625 8.14591 4.93866 8.14591 11.2282C8.14591 14.1296 9.27244 16.8251 11.3346 18.8467C4.25078 21.2988 -1 28.0189 -1 35.862V40.3545C-1 44.1544 1.95953 47.0746 5.85466 47.0746H12.9384V49.3208C12.9384 53.1207 15.9171 56.0408 19.7931 56.0408H51.7942C55.6894 56.0408 58.6489 53.1207 58.6489 49.3208V47.0746H65.5035C69.3987 47.0746 72.3773 44.1544 72.3773 40.3545V35.862C72.3773 28.0189 67.1074 21.2988 60.0236 18.8467ZM51.7942 4.48941C55.6894 4.48941 58.6489 7.40953 58.6489 11.2282C58.6489 15.0281 55.6894 17.9482 51.7942 17.9482C50.8777 17.9482 50.1903 17.7236 49.2738 17.4989C49.2738 16.8251 49.503 16.3758 49.503 15.7019C49.503 12.5572 48.3764 9.43116 46.3143 7.18491C47.6891 5.61253 49.7321 4.48941 51.7942 4.48941ZM44.9396 15.7019C44.9396 20.625 40.8344 24.6682 35.7937 24.6682C30.772 24.6682 26.6478 20.625 26.6478 15.7019C26.6478 10.7789 30.772 6.73566 35.7937 6.73566C40.8344 6.73566 44.9396 10.7789 44.9396 15.7019ZM19.564 4.48941C21.8552 4.48941 23.9174 5.61253 25.0439 7.40953C23.23 9.65578 22.0843 12.5572 22.0843 15.7019C22.0843 16.3758 22.0844 16.8251 22.3135 17.4989C21.397 17.7236 20.4805 17.9482 19.564 17.9482C15.6879 17.9482 12.7093 15.0281 12.7093 11.2282C12.7093 7.40953 15.6879 4.48941 19.564 4.48941ZM3.56341 40.3545V35.862C3.56341 28.4681 9.73069 22.422 17.2727 22.422H23.9173C24.6047 23.7697 25.5021 24.8928 26.6478 25.7913C19.3348 28.2435 13.8549 34.7576 12.9384 42.6008H5.85466C4.47991 42.6008 3.56341 41.7023 3.56341 40.3545ZM54.0855 49.3208C54.0855 50.6686 53.169 51.5671 51.7942 51.5671H19.7931C18.4183 51.5671 17.5018 50.6686 17.5018 49.3208V44.8283C17.5018 36.0867 24.6047 29.142 33.5024 29.142H38.0849C47.0017 29.142 54.0855 36.0867 54.0855 44.8283V49.3208ZM67.7948 40.3545C67.7948 41.7023 66.8783 42.6008 65.5035 42.6008H58.4198C57.5033 34.7576 52.0233 28.2435 44.7104 25.7913C45.8561 24.8928 46.7726 23.7697 47.4599 22.422H54.0855C61.6275 22.422 67.7948 28.4681 67.7948 35.862V40.3545Z" fill="white"/>
</g>
</svg>
