<svg width="455" height="434" viewBox="0 0 455 434" fill="none" xmlns="http://www.w3.org/2000/svg">
<g clip-path="url(#clip0_1073_2742)">
<path d="M422.415 352.196C422.368 352.169 422.368 352.107 422.342 352.081C420.373 353.763 418.337 355.404 416.175 356.883C415.686 357.253 415.186 357.43 414.696 357.508C398.092 363.909 383.191 362.456 371.081 347.659C368.67 344.732 366.587 341.654 364.722 338.446C368.467 350.659 375.576 361.008 387.3 363.565C401.259 366.628 411.43 365.149 421.144 353.899C421.634 353.336 422.003 352.789 422.415 352.196ZM447.029 281.706C447.519 268.753 446.456 251.529 436.029 242.097C423.79 230.992 410.467 224.768 394.634 233.638C372.222 246.133 361.899 276.248 362.535 301.117C362.847 313.669 364.946 327.258 372.384 337.768C376.05 342.94 380.634 348.31 386.368 351.268C396.884 356.69 403.076 354.534 412.654 350.722C433.904 336.008 446.087 307.102 447.029 281.706ZM453.993 269.654C455.269 290.914 450.05 314.185 438.498 332.904C438.753 333.701 438.649 334.633 438.014 335.581C434.066 341.539 434.186 349.612 429.363 355.185C424.352 360.982 419.753 366.628 413.191 370.696C403.759 376.55 386.623 370.946 377.128 367.737C355.456 360.435 352.467 319.951 355.482 301.513C355.514 301.425 355.545 301.367 355.571 301.279C355.482 271.367 366.915 239.097 394.785 225.727C424.649 211.388 452.311 241.076 453.993 269.654Z" fill="white"/>
<path d="M117.996 74.4115C118.189 52.4427 123.022 31.8177 127.121 10.3646C113.011 8.57292 98.8656 7.09896 84.4073 7.09896C74.6312 7.09896 55.9177 5.30729 50.0896 16.1146C49.35 17.474 48.6729 18.8646 48.0218 20.2865C48.0218 20.6562 48.0062 21.026 47.8448 21.4531C46.3031 26.2292 44.3239 33.3542 43.0948 41.026C43.1833 44.6667 43.8656 48.3333 45.3448 51.9115C50.4593 64.3854 57.5843 66.651 70.3135 68.4219C80.6937 69.875 91.251 71.1719 101.631 72.5052C107.084 73.2448 112.543 73.8229 117.996 74.4115ZM144.017 12.5521C140.72 12.1094 137.454 11.6823 134.157 11.25C130.105 32.5573 125.183 53.2396 125.095 75.0625C127.517 75.2708 129.985 75.5208 132.428 75.7448C132.454 75.6823 132.454 75.6094 132.454 75.5521C136.032 64.2708 135.517 51.1094 137.85 39.3281C139.73 30 141.491 21.5104 144.017 12.5521ZM193.22 190.562C188.772 181.042 183.506 170.5 177.09 162.234C170.777 154.089 165.22 143.651 158.168 136.302C151.142 128.995 143.173 123.677 135.1 117.599C131.939 115.188 128.506 114.021 125.064 112.969C137.204 129.411 152.991 143.854 166.064 159.083C175.183 169.688 184.423 179.901 193.22 190.562ZM183.907 194.167C186.433 196.104 189.261 198.354 192.189 200.302C180.183 184.484 166.772 168.146 152.371 154.87C143.454 146.604 137.261 136.979 129.246 127.828C127.59 125.922 125.892 124.016 124.162 122.094C132.34 139.479 147.506 156.318 159.454 169.255C167.407 177.891 174.595 187.01 183.907 194.167ZM194.787 209.99C187.944 207.458 181.277 201.016 176.235 197.214C166.579 189.969 159.48 179.339 151.35 170.469C136.834 154.677 118.704 133.771 113.131 112.542C98.4229 127.917 89.4021 151.292 95.126 170.615C98.0218 180.417 107.235 200.052 115.261 206.557C127.428 216.391 148.824 217.068 163.621 217.25C174.845 217.411 185.694 215.531 194.787 209.99ZM207.428 197.984C217.037 184.026 218.918 166.755 218.709 150.302C218.314 118.62 192.261 100.062 163.709 96.5156C157.204 96.5469 150.699 96.5469 144.241 96.3802C140.59 96.8281 136.98 97.5052 133.475 98.4219C129.616 99.901 125.86 102.031 122.282 104.589C126.912 106.172 132.058 106.438 136.064 109.469C141.147 113.312 146.235 117.172 151.543 120.703C163.532 128.729 168.558 141.521 177.949 151.839C186.215 160.932 192.866 173.083 198.027 184.146C200.642 189.792 204.027 195.453 204.621 201.562C205.595 200.453 206.527 199.255 207.428 197.984ZM225.824 166.417C225.824 165.073 225.761 163.828 225.735 162.573C225.616 162.604 225.423 162.573 225.303 162.604C222.319 194.688 205.506 224.938 168.251 224.401C160.694 224.312 150.496 224.401 140.501 223.266C140.501 223.604 140.501 223.917 140.501 224.125C147.152 226.682 154.251 228.099 161.553 228.099C176.131 228.099 197.376 223.917 208.064 212.667C219.319 200.823 225.824 182.354 225.824 166.417ZM231.439 81.2292C231.308 81.0052 231.277 80.7552 231.189 80.5469C228.543 83.2812 225.199 85.1458 221.048 85.5729C220.897 85.6354 220.793 85.6927 220.647 85.6927C186.73 85.6927 156.006 86.0625 124.105 82.4271C109.439 80.7552 94.5166 78.7604 79.8656 76.849C69.8135 75.5208 59.0062 75.151 49.751 70.776C47.5896 69.724 45.7458 68.276 44.1468 66.5469C44.0114 66.8281 43.8656 67.0781 43.6573 67.3281C45.6521 73.4219 49.501 78.1094 56.225 79.8958C66.3083 82.5417 76.9073 79.8073 86.9906 82.3385C97.1937 84.8958 109.36 86.0625 119.886 87.4792C128.256 88.5885 136.803 89.0469 145.334 89.2396C151.439 88.6771 157.829 88.7656 164.168 89.4479C174.621 89.7292 185.386 91.4271 195.616 91.1771C209.277 90.8073 224.032 94.3281 231.439 81.2292ZM220.157 78.5938C230.939 78.0469 234.574 57.1146 234.235 49.3542C233.803 38.5573 226.105 25.224 214.392 22.724C198.605 19.3542 181.751 16.7344 165.678 15.1406C160.814 14.6354 155.98 14.0625 151.142 13.4375C148.142 23.9531 146.235 34.2708 143.928 45.0938C141.699 55.4583 142.511 66.0885 139.61 76.2292C166.329 78.1354 193.09 78.5938 220.157 78.5938ZM240.001 38.5573C246.933 55.6927 245.798 98.0208 218.86 98.0208C209.985 98.0208 201.204 97.5938 192.439 97.1667C205.569 103.302 216.48 112.911 221.845 126.203C231.59 143.281 233.657 156.557 232.918 176.693C232.428 191.021 220.735 211.526 209.767 220.365C181.037 243.49 136.98 239.115 112.303 213.625C111.949 213.24 111.741 212.87 111.564 212.5C100.402 202.214 91.3396 183.688 87.5114 169.656C79.9854 142.172 99.8708 108.786 124.194 95.0938C123.246 94.9792 122.282 94.875 121.34 94.7552C106.142 92.7135 90.126 88.2812 74.751 88.2812C64.3552 88.2812 51.1677 89.151 43.7458 80.1198C34.3135 68.5885 33.751 52.9583 36.3083 38.1875C36.5896 32.0833 37.7614 26.3177 39.4593 22.1354C42.2979 15.2604 45.1937 5.64583 53.2406 3.20833C63.8396 0.0312493 73.4229 0 84.376 0C106.168 0 127.194 2.21875 148.631 5.79688C160.475 7.76042 172.746 9.48958 184.678 10.7917C194.256 11.8438 207.121 12.2708 216.272 15.8802C226.902 20.0312 235.256 27.5313 239.116 37.2708C239.485 37.6146 239.761 38.0417 240.001 38.5573Z" fill="white"/>
<path d="M167.54 329.211C182.399 322.086 189.436 302.971 180.149 288.331C172.227 275.857 152.561 269.07 139.462 274.555C127.253 279.049 115.706 290.153 114.285 302.424C114.342 302.883 114.342 303.367 114.18 303.93C114.154 304.018 114.154 304.107 114.123 304.211C113.946 309.976 116.029 315.95 121.399 321.57C125.743 326.065 132.753 334.164 138.946 335.523C149.415 337.805 158.446 333.56 167.54 329.211ZM159.498 343.659C171.029 338.883 197.389 328.711 190.206 310.685C187.571 324.153 177.623 333.367 161.816 339.445C150.285 343.877 140.175 345.388 129.41 338.393C126.081 336.237 122.357 333.247 118.925 329.82C118.811 330.013 118.691 330.19 118.529 330.351C121.128 334.164 124.607 337.404 129.008 339.534C138.535 344.159 149.014 348.002 159.498 343.659ZM182.472 279.075C191.493 287.034 200.128 307.289 197.597 318.299C193.503 336.237 178.243 345.388 161.42 350.502C131.17 359.7 99.602 334.357 107.279 302.424C108.462 286.206 122.019 273.471 137.587 267.706C151.144 262.044 171.399 267.31 182.472 279.075Z" fill="white"/>
<path d="M341.266 211.5C341.297 211.276 341.401 211.099 341.49 210.88C323.454 197.687 302.62 187.297 280.058 186.75C280 186.807 279.969 186.896 279.896 186.984C279.349 187.698 278.667 188.125 277.959 188.344C269.579 202.922 265.261 224.005 260.735 239.828C257.584 250.885 250.594 260.541 251.11 272.531C251.568 284.094 263.162 293.495 274.261 293.64C286.105 293.833 307.058 295.12 313.355 282.552C317.657 273.89 321.459 265.135 325.521 256.338C332.25 241.984 335.547 226.135 341.266 211.5ZM361.776 155.479C365.323 144.76 368.959 124.698 362.485 114.052C354.901 101.573 340.631 96.8591 326.599 99.7237C308.386 103.453 300.183 128.026 295.464 143.505C292.021 154.932 289.667 168.651 284.125 179.844C306.125 181.38 326.573 191.333 344.36 204.255C347.136 196.359 348.23 187.916 351.235 180.052C354.443 171.698 358.964 163.995 361.776 155.479ZM346.636 93.4112C368.308 101.974 374.901 118.192 372.344 141.005C370.839 154.338 365.131 165.724 359.865 177.864C354.75 189.604 353.818 202.583 347.875 213.864C338.74 236.531 332.547 259.979 321.516 282.021C314.151 296.76 307.542 296.791 292.698 300.088C284.183 301.995 272.329 302.161 264.089 299.067C244.605 291.765 239.74 271.453 247.563 253.781C253.297 240.906 257.823 227.01 261.875 213.541C265.099 202.745 267.136 191.984 273.271 182.375C273.615 181.812 274.073 181.442 274.542 181.161C274.87 180.614 275.37 180.14 276.021 179.875C282.615 168.625 284.552 153.677 288.662 141.609C291.99 131.75 294.974 122.88 300.344 114.052C310.042 98.0987 326.719 85.5466 346.636 93.4112Z" fill="white"/>
<path d="M106.3 414.875C106.196 414.682 106.139 414.505 106.05 414.281C77.8421 435.646 24.6755 403.708 7.49318 365.151C8.39943 374.76 11.5765 383.943 18.5713 391.13C25.9046 398.682 34.4776 405.073 43.2015 410.896C54.1703 418.198 70.5661 427.604 84.0817 427.042C93.0088 426.641 100.905 421.776 106.3 414.875ZM113.472 390.391C113.353 389.474 113.238 388.573 113.014 387.656C112.733 386.474 113.014 385.495 113.608 384.755C112.957 361.635 100.165 338.479 83.5505 322.943C65.6755 306.177 24.7953 291.005 12.863 324.021C2.6286 352.38 22.738 384.594 46.1598 400.651C56.7901 407.922 69.5609 414.594 82.8682 413.88C100.077 412.979 108.577 406.177 113.472 390.391ZM75.3109 307.135C101.274 325.349 122.535 357.625 120.629 390.271C120.66 390.505 120.66 390.76 120.629 391.042C121.649 404.792 115.233 420.844 103.3 428.297C87.0661 438.484 70.9671 433.026 55.0869 425.224C37.9203 416.75 21.1546 406.12 9.30047 390.729C-1.56932 376.745 -1.31411 357.938 2.05568 341.198C2.05568 336.068 2.85256 331 4.61297 326.063C15.363 296.255 49.9151 289.323 75.3109 307.135Z" fill="white"/>
</g>
<defs>
<clipPath id="clip0_1073_2742">
<rect width="455" height="434" fill="white"/>
</clipPath>
</defs>
</svg>
