<svg width="80" height="54" viewBox="0 0 80 54" fill="none" xmlns="http://www.w3.org/2000/svg">
<path d="M59.9162 10.8588C58.6751 10.1475 57.2049 10.6155 56.4602 11.5888C55.7346 12.7868 56.2311 14.2469 57.2049 14.9582C67.0572 20.761 73.2054 30.6445 73.9501 41.5201H56.7084C56.2311 37.8887 54.99 34.276 52.7751 31.1312C52.0305 30.1765 50.5602 29.6899 49.3382 30.6445C48.3454 31.3746 47.8489 32.8159 48.8418 34.0326C51.0567 36.934 52.0305 40.3034 52.0305 43.9348C52.0305 45.3762 53.0233 46.3308 54.4935 46.3308H76.6614C78.1316 46.3308 79.1054 45.3762 79.1054 43.9348C79.1054 30.1765 71.9834 17.8596 59.9162 10.8588Z" fill="white"/>
<mask id="mask0_1196_2741" style="mask-type:luminance" maskUnits="userSpaceOnUse" x="0" y="0" width="56" height="54">
<path d="M0 0H55.3719V53.91H0V0Z" fill="white"/>
</mask>
<g mask="url(#mask0_1196_2741)">
<path d="M2.80678 46.3308H15.1223C16.5925 46.3308 17.5853 45.3761 17.5853 43.9348C17.5853 34.5193 25.2038 27.0318 34.8079 27.0318C36.5263 27.0318 38.0157 27.2751 39.4859 27.7618L35.0561 39.1054H34.8079C30.6264 39.1054 27.4186 42.2314 27.4186 46.3308C27.4186 50.4489 30.6264 53.5749 34.8079 53.5749C38.9894 53.5749 42.1972 50.4489 42.1972 46.3308C42.1972 44.1594 41.2043 42.2314 39.4859 40.79L54.2453 3.63332C54.7418 2.4166 54.0162 0.975252 52.7751 0.488567C51.5531 0.0018774 50.0638 0.731911 49.5674 1.92991L47.8489 6.02932C45.3858 5.56135 42.4454 5.31801 39.7341 5.31801C28.9079 5.31801 19.0556 9.66075 11.9145 16.6616C4.77344 23.6624 0.343689 33.3025 0.343689 43.9348C0.343689 45.3761 1.33656 46.3308 2.80678 46.3308ZM34.8079 48.7455C33.3377 48.7455 32.3448 47.7909 32.3448 46.3308C32.3448 44.8894 33.3377 43.9348 34.8079 43.9348C36.2781 43.9348 37.271 44.8894 37.271 46.3308C37.271 47.7909 36.2781 48.7455 34.8079 48.7455ZM46.3787 10.8588L41.4525 23.1757C39.2377 22.4457 37.0228 22.2023 34.8079 22.2023C30.8746 22.2023 27.1704 23.1757 23.9818 25.1037L17.3371 18.5896C23.2371 13.2735 31.1228 10.1474 39.7341 10.1474C41.949 10.1474 44.1638 10.3908 46.3787 10.8588ZM13.6329 21.7156L19.8002 27.7618C15.8478 31.1312 13.3847 35.9606 12.6592 41.2767H5.26988C6.01453 34.0326 8.95497 27.2751 13.6329 21.7156Z" fill="white"/>
</g>
</svg>
