<svg width="62" height="61" viewBox="0 0 62 61" fill="none" xmlns="http://www.w3.org/2000/svg">
<mask id="mask0_1229_2742" style="mask-type:luminance" maskUnits="userSpaceOnUse" x="0" y="0" width="62" height="46">
<path d="M0 0H61.6V45.8296H0V0Z" fill="white"/>
</mask>
<g mask="url(#mask0_1229_2742)">
<path d="M54.97 11.4093H48.3736V1.91503C48.3736 0.864885 47.3887 0.015625 46.1759 0.015625H15.392C14.1776 0.015625 13.1927 0.864885 13.1927 1.91503V11.4093H6.59633C2.95969 11.4093 0 13.9654 0 17.1061V39.8935C0 43.0342 2.95969 45.5903 6.59633 45.5903H8.79565V41.7929H6.59633C5.38519 41.7929 4.39862 40.9422 4.39862 39.8935V17.1061C4.39862 16.0588 5.38519 15.2067 6.59633 15.2067H54.97C56.1827 15.2067 57.1693 16.0588 57.1693 17.1061V39.8935C57.1693 40.9422 56.1827 41.7929 54.97 41.7929H52.7723V45.5903H54.97C58.6066 45.5903 61.5663 43.0342 61.5663 39.8935V17.1061C61.5663 13.9654 58.6066 11.4093 54.97 11.4093ZM17.5913 11.4093V3.81305H43.9766V11.4093H17.5913Z" fill="white"/>
</g>
<mask id="mask1_1229_2742" style="mask-type:luminance" maskUnits="userSpaceOnUse" x="8" y="34" width="46" height="27">
<path d="M8.4043 34.125H53.167V60.9134H8.4043V34.125Z" fill="white"/>
</mask>
<g mask="url(#mask1_1229_2742)">
<path d="M52.7723 37.9941V34.1953H8.79572V37.9941H13.1927V58.8821C13.1927 59.9322 14.1777 60.7815 15.392 60.7815H46.176C47.3888 60.7815 48.3737 59.9322 48.3737 58.8821V37.9941H52.7723ZM43.9767 56.9826H17.5914V37.9941H43.9767V56.9826Z" fill="white"/>
</g>
<path d="M48.374 19.0078H52.7726V22.8052H48.374V19.0078Z" fill="white"/>
<path d="M21.9883 41.7891H39.5796V45.5865H21.9883V41.7891Z" fill="white"/>
<path d="M21.9883 49.3906H39.5796V53.1881H21.9883V49.3906Z" fill="white"/>
</svg>
