<svg width="74" height="69" viewBox="0 0 74 69" fill="none" xmlns="http://www.w3.org/2000/svg">
<path d="M23.2578 37.5412C22.5705 37.5412 22.1313 37.3166 21.6731 36.8674C20.7756 35.9876 20.7756 34.6586 21.6731 33.7601L30.7235 24.8874C31.64 23.9889 32.9957 23.9889 33.8931 24.8874L39.1056 29.9976L46.5904 22.6598C47.4878 21.7801 48.8435 21.7801 49.76 22.6598C50.6574 23.5583 50.6574 24.8874 49.76 25.7671L40.6904 34.6586C39.793 35.5383 38.4374 35.5383 37.5209 34.6586L32.3083 29.5483L24.8426 36.8674C24.3844 37.3166 23.9452 37.5412 23.2578 37.5412Z" fill="white"/>
<mask id="mask0_1233_3045" style="mask-type:luminance" maskUnits="userSpaceOnUse" x="0" y="7" width="74" height="11">
<path d="M0 7.46875H73.32V17.0528H0V7.46875Z" fill="white"/>
</mask>
<g mask="url(#mask0_1233_3045)">
<path d="M70.2077 13.3113H2.27216C0.916499 13.3113 0 12.4316 0 11.1025C0 9.7735 0.916499 8.875 2.27216 8.875H70.2077C71.5634 8.875 72.4608 9.7735 72.4608 11.1025C72.4608 12.4316 71.5634 13.3113 70.2077 13.3113Z" fill="white"/>
</g>
<path d="M58.8846 51.0483H13.5943C9.73731 51.0483 6.79688 48.1657 6.79688 44.4032V11.1025C6.79688 9.7735 7.71337 8.875 9.06903 8.875H63.4098C64.7655 8.875 65.682 9.7735 65.682 11.1025V44.4032C65.682 48.1657 62.7416 51.0483 58.8846 51.0483ZM11.3221 13.3113V44.4032C11.3221 45.7322 12.2386 46.612 13.5943 46.612H58.8846C60.2403 46.612 61.1568 45.7322 61.1568 44.4032V13.3113H11.3221Z" fill="white"/>
<path d="M20.3917 68.8105C20.1626 68.8105 19.9335 68.8105 19.4752 68.5859C18.3487 68.1553 17.6804 66.8076 18.1196 65.7032L24.9169 47.9391C25.3752 46.8347 26.7309 46.1795 27.8574 46.6101C28.9839 47.0593 29.6713 48.3883 29.213 49.4927L22.4348 67.2568C22.2056 68.3612 21.2891 68.8105 20.3917 68.8105Z" fill="white"/>
<path d="M52.0882 68.812C51.1908 68.812 50.2743 68.3628 50.0452 67.483L43.2669 49.7189C42.8087 48.6145 43.4769 47.2855 44.6226 46.8362C45.7491 46.387 47.1048 47.0608 47.563 48.1652L54.3604 65.9293C54.7995 67.0337 54.1313 68.3628 53.0047 68.812C52.5465 68.812 52.3173 68.812 52.0882 68.812Z" fill="white"/>
<mask id="mask1_1233_3045" style="mask-type:luminance" maskUnits="userSpaceOnUse" x="32" y="0" width="11" height="18">
<path d="M32.3066 0H42.0826V17.0528H32.3066V0Z" fill="white"/>
</mask>
<g mask="url(#mask1_1233_3045)">
<path d="M36.2399 13.3112C34.8843 13.3112 33.9678 12.4314 33.9678 11.1023V4.43847C33.9678 3.10944 34.8843 2.21094 36.2399 2.21094C37.5956 2.21094 38.5121 3.10944 38.5121 4.43847V11.1023C38.5121 12.4314 37.5956 13.3112 36.2399 13.3112Z" fill="white"/>
</g>
</svg>
