<svg width="402" height="402" viewBox="0 0 402 402" fill="none" xmlns="http://www.w3.org/2000/svg">
<g clip-path="url(#clip0_1073_2761)">
<mask id="mask0_1073_2761" style="mask-type:luminance" maskUnits="userSpaceOnUse" x="0" y="0" width="402" height="402">
<path d="M0 0H402V402H0V0Z" fill="white"/>
</mask>
<g mask="url(#mask0_1073_2761)">
<path d="M384.786 183.081C378.969 181.523 372.87 182.331 367.63 185.357C362.391 188.378 358.641 193.253 357.083 199.065L354.995 206.857C344.26 205.898 333.932 212.862 331.073 223.518L328.677 232.466C318.323 232.081 308.755 238.904 306 249.211L298.719 276.367C292.068 282.018 285.516 287.357 276.76 292.133C251.213 306.049 238.213 327.31 239.167 353.612C239.703 368.284 237.802 381.023 232.995 394.893C232.469 396.414 232.713 398.107 233.646 399.424C234.588 400.742 236.104 401.523 237.719 401.523H295.302C297.229 401.523 298.974 400.424 299.807 398.69C312.786 371.701 329.161 349.331 351.328 328.289C359.026 320.982 365.333 312.466 370.614 302.279C378.359 287.299 384.849 270.164 389.901 251.336L400.771 210.758C403.995 198.711 396.823 186.279 384.776 183.055L384.786 183.081ZM340.729 226.117C342.172 220.753 346.995 217.07 352.328 216.794L342.266 254.341C339.281 253.727 336.224 253.648 333.234 254.091L340.729 226.117ZM325.958 242.612L321.63 258.773C318.156 260.914 314.979 263.148 312.005 265.414L315.646 251.82C316.969 246.862 321.13 243.352 325.953 242.622L325.958 242.612ZM391.125 208.195L380.25 248.779C375.396 266.914 369.161 283.378 361.75 297.711C356.995 306.904 351.333 314.539 344.463 321.065C322.172 342.227 305.5 364.69 292.193 391.549H244.568C248.193 378.997 249.667 366.669 249.177 353.273C248.151 325.148 266.219 309.284 281.557 300.93C292.146 295.164 299.859 288.576 307.318 282.211C314.161 276.367 320.63 270.846 329.219 265.888C333.63 263.341 339.057 263.117 343.729 265.273C345.312 266.008 346.302 267.18 346.755 268.872C347.203 270.555 346.937 272.07 345.927 273.497C340.656 280.982 335.625 287.023 329.109 293.69C326.87 295.982 324.469 298.32 322.151 300.581C312.974 309.523 303.474 318.773 297.818 330.57C296.625 333.06 297.677 336.044 300.161 337.232C302.651 338.424 305.63 337.383 306.823 334.893C311.724 324.695 320.568 316.076 329.125 307.737C331.489 305.435 333.932 303.055 336.255 300.669C343.073 293.695 348.568 287.091 354.094 279.242C356.792 275.409 357.609 270.805 356.401 266.273C355.568 263.159 353.875 260.482 351.521 258.482L366.75 201.659C367.614 198.419 369.703 195.701 372.635 194.008C375.568 192.32 378.969 191.862 382.203 192.727C388.927 194.529 392.932 201.466 391.125 208.19V208.195ZM162.375 353.628C163.333 327.32 150.338 306.06 124.786 292.148C116.031 287.372 109.474 282.034 102.828 276.388L95.5467 249.227C92.7811 238.919 83.2238 232.096 72.8697 232.482L70.4686 223.534C67.6144 212.878 57.2811 205.914 46.5519 206.872L44.4582 199.086C42.9009 193.268 39.1561 188.393 33.9113 185.372C28.6665 182.346 22.5728 181.529 16.7603 183.096C4.7134 186.331 -2.45848 198.753 0.765485 210.799L11.6353 251.378C16.6874 270.206 23.1665 287.352 30.9217 302.32C36.1978 312.518 42.5103 321.023 50.2082 328.331C72.3749 349.362 88.7499 371.742 101.729 398.732C102.562 400.466 104.307 401.565 106.234 401.565H163.818C165.432 401.565 166.948 400.784 167.89 399.466C168.823 398.148 169.073 396.456 168.542 394.935C163.739 381.055 161.833 368.326 162.364 353.654L162.375 353.628ZM85.8905 251.81L89.5311 265.404C86.5572 263.138 83.3905 260.909 79.9061 258.768L75.578 242.612C80.3905 243.352 84.5467 246.852 85.8801 251.81H85.8905ZM60.8124 226.117L68.3124 254.091C65.3228 253.648 62.2655 253.727 59.2811 254.341L49.2186 216.794C54.5415 217.081 59.3801 220.753 60.8124 226.117ZM109.359 391.549C96.0519 364.69 79.3853 342.227 57.0884 321.065C50.2082 314.534 44.5624 306.893 39.8019 297.711C32.3801 283.378 26.1561 266.904 21.3019 248.779L10.4269 208.195C8.63007 201.477 12.6301 194.544 19.3488 192.737C22.5936 191.867 25.9894 192.32 28.9165 194.018C31.8488 195.711 33.9374 198.424 34.8072 201.664L50.0363 258.492C47.6769 260.492 45.9842 263.164 45.1509 266.279C43.9374 270.81 44.7499 275.419 47.4582 279.253C52.9842 287.102 58.4894 293.706 65.2967 300.68C67.6197 303.06 70.0624 305.445 72.4269 307.742C80.9842 316.081 89.828 324.706 94.729 334.904C95.9217 337.393 98.9113 338.44 101.396 337.242C103.885 336.049 104.932 333.06 103.734 330.576C98.078 318.784 88.5832 309.534 79.4009 300.586C77.0832 298.331 74.6874 295.987 72.4426 293.695C65.9374 287.034 60.9061 280.992 55.6249 273.503C54.6144 272.081 54.3488 270.56 54.7967 268.878C55.2499 267.195 56.2394 266.013 57.8228 265.279C62.4947 263.122 67.9217 263.346 72.3332 265.898C80.9269 270.852 87.3905 276.378 94.2394 282.216C101.693 288.581 109.406 295.164 119.995 300.935C135.333 309.294 153.396 325.154 152.38 353.279C151.896 366.674 153.359 379.003 156.984 391.56H109.359V391.549ZM289.521 254.883V225.857C289.521 213.206 282.396 201.659 271.391 195.799C272.484 193.32 273.203 190.628 273.458 187.82C295.885 167.393 308.739 138.31 308.739 107.987C308.739 48.4453 260.302 0.0078125 200.765 0.0078125C141.224 0.0078125 92.7967 48.4349 92.7967 107.977C92.7967 138.299 105.661 167.383 128.078 187.81C128.333 190.628 129.052 193.31 130.146 195.799C119.146 201.659 112.015 213.237 112.015 225.857V254.883C112.015 257.643 114.255 259.883 117.015 259.883H190.823C193.583 259.883 195.823 257.643 195.823 254.883V225.857C195.823 222.378 195.281 218.977 194.265 215.753C196.432 215.878 198.599 215.956 200.765 215.956C202.932 215.956 205.104 215.878 207.271 215.753C206.255 218.977 205.713 222.378 205.713 225.857V254.883C205.713 257.643 207.953 259.883 210.713 259.883H284.521C287.281 259.883 289.521 257.643 289.521 254.883ZM231.656 185.398C231.656 176.591 238.818 169.435 247.614 169.435C256.417 169.435 263.578 176.596 263.578 185.398C263.578 194.195 256.422 201.357 247.614 201.357C238.812 201.357 231.656 194.195 231.656 185.398ZM289.302 149.909L280.823 149.326C271.083 148.659 263.422 142.128 260.838 132.289C258.771 124.404 260.338 117.232 265.38 111.544C270.974 105.227 273.833 97.7734 273.87 89.3828C273.927 74.6797 276.927 63.2161 280.901 51.6589C292.135 67.6068 298.745 87.0339 298.745 107.977C298.745 122.607 295.443 136.919 289.297 149.909H289.302ZM163.698 17.2891C163.781 17.3776 163.849 17.4818 163.943 17.5703L185.344 37.6589C191.375 43.3151 198.625 46.2318 206.896 46.3307C215.667 46.4297 219.625 56.5911 220.151 63.3984C220.568 68.7734 219.151 74.8724 215.078 75.5547L203.604 77.4609C194.989 78.8932 187.911 82.6953 181.937 89.0651C175.182 96.2786 163.167 99.5443 154.578 96.5078C148.328 94.2891 144.724 89.0234 144.167 81.2682C143.531 72.5443 139.443 65.3047 132.932 61.4141C129.292 59.2422 123.755 57.3932 116.125 58.6901C126.943 40.1797 143.672 25.5182 163.693 17.2943L163.698 17.2891ZM113.224 151.904L122.161 143.565C130 136.263 140.042 133.68 150.427 136.294C151.51 136.57 152.562 136.852 153.588 137.128C160.443 138.966 166.922 140.701 175.396 138.169L188.708 134.18C196.656 131.794 205.396 138.784 208.271 146.56C209.901 150.966 211.026 159.081 200.265 163.852L185.651 170.326C182.729 171.628 180.104 173.247 177.797 175.19C173.823 165.945 164.625 159.445 153.937 159.445C143.25 159.445 133.776 166.143 129.901 175.617C123.161 168.544 117.562 160.544 113.234 151.924L113.224 151.904ZM137.963 185.398C137.963 176.591 145.13 169.435 153.927 169.435C162.724 169.435 169.89 176.596 169.89 185.398C169.89 194.195 162.724 201.357 153.927 201.357C145.13 201.357 137.963 194.195 137.963 185.398ZM185.833 249.883H122.021V225.857C122.021 216.539 127.542 208.013 135.932 204.081C140.609 208.581 146.948 211.357 153.927 211.357C160.911 211.357 167.25 208.581 171.922 204.081C180.328 208.013 185.844 216.513 185.844 225.857V249.883H185.833ZM188.807 205.221C185.859 201.367 182.094 198.133 177.703 195.799C178.771 193.378 179.479 190.768 179.755 188.029C179.854 187.893 179.953 187.768 180.047 187.628C182.297 184.055 185.542 181.305 189.693 179.466L204.302 172.992C217.036 167.352 222.276 155.612 217.64 143.091C213.151 130.961 199.713 120.44 185.833 124.607L172.521 128.596C166.776 130.32 162.333 129.128 156.177 127.482C155.104 127.19 154.01 126.898 152.88 126.612C139.281 123.18 125.604 126.695 115.349 136.263L108.989 142.185C104.943 131.336 102.792 119.758 102.792 107.977C102.792 94.9141 105.37 82.4453 110.031 71.0286C110.198 70.9714 110.364 70.9141 110.531 70.8411C117.536 67.7161 123.51 67.4141 127.802 69.987C131.474 72.1901 133.807 76.5599 134.203 81.987C135.057 93.8307 141.114 102.336 151.245 105.93C154.562 107.102 158.12 107.659 161.745 107.659C171.739 107.659 182.213 103.393 189.224 95.8984C193.698 91.1224 198.792 88.3932 205.245 87.3151L216.719 85.4089C225.667 83.9193 231.057 74.763 230.12 62.6224C229.13 49.6797 220.875 36.4922 207.01 36.3307C201.239 36.2682 196.39 34.3151 192.182 30.3672L174.338 13.6224C182.745 11.263 191.609 9.9974 200.765 9.9974C229.62 9.9974 255.604 22.5443 273.552 42.4661C268.458 56.4609 263.937 70.638 263.859 89.3516C263.838 95.3151 261.885 100.414 257.891 104.919C250.63 113.102 248.239 123.732 251.156 134.826C254.807 148.742 266.177 158.346 280.125 159.305L284.031 159.57C280.484 165.305 276.344 170.685 271.641 175.607C267.771 166.133 258.453 159.435 247.609 159.435C233.297 159.435 221.651 171.086 221.651 185.398C221.651 189.096 222.432 192.612 223.833 195.799C219.458 198.133 215.693 201.367 212.745 205.221C204.838 206.18 196.693 206.18 188.792 205.221H188.807ZM279.526 249.883H215.708V225.857C215.708 216.539 221.234 208.013 229.62 204.081C234.297 208.581 240.635 211.357 247.614 211.357C254.599 211.357 260.937 208.581 265.604 204.081C274 208.013 279.526 216.513 279.526 225.857V249.883Z" fill="white"/>
</g>
</g>
<defs>
<clipPath id="clip0_1073_2761">
<rect width="402" height="402" fill="white"/>
</clipPath>
</defs>
</svg>
