<svg width="159" height="94" viewBox="0 0 159 94" fill="none" xmlns="http://www.w3.org/2000/svg">
<path d="M1.48177 12.151H19.8411V0.125H11.3828C5.91406 0.125 1.48177 4.55729 1.48177 10.0208V12.151Z" fill="#03989E"/>
<mask id="mask0_1275_2633" style="mask-type:luminance" maskUnits="userSpaceOnUse" x="0" y="0" width="22" height="14">
<path d="M21.3333 0H-5.72205e-06V13.4062H21.3333V0Z" fill="white"/>
</mask>
<g mask="url(#mask0_1275_2633)">
<mask id="mask1_1275_2633" style="mask-type:luminance" maskUnits="userSpaceOnUse" x="-1324" y="-1225" width="2304" height="3404">
<path d="M-1324 -1224.86H980V2178.34H-1324V-1224.86Z" fill="black" fill-opacity="0.3"/>
</mask>
<g mask="url(#mask1_1275_2633)">
<mask id="mask2_1275_2633" style="mask-type:luminance" maskUnits="userSpaceOnUse" x="0" y="-2" width="22" height="16">
<path d="M-6.67572e-05 -1.25781H21.3333V13.4089H-6.67572e-05V-1.25781Z" fill="white"/>
</mask>
<g mask="url(#mask2_1275_2633)">
<mask id="mask3_1275_2633" style="mask-type:luminance" maskUnits="userSpaceOnUse" x="1" y="0" width="19" height="13">
<path d="M20 0.078125H1.33329V12.6667H20V0.078125Z" fill="white"/>
</mask>
<g mask="url(#mask3_1275_2633)">
<path d="M1.47914 12.1589H19.8385V0.132812H11.3802C5.91143 0.132812 1.47914 4.5651 1.47914 10.0286V12.1589Z" fill="black"/>
</g>
</g>
</g>
</g>
<mask id="mask4_1275_2633" style="mask-type:luminance" maskUnits="userSpaceOnUse" x="142" y="78" width="17" height="16">
<path d="M158.154 78.7344H142.669V93.401H158.154V78.7344Z" fill="white"/>
</mask>
<g mask="url(#mask4_1275_2633)">
<path d="M143.279 92.2552H145.867C152.659 92.2552 158.159 86.7552 158.159 79.9688H143.279V92.2552Z" fill="#03989E"/>
</g>
<mask id="mask5_1275_2633" style="mask-type:luminance" maskUnits="userSpaceOnUse" x="141" y="78" width="18" height="16">
<path d="M158.154 78.7344H141.336V93.401H158.154V78.7344Z" fill="white"/>
</mask>
<g mask="url(#mask5_1275_2633)">
<mask id="mask6_1275_2633" style="mask-type:luminance" maskUnits="userSpaceOnUse" x="-1324" y="-1225" width="2305" height="3404">
<path d="M-1324 -1224.87H980.003V2178.33H-1324V-1224.87Z" fill="black" fill-opacity="0.3"/>
</mask>
<g mask="url(#mask6_1275_2633)">
<mask id="mask7_1275_2633" style="mask-type:luminance" maskUnits="userSpaceOnUse" x="141" y="78" width="18" height="16">
<path d="M141.336 78.7344H158.669V93.401H141.336V78.7344Z" fill="white"/>
</mask>
<g mask="url(#mask7_1275_2633)">
<mask id="mask8_1275_2633" style="mask-type:luminance" maskUnits="userSpaceOnUse" x="142" y="79" width="17" height="14">
<path d="M158.154 79.8516H142.669V92.9714H158.154V79.8516Z" fill="white"/>
</mask>
<g mask="url(#mask8_1275_2633)">
<path d="M143.279 92.2552H145.867C152.659 92.2552 158.159 86.7552 158.159 79.9688H143.279V92.2552Z" fill="black"/>
</g>
</g>
</g>
</g>
<mask id="mask9_1275_2633" style="mask-type:luminance" maskUnits="userSpaceOnUse" x="13" y="0" width="146" height="81">
<path d="M158.154 0.0703125H13.3359V80.0703H158.154V0.0703125Z" fill="white"/>
</mask>
<g mask="url(#mask9_1275_2633)">
<path d="M78.263 79.9688H158.159V64.5521C158.159 28.9688 129.315 0.125 93.7317 0.125H13.8307V15.5365C13.8307 51.1198 42.6745 79.9688 78.263 79.9688Z" fill="#03989E"/>
</g>
</svg>
