<svg width="158" height="94" viewBox="0 0 158 94" fill="none" xmlns="http://www.w3.org/2000/svg">
<mask id="mask0_1275_2576" style="mask-type:luminance" maskUnits="userSpaceOnUse" x="0" y="0" width="20" height="14">
<path d="M20 0H-5.96046e-07V13.3229H20V0Z" fill="white"/>
</mask>
<g mask="url(#mask0_1275_2576)">
<path d="M0.984374 12.1589H19.3438V0.132812H10.8802C5.41667 0.132812 0.984374 4.5599 0.984374 10.0286V12.1589Z" fill="#14213D"/>
</g>
<mask id="mask1_1275_2576" style="mask-type:luminance" maskUnits="userSpaceOnUse" x="0" y="0" width="22" height="14">
<path d="M21.3359 0H0.00260353V13.3229H21.3359V0Z" fill="white"/>
</mask>
<g mask="url(#mask1_1275_2576)">
<mask id="mask2_1275_2576" style="mask-type:luminance" maskUnits="userSpaceOnUse" x="-1322" y="-1003" width="2305" height="3404">
<path d="M-1321.33 -1002.27H982.669V2400.93H-1321.33V-1002.27Z" fill="black" fill-opacity="0.3"/>
</mask>
<g mask="url(#mask2_1275_2576)">
<mask id="mask3_1275_2576" style="mask-type:luminance" maskUnits="userSpaceOnUse" x="0" y="-1" width="22" height="15">
<path d="M0.00260353 -0.0078125H21.3359V13.3255H0.00260353V-0.0078125Z" fill="white"/>
</mask>
<g mask="url(#mask3_1275_2576)">
<mask id="mask4_1275_2576" style="mask-type:luminance" maskUnits="userSpaceOnUse" x="0" y="0" width="21" height="13">
<path d="M20.0026 0H0.268188V12.8438H20.0026V0Z" fill="white"/>
</mask>
<g mask="url(#mask4_1275_2576)">
<path d="M0.986938 12.1589H19.3463V0.132812H10.8828C5.41923 0.132812 0.986938 4.5599 0.986938 10.0286V12.1589Z" fill="black"/>
</g>
</g>
</g>
</g>
<mask id="mask5_1275_2576" style="mask-type:luminance" maskUnits="userSpaceOnUse" x="142" y="78" width="16" height="16">
<path d="M157.652 78.6562H142.668V93.3229H157.652V78.6562Z" fill="white"/>
</mask>
<g mask="url(#mask5_1275_2576)">
<path d="M142.783 92.2604H145.371C152.163 92.2604 157.663 86.7552 157.663 79.9688H142.783V92.2604Z" fill="#14213D"/>
</g>
<mask id="mask6_1275_2576" style="mask-type:luminance" maskUnits="userSpaceOnUse" x="141" y="78" width="17" height="16">
<path d="M157.652 78.6562H141.335V93.3229H157.652V78.6562Z" fill="white"/>
</mask>
<g mask="url(#mask6_1275_2576)">
<mask id="mask7_1275_2576" style="mask-type:luminance" maskUnits="userSpaceOnUse" x="-1322" y="-1003" width="2305" height="3404">
<path d="M-1321.33 -1002.27H982.668V2400.93H-1321.33V-1002.27Z" fill="black" fill-opacity="0.3"/>
</mask>
<g mask="url(#mask7_1275_2576)">
<mask id="mask8_1275_2576" style="mask-type:luminance" maskUnits="userSpaceOnUse" x="141" y="78" width="18" height="16">
<path d="M141.335 78.6562H158.668V93.3229H141.335V78.6562Z" fill="white"/>
</mask>
<g mask="url(#mask8_1275_2576)">
<mask id="mask9_1275_2576" style="mask-type:luminance" maskUnits="userSpaceOnUse" x="142" y="79" width="16" height="15">
<path d="M157.652 79.7266H142.668V93.1641H157.652V79.7266Z" fill="white"/>
</mask>
<g mask="url(#mask9_1275_2576)">
<path d="M142.783 92.2604H145.371C152.163 92.2604 157.663 86.7552 157.663 79.9688H142.783V92.2604Z" fill="black"/>
</g>
</g>
</g>
</g>
<mask id="mask10_1275_2576" style="mask-type:luminance" maskUnits="userSpaceOnUse" x="13" y="0" width="145" height="80">
<path d="M157.652 0H13.3346V79.9896H157.652V0Z" fill="white"/>
</mask>
<g mask="url(#mask10_1275_2576)">
<path d="M77.7617 79.9688H157.663V64.5573C157.663 28.974 128.819 0.125 93.2305 0.125H13.3347V15.5417C13.3347 51.125 42.1784 79.9688 77.7617 79.9688Z" fill="#14213D"/>
</g>
</svg>
