<svg width="158" height="94" viewBox="0 0 158 94" fill="none" xmlns="http://www.w3.org/2000/svg">
<mask id="mask0_1241_2801" style="mask-type:luminance" maskUnits="userSpaceOnUse" x="137" y="0" width="21" height="14">
<path d="M137.652 0H157.652V13.3229H137.652V0Z" fill="white"/>
</mask>
<g mask="url(#mask0_1241_2801)">
<path d="M156.668 12.1589H138.309V0.132812H146.772C152.236 0.132812 156.668 4.5599 156.668 10.0286V12.1589Z" fill="#14213D"/>
</g>
<mask id="mask1_1241_2801" style="mask-type:luminance" maskUnits="userSpaceOnUse" x="136" y="0" width="22" height="14">
<path d="M136.316 0H157.65V13.3229H136.316V0Z" fill="white"/>
</mask>
<g mask="url(#mask1_1241_2801)">
<mask id="mask2_1241_2801" style="mask-type:luminance" maskUnits="userSpaceOnUse" x="-826" y="-1003" width="2305" height="3404">
<path d="M1478.98 -1002.27H-825.017V2400.93H1478.98V-1002.27Z" fill="black" fill-opacity="0.3"/>
</mask>
<g mask="url(#mask2_1241_2801)">
<mask id="mask3_1241_2801" style="mask-type:luminance" maskUnits="userSpaceOnUse" x="136" y="-1" width="22" height="15">
<path d="M157.65 -0.0078125H136.316V13.3255H157.65V-0.0078125Z" fill="white"/>
</mask>
<g mask="url(#mask3_1241_2801)">
<mask id="mask4_1241_2801" style="mask-type:luminance" maskUnits="userSpaceOnUse" x="137" y="0" width="21" height="13">
<path d="M137.65 0H157.384V12.8438H137.65V0Z" fill="white"/>
</mask>
<g mask="url(#mask4_1241_2801)">
<path d="M156.665 12.1589H138.306V0.132812H146.77C152.233 0.132812 156.665 4.5599 156.665 10.0286V12.1589Z" fill="black"/>
</g>
</g>
</g>
</g>
<mask id="mask5_1241_2801" style="mask-type:luminance" maskUnits="userSpaceOnUse" x="0" y="78" width="15" height="16">
<path d="M0 78.6562H14.9844V93.3229H0V78.6562Z" fill="white"/>
</mask>
<g mask="url(#mask5_1241_2801)">
<path d="M14.8698 92.2604H12.2812C5.48956 92.2604 -0.010437 86.7552 -0.010437 79.9688H14.8698V92.2604Z" fill="#14213D"/>
</g>
<mask id="mask6_1241_2801" style="mask-type:luminance" maskUnits="userSpaceOnUse" x="0" y="78" width="17" height="16">
<path d="M0 78.6562H16.3177V93.3229H0V78.6562Z" fill="white"/>
</mask>
<g mask="url(#mask6_1241_2801)">
<mask id="mask7_1241_2801" style="mask-type:luminance" maskUnits="userSpaceOnUse" x="-826" y="-1003" width="2305" height="3404">
<path d="M1478.98 -1002.27H-825.016V2400.93H1478.98V-1002.27Z" fill="black" fill-opacity="0.3"/>
</mask>
<g mask="url(#mask7_1241_2801)">
<mask id="mask8_1241_2801" style="mask-type:luminance" maskUnits="userSpaceOnUse" x="-2" y="78" width="19" height="16">
<path d="M16.3177 78.6562H-1.01562V93.3229H16.3177V78.6562Z" fill="white"/>
</mask>
<g mask="url(#mask8_1241_2801)">
<mask id="mask9_1241_2801" style="mask-type:luminance" maskUnits="userSpaceOnUse" x="0" y="79" width="15" height="15">
<path d="M0 79.7266H14.9844V93.1641H0V79.7266Z" fill="white"/>
</mask>
<g mask="url(#mask9_1241_2801)">
<path d="M14.8698 92.2604H12.2812C5.48956 92.2604 -0.010437 86.7552 -0.010437 79.9688H14.8698V92.2604Z" fill="black"/>
</g>
</g>
</g>
</g>
<mask id="mask10_1241_2801" style="mask-type:luminance" maskUnits="userSpaceOnUse" x="0" y="0" width="145" height="80">
<path d="M0 0H144.318V79.9896H0V0Z" fill="white"/>
</mask>
<g mask="url(#mask10_1241_2801)">
<path d="M79.8906 79.9688H-0.010437V64.5573C-0.010437 28.974 28.8333 0.125 64.4219 0.125H144.318V15.5417C144.318 51.125 115.474 79.9688 79.8906 79.9688Z" fill="#14213D"/>
</g>
</svg>
