<svg width="14" height="14" viewBox="0 0 14 14" fill="none" xmlns="http://www.w3.org/2000/svg">
<path d="M9.9339 0.663898L10.0099 0.816898L10.5869 2.3499C10.6319 2.4699 10.7269 2.5659 10.8479 2.6109L12.3279 3.1659C12.9779 3.4099 13.3269 4.1039 13.1539 4.7609L13.1119 4.8909L12.4239 6.4139C12.3977 6.47205 12.3841 6.53511 12.3841 6.5989C12.3841 6.66269 12.3977 6.72575 12.4239 6.7839L13.0769 8.2229C13.2141 8.52474 13.2345 8.86673 13.1342 9.18276C13.0339 9.49879 12.8201 9.76641 12.5339 9.9339L12.3809 10.0099L10.8479 10.5869C10.7884 10.6095 10.7344 10.6444 10.6894 10.6894C10.6444 10.7344 10.6095 10.7884 10.5869 10.8479L10.0319 12.3279C9.91549 12.6386 9.68793 12.8951 9.39328 13.0477C9.09863 13.2003 8.75785 13.2381 8.4369 13.1539L8.3069 13.1119L6.7839 12.4239C6.72575 12.3977 6.66269 12.3841 6.5989 12.3841C6.53511 12.3841 6.47205 12.3977 6.4139 12.4239L4.9749 13.0779C4.67294 13.215 4.33086 13.2353 4.01482 13.1348C3.69878 13.0343 3.43122 12.8202 3.2639 12.5339L3.1879 12.3809L2.6109 10.8479C2.58832 10.7884 2.55338 10.7344 2.50839 10.6894C2.4634 10.6444 2.40938 10.6095 2.3499 10.5869L0.869898 10.0319C0.559171 9.91549 0.302685 9.68793 0.150095 9.39328C-0.00249523 9.09863 -0.0403361 8.75785 0.043898 8.4369L0.0858979 8.3069L0.774898 6.7839C0.801123 6.72575 0.814685 6.66269 0.814685 6.5989C0.814685 6.53511 0.801123 6.47205 0.774898 6.4139L0.120898 4.9749C-0.0163108 4.67306 -0.0367427 4.33107 0.063552 4.01504C0.163847 3.69901 0.377745 3.43138 0.663898 3.2639L0.816898 3.1879L2.3499 2.6109C2.40938 2.58832 2.4634 2.55338 2.50839 2.50839C2.55338 2.4634 2.58832 2.40938 2.6109 2.3499L3.1659 0.869898C3.28231 0.559171 3.50986 0.302685 3.80451 0.150095C4.09916 -0.00249523 4.43995 -0.0403361 4.7609 0.043898L4.8909 0.0858979L6.4139 0.774898C6.47205 0.801123 6.53511 0.814685 6.5989 0.814685C6.66269 0.814685 6.72575 0.801123 6.7839 0.774898L8.2229 0.120898C8.52474 -0.0163108 8.86673 -0.0367427 9.18276 0.063552C9.49879 0.163847 9.76641 0.377745 9.9339 0.663898ZM8.7629 4.3039L5.5769 7.9469L4.4149 6.7829C4.37374 6.73989 4.32441 6.70553 4.26979 6.68184C4.21518 6.65816 4.15638 6.64562 4.09686 6.64496C4.03733 6.6443 3.97827 6.65555 3.92315 6.67802C3.86803 6.7005 3.81795 6.73376 3.77586 6.77586C3.73376 6.81795 3.7005 6.86803 3.67802 6.92315C3.65555 6.97827 3.64431 7.03733 3.64496 7.09686C3.64562 7.15638 3.65816 7.21518 3.68184 7.26979C3.70553 7.32441 3.73989 7.37374 3.7829 7.4149L5.2829 8.9149C5.32619 8.95808 5.37788 8.99193 5.43477 9.01434C5.49167 9.03675 5.55255 9.04725 5.61367 9.04518C5.67478 9.04312 5.73482 9.02854 5.79007 9.00235C5.84533 8.97616 5.89462 8.9389 5.9349 8.8929L9.4349 4.8929C9.50616 4.80293 9.5401 4.68901 9.52967 4.57471C9.51924 4.46041 9.46524 4.35451 9.37887 4.27893C9.29249 4.20336 9.18036 4.1639 9.06569 4.16873C8.95102 4.17356 8.8426 4.22132 8.7629 4.3039Z" fill="#4169E1"/>
</svg>
