<svg width="15" height="20" viewBox="0 0 15 20" fill="none" xmlns="http://www.w3.org/2000/svg">
<path d="M1.5 1.48596V17.7127L6.0945 14.0706C6.49344 13.7544 6.98912 13.5822 7.5 13.5822C8.01088 13.5822 8.50656 13.7544 8.9055 14.0706L13.5 17.7112V1.48596H1.5ZM0.75 0H14.25C14.4489 0 14.6397 0.0782781 14.7803 0.217614C14.921 0.35695 15 0.54593 15 0.742981V19.2581C14.9998 19.3979 14.9598 19.5348 14.8846 19.6531C14.8093 19.7714 14.7019 19.8662 14.5747 19.9268C14.4475 19.9873 14.3056 20.011 14.1654 19.9953C14.0252 19.9795 13.8923 19.9248 13.782 19.8376L7.968 15.2311C7.8351 15.126 7.67007 15.0687 7.5 15.0687C7.32993 15.0687 7.1649 15.126 7.032 15.2311L1.218 19.8376C1.10772 19.9248 0.97483 19.9795 0.834603 19.9953C0.694377 20.011 0.552504 19.9873 0.425289 19.9268C0.298074 19.8662 0.190679 19.7714 0.115448 19.6531C0.0402166 19.5348 0.000200899 19.3979 0 19.2581V0.742981C0 0.54593 0.0790178 0.35695 0.21967 0.217614C0.360322 0.0782781 0.551088 0 0.75 0Z" fill="black"/>
</svg>
